<svg width="128" height="128" viewBox="0 0 128 128" fill="none" xmlns="http://www.w3.org/2000/svg">
<path d="M6 125C5.2 125 4.4 124.7 3.9 124.1C3.3 123.6 3 122.8 3 122V46C3 45.8 3.1 45.6 3.2 45.5C3.3 45.3 3.5 45.2 3.6 45.1L23 36.7V4C23 3.7 23.1 3.5 23.3 3.3C23.5 3.1 23.7 3 24 3H104C104.3 3 104.5 3.1 104.7 3.3C104.9 3.5 105 3.7 105 4V36.7L124.4 45.1C124.6 45.2 124.7 45.3 124.8 45.5C124.9 45.7 125 45.9 125 46V122C125 122.8 124.7 123.6 124.1 124.1C123.5 124.7 122.8 125 122 125H6ZM89.3 76.1L118.5 122.8L123 122.9V61.5L89.3 76.1ZM11.8 123H116.2L87.4 76.9L64.4 86.9C64.3 87 64.1 87 64 87C63.9 87 63.7 87 63.6 86.9L40.6 76.9L11.8 123ZM5 123H9.3L38.8 76.1L5 61.5V123ZM25 68L63.9 84.9L103 68V5H25V68ZM105 67.1L123 59.3V46.7L105 38.9V67.1ZM5 46.7V59.4L23 67.2V38.9L5 46.7Z" fill="#A29999"/>
<path d="M22 119C21.7 119 21.5 118.9 21.3 118.7C21.1 118.5 21 118.3 21 118C21 117.7 21.1 117.5 21.3 117.3C21.5 117.1 21.7 117 22 117H42C42.3 117 42.5 117.1 42.7 117.3C42.9 117.5 43 117.7 43 118C43 118.3 42.9 118.5 42.7 118.7C42.5 118.9 42.3 119 42 119H22Z" fill="#A29999"/>
<path d="M48 119C47.7 119 47.5 118.9 47.3 118.7C47.1 118.5 47 118.3 47 118C47 117.7 47.1 117.5 47.3 117.3C47.5 117.1 47.7 117 48 117H50C50.3 117 50.5 117.1 50.7 117.3C50.9 117.5 51 117.7 51 118C51 118.3 50.9 118.5 50.7 118.7C50.5 118.9 50.3 119 50 119H48Z" fill="#A29999"/>
<path d="M76.6996 61.8996C76.5996 61.8996 76.3996 61.8996 76.2996 61.7996C76.1996 61.6996 76.0996 61.6996 75.9996 61.5996L63.9996 49.5996L51.9996 61.5996C51.8996 61.6996 51.7996 61.7996 51.6996 61.7996C51.5996 61.7996 51.4996 61.8996 51.2996 61.8996C51.0996 61.8996 50.9996 61.8996 50.8996 61.7996C50.7996 61.6996 50.6996 61.6996 50.5996 61.5996L44.8996 55.8996C44.7996 55.7996 44.6996 55.6996 44.6996 55.5996C44.6996 55.4996 44.5996 55.2996 44.5996 55.1996C44.5996 55.0996 44.5996 54.8996 44.6996 54.7996C44.6996 54.6996 44.7996 54.5996 44.8996 54.4996L56.8996 42.4996L44.8996 30.4996C44.7996 30.3996 44.6996 30.2996 44.6996 30.1996C44.6996 30.0996 44.5996 29.8996 44.5996 29.7996C44.5996 29.6996 44.5996 29.4996 44.6996 29.3996C44.7996 29.2996 44.7996 29.1996 44.8996 29.0996L50.5996 23.3996C50.6996 23.2996 50.7996 23.1996 50.8996 23.1996C50.9996 23.1996 51.1996 23.0996 51.2996 23.0996C51.3996 23.0996 51.5996 23.0996 51.6996 23.1996C51.7996 23.2996 51.8996 23.2996 51.9996 23.3996L63.9996 35.3996L75.9996 23.3996C76.0996 23.2996 76.1996 23.1996 76.2996 23.1996C76.3996 23.1996 76.5996 23.0996 76.6996 23.0996C76.7996 23.0996 76.9996 23.0996 77.0996 23.1996C77.1996 23.2996 77.2996 23.2996 77.3996 23.3996L83.0996 29.0996C83.1996 29.1996 83.2996 29.2996 83.2996 29.3996C83.3996 29.4996 83.3996 29.6996 83.3996 29.7996C83.3996 29.8996 83.3996 30.0996 83.2996 30.1996C83.1996 30.2996 83.1996 30.3996 83.0996 30.4996L71.0996 42.4996L83.0996 54.4996C83.1996 54.5996 83.2996 54.6996 83.2996 54.7996C83.3996 54.8996 83.3996 55.0996 83.3996 55.1996C83.3996 55.2996 83.3996 55.4996 83.2996 55.5996C83.2996 55.6996 83.1996 55.7996 83.0996 55.8996L77.3996 61.5996C77.2996 61.6996 77.1996 61.7996 77.0996 61.7996C76.9996 61.7996 76.8996 61.8996 76.6996 61.8996ZM63.9996 47.0996C64.0996 47.0996 64.2996 47.0996 64.3996 47.1996C64.4996 47.1996 64.5996 47.2996 64.6996 47.3996L76.6996 59.3996L80.8996 55.1996L68.8996 43.1996C68.7996 43.0996 68.6996 42.9996 68.6996 42.8996C68.6996 42.7996 68.5996 42.6996 68.5996 42.4996C68.5996 42.3996 68.5996 42.1996 68.6996 42.0996C68.6996 41.9996 68.7996 41.8996 68.8996 41.7996L80.8996 29.7996L76.6996 25.5996L64.6996 37.5996C64.5996 37.6996 64.4996 37.7996 64.3996 37.7996C64.2996 37.7996 64.0996 37.8996 63.9996 37.8996C63.8996 37.8996 63.6996 37.8996 63.5996 37.7996C63.4996 37.7996 63.3996 37.6996 63.2996 37.5996L51.2996 25.5996L46.9996 29.7996L58.9996 41.7996C59.0996 41.8996 59.1996 41.9996 59.1996 42.0996C59.2996 42.1996 59.2996 42.3996 59.2996 42.4996C59.2996 42.5996 59.2996 42.7996 59.1996 42.8996C59.0996 42.9996 59.0996 43.0996 58.9996 43.1996L46.9996 55.1996L51.1996 59.3996L63.1996 47.3996C63.2996 47.2996 63.3996 47.1996 63.4996 47.1996C63.6996 47.1996 63.8996 47.0996 63.9996 47.0996Z" fill="#FE000C"/>
</svg>
