<svg width="128" height="128" viewBox="0 0 128 128" fill="none" xmlns="http://www.w3.org/2000/svg">
<path d="M83.9999 15.1C84.6074 15.1 85.0999 14.6075 85.0999 14C85.0999 13.3925 84.6074 12.9 83.9999 12.9C83.3924 12.9 82.8999 13.3925 82.8999 14C82.8999 14.6075 83.3924 15.1 83.9999 15.1Z" fill="#A29999"/>
<path d="M91.9999 15.1C92.6074 15.1 93.0999 14.6075 93.0999 14C93.0999 13.3925 92.6074 12.9 91.9999 12.9C91.3924 12.9 90.8999 13.3925 90.8999 14C90.8999 14.6075 91.3924 15.1 91.9999 15.1Z" fill="#A29999"/>
<path d="M77.0999 12.9H62.8999V15.1H77.0999V12.9Z" fill="#A29999"/>
<path d="M77.0999 112.9H62.8999V115.1H77.0999V112.9Z" fill="#A29999"/>
<path d="M120.9 123.1V115.1H101.1V118C101.1 119.4 100.6 120.6 99.5999 121.6C98.5999 122.6 97.3999 123.1 95.9999 123.1H43.9999C42.5999 123.1 41.3999 122.6 40.3999 121.6C39.3999 120.6 38.8999 119.4 38.8999 118V99.1H5.9999C5.6999 99.1 5.3999 99 5.1999 98.8C4.9999 98.6 4.8999 98.3 4.8999 98V30C4.8999 29.7 4.9999 29.4 5.1999 29.2C5.3999 29 5.6999 28.9 5.9999 28.9H38.8999V10C38.8999 8.6 39.3999 7.4 40.3999 6.4C41.3999 5.4 42.5999 4.9 43.9999 4.9H95.9999C97.3999 4.9 98.5999 5.4 99.5999 6.4C100.6 7.4 101.1 8.6 101.1 10V38.9L101.9 39C105.5 39.4 108.9 41.1 111.3 43.8C113.7 46.5 115.1 50 115.1 53.7V112.9H122C122.3 112.9 122.6 113 122.8 113.2C123 113.4 123.1 113.7 123.1 114V123.1H120.9ZM41.0999 118C41.0999 118.8 41.3999 119.5 41.9999 120.1C42.4999 120.6 43.2999 120.9 43.9999 120.9H95.9999C96.7999 120.9 97.4999 120.6 97.9999 120.1C98.4999 119.6 98.7999 118.8 98.8999 118.1V106.5L97.6999 106.9C97.1999 107.1 96.5999 107.2 95.9999 107.2H43.9999C43.3999 107.2 42.7999 107.1 42.2999 106.9L41.0999 106.5V118ZM112.9 112.9V53.7C112.9 50.7 111.8 47.8 109.8 45.5C107.8 43.2 105.1 41.7 102.1 41.3L101.1 41.2V55.7L104.8 59.3C105 59.5 105.1 59.8 105.1 60.1C105.1 60.4 105 60.7 104.8 60.9C104.6 61.1 104.3 61.2 104 61.2C103.7 61.2 103.4 61.1 103.2 60.9L96.6999 54.4C96.1999 53.9 95.5999 53.5 94.9999 53.3C94.3999 53 93.6999 52.9 92.9999 52.9C91.5999 52.9 90.2999 53.4 89.2999 54.4C88.7999 54.9 88.3999 55.5 88.1999 56.1C87.8999 56.7 87.7999 57.4 87.7999 58.1C87.7999 58.8 87.8999 59.5 88.1999 60.1C88.4999 60.7 88.7999 61.3 89.2999 61.8L100.8 73.3C101 73.5 101.1 73.8 101.1 74.1C101.1 74.4 101 74.7 100.8 74.9L98.0999 77.6C95.2999 80.4 93.6999 84.2 93.6999 88.1C93.6999 92.1 95.1999 95.8 98.0999 98.6L100.8 101.3C101 101.5 101.1 101.8 101.1 102.1V113H112.9V112.9ZM41.0999 102C41.0999 102.8 41.3999 103.5 41.9999 104.1C42.4999 104.6 43.2999 104.9 43.9999 104.9H95.9999C96.5999 104.9 97.1999 104.7 97.6999 104.4C98.1999 104.1 98.5999 103.6 98.7999 103L98.9999 102.5L96.5999 100.1C93.3999 96.9 91.5999 92.6 91.5999 88C91.5999 83.4 93.3999 79.1 96.5999 75.9L98.4999 74L87.6999 63.3C86.3999 62 85.5999 60.2 85.4999 58.3C85.3999 56.4 86.0999 54.6 87.2999 53.1C88.4999 51.6 90.2999 50.8 92.0999 50.6C92.3999 50.6 92.5999 50.6 92.8999 50.6C94.4999 50.6 96.0999 51.1 97.3999 52.1L98.7999 53.2V26C98.7999 25.2 98.4999 24.5 97.8999 24C97.3999 23.5 96.5999 23.2 95.7999 23.1H43.9999C43.1999 23.1 42.4999 23.4 41.9999 24C41.4999 24.5 41.1999 25.3 41.0999 26V28.9H77.0999V31.1H7.0999V96.9H77.0999V99.1H41.0999V102ZM95.9999 20.9C96.5999 20.9 97.0999 21 97.6999 21.2L98.8999 21.6V10C98.8999 9.2 98.5999 8.5 97.9999 8C97.4999 7.5 96.6999 7.2 95.8999 7.1H43.9999C43.1999 7.1 42.4999 7.4 41.9999 8C41.4999 8.5 41.1999 9.3 41.0999 10V21.6L42.2999 21.2C42.7999 21 43.3999 20.9 43.9999 20.9H95.9999Z" fill="#A29999"/>
<path d="M85.0999 38.9H72.8999V41.1H85.0999V38.9Z" fill="#A29999"/>
<path d="M93.0999 38.9H90.8999V41.1H93.0999V38.9Z" fill="#A29999"/>
<path d="M83.0999 46.9H72.8999V49.1H83.0999V46.9Z" fill="#A29999"/>
<path d="M79.0999 54.9H72.8999V57.1H79.0999V54.9Z" fill="#A29999"/>
<path d="M81.0999 62.9H72.8999V65.1H81.0999V62.9Z" fill="#A29999"/>
<path d="M87.0999 70.9H72.8999V73.1H87.0999V70.9Z" fill="#A29999"/>
<path d="M83.0999 78.9H72.8999V81.1H83.0999V78.9Z" fill="#A29999"/>
<path d="M79.0999 86.9H72.8999V89.1H79.0999V86.9Z" fill="#A29999"/>
<path d="M87.0999 86.9H84.8999V89.1H87.0999V86.9Z" fill="#A29999"/>
<path d="M13.9999 51.1C13.6999 51.1 13.3999 51 13.1999 50.8C12.9999 50.6 12.8999 50.3 12.8999 50V38C12.8999 37.7 12.9999 37.4 13.1999 37.2C13.3999 37 13.6999 36.9 13.9999 36.9H25.9999C26.2999 36.9 26.5999 37 26.7999 37.2C26.9999 37.4 27.0999 37.7 27.0999 38V50C27.0999 50.3 26.9999 50.6 26.7999 50.8C26.5999 51 26.2999 51.1 25.9999 51.1H13.9999ZM24.8999 48.9V39.1H15.0999V48.9H24.8999Z" fill="#FE000C"/>
<path d="M33.9999 51.1C33.6999 51.1 33.3999 51 33.1999 50.8C32.9999 50.6 32.8999 50.3 32.8999 50V38C32.8999 37.7 32.9999 37.4 33.1999 37.2C33.3999 37 33.6999 36.9 33.9999 36.9H45.9999C46.2999 36.9 46.5999 37 46.7999 37.2C46.9999 37.4 47.0999 37.7 47.0999 38V50C47.0999 50.3 46.9999 50.6 46.7999 50.8C46.5999 51 46.2999 51.1 45.9999 51.1H33.9999ZM44.8999 48.9V39.1H35.0999V48.9H44.8999Z" fill="#A29999"/>
<path d="M53.9999 51.1C53.6999 51.1 53.3999 51 53.1999 50.8C52.9999 50.6 52.8999 50.3 52.8999 50V38C52.8999 37.7 52.9999 37.4 53.1999 37.2C53.3999 37 53.6999 36.9 53.9999 36.9H65.9999C66.2999 36.9 66.5999 37 66.7999 37.2C66.9999 37.4 67.0999 37.7 67.0999 38V50C67.0999 50.3 66.9999 50.6 66.7999 50.8C66.5999 51 66.2999 51.1 65.9999 51.1H53.9999ZM64.8999 48.9V39.1H55.0999V48.9H64.8999Z" fill="#A29999"/>
<path d="M53.9999 71.1C53.6999 71.1 53.3999 71 53.1999 70.8C52.9999 70.6 52.8999 70.3 52.8999 70V58C52.8999 57.7 52.9999 57.4 53.1999 57.2C53.3999 57 53.6999 56.9 53.9999 56.9H65.9999C66.2999 56.9 66.5999 57 66.7999 57.2C66.9999 57.4 67.0999 57.7 67.0999 58V70C67.0999 70.3 66.9999 70.6 66.7999 70.8C66.5999 71 66.2999 71.1 65.9999 71.1H53.9999ZM64.8999 68.9V59.1H55.0999V68.9H64.8999Z" fill="#A29999"/>
<path d="M33.9999 71.1C33.6999 71.1 33.3999 71 33.1999 70.8C32.9999 70.6 32.8999 70.3 32.8999 70V58C32.8999 57.7 32.9999 57.4 33.1999 57.2C33.3999 57 33.6999 56.9 33.9999 56.9H45.9999C46.2999 56.9 46.5999 57 46.7999 57.2C46.9999 57.4 47.0999 57.7 47.0999 58V70C47.0999 70.3 46.9999 70.6 46.7999 70.8C46.5999 71 46.2999 71.1 45.9999 71.1H33.9999ZM44.8999 68.9V59.1H35.0999V68.9H44.8999Z" fill="#A29999"/>
<path d="M13.9999 71.1C13.6999 71.1 13.3999 71 13.1999 70.8C12.9999 70.6 12.8999 70.3 12.8999 70V58C12.8999 57.7 12.9999 57.4 13.1999 57.2C13.3999 57 13.6999 56.9 13.9999 56.9H25.9999C26.2999 56.9 26.5999 57 26.7999 57.2C26.9999 57.4 27.0999 57.7 27.0999 58V70C27.0999 70.3 26.9999 70.6 26.7999 70.8C26.5999 71 26.2999 71.1 25.9999 71.1H13.9999ZM24.8999 68.9V59.1H15.0999V68.9H24.8999Z" fill="#A29999"/>
<path d="M13.9999 91.1C13.6999 91.1 13.3999 91 13.1999 90.8C12.9999 90.6 12.8999 90.3 12.8999 90V78C12.8999 77.7 12.9999 77.4 13.1999 77.2C13.3999 77 13.6999 76.9 13.9999 76.9H25.9999C26.2999 76.9 26.5999 77 26.7999 77.2C26.9999 77.4 27.0999 77.7 27.0999 78V90C27.0999 90.3 26.9999 90.6 26.7999 90.8C26.5999 91 26.2999 91.1 25.9999 91.1H13.9999ZM24.8999 88.9V79.1H15.0999V88.9H24.8999Z" fill="#A29999"/>
<path d="M33.9999 91.1C33.6999 91.1 33.3999 91 33.1999 90.8C32.9999 90.6 32.8999 90.3 32.8999 90V78C32.8999 77.7 32.9999 77.4 33.1999 77.2C33.3999 77 33.6999 76.9 33.9999 76.9H45.9999C46.2999 76.9 46.5999 77 46.7999 77.2C46.9999 77.4 47.0999 77.7 47.0999 78V90C47.0999 90.3 46.9999 90.6 46.7999 90.8C46.5999 91 46.2999 91.1 45.9999 91.1H33.9999ZM44.8999 88.9V79.1H35.0999V88.9H44.8999Z" fill="#A29999"/>
<path d="M53.9999 91.1C53.6999 91.1 53.3999 91 53.1999 90.8C52.9999 90.6 52.8999 90.3 52.8999 90V78C52.8999 77.7 52.9999 77.4 53.1999 77.2C53.3999 77 53.6999 76.9 53.9999 76.9H65.9999C66.2999 76.9 66.5999 77 66.7999 77.2C66.9999 77.4 67.0999 77.7 67.0999 78V90C67.0999 90.3 66.9999 90.6 66.7999 90.8C66.5999 91 66.2999 91.1 65.9999 91.1H53.9999ZM64.8999 88.9V79.1H55.0999V88.9H64.8999Z" fill="#A29999"/>
</svg>
