<svg width="56" height="56" viewBox="0 0 56 56" fill="none" xmlns="http://www.w3.org/2000/svg">
<path d="M15.5 42.1998C12.4 42.1998 9.80002 39.7998 9.50002 36.6998L6.80002 4.79982L1.60002 3.89982C1.10002 3.79982 0.80002 3.39982 0.90002 2.89982C1.00002 2.39982 1.40002 2.09982 1.90002 2.19982L7.80002 3.19982C8.20002 3.29982 8.50002 3.59982 8.50002 3.99982L9.30002 13.0998C50.9 13.0998 51.1 13.0998 51.2 13.0998C52.4 13.2998 53.5 13.8998 54.3 14.8998C55.1 15.8998 55.4 17.0998 55.2 18.3998L52.5 36.9998C52.1 39.8998 49.5 42.0998 46.6 42.0998H15.5C15.5 42.1998 15.5 42.1998 15.5 42.1998ZM9.40002 14.7998L11.2 36.4998C11.4 38.6998 13.2 40.3998 15.4 40.3998H46.4C48.5 40.3998 50.3 38.7998 50.6 36.7998L53.3 18.1998C53.4 17.3998 53.2 16.6998 52.7 15.9998C52.2 15.3998 51.5 14.9998 50.8 14.8998C50.3 14.7998 24 14.7998 9.40002 14.7998Z" fill="#A29999"/>
<path fill-rule="evenodd" clip-rule="evenodd" d="M33.2002 22.4C33.2002 21.9 33.6002 21.5 34.1002 21.5H42.0002C42.5002 21.5 42.9002 21.9 42.9002 22.4C42.9002 22.9 42.5002 23.3 42.0002 23.3H34.0002C33.6002 23.3 33.2002 22.9 33.2002 22.4Z" fill="#A29999"/>
<path fill-rule="evenodd" clip-rule="evenodd" d="M27.0996 27.4C27.0996 26.9 27.4996 26.5 27.9996 26.5H41.9996C42.4996 26.5 42.8996 26.9 42.8996 27.4C42.8996 27.9 42.4996 28.3 41.9996 28.3H27.9996C27.4996 28.2 27.0996 27.8 27.0996 27.4Z" fill="#A29999"/>
<path fill-rule="evenodd" clip-rule="evenodd" d="M21.0996 32.4C21.0996 31.9 21.4996 31.5 21.9996 31.5H41.9996C42.4996 31.5 42.8996 31.9 42.8996 32.4C42.8996 32.9 42.4996 33.3 41.9996 33.3H21.9996C21.4996 33.2 21.0996 32.8 21.0996 32.4Z" fill="#A29999"/>
<path fill-rule="evenodd" clip-rule="evenodd" d="M15.4002 48.7002C16.9002 48.7002 18.1002 49.9002 18.1002 51.4002C18.1002 52.9002 16.9002 54.1002 15.4002 54.1002C13.9002 54.1002 12.7002 52.9002 12.7002 51.4002C12.7002 50.0002 13.9002 48.7002 15.4002 48.7002Z" fill="#FE000C"/>
<path fill-rule="evenodd" clip-rule="evenodd" d="M45.0003 48.7002C46.5003 48.7002 47.7003 49.9002 47.7003 51.4002C47.7003 52.9002 46.5003 54.1002 45.0003 54.1002C43.5003 54.1002 42.3003 52.9002 42.3003 51.4002C42.2003 50.0002 43.5003 48.7002 45.0003 48.7002Z" fill="#FE000C"/>
</svg>
