<svg width="56" height="56" viewBox="0 0 56 56" fill="none" xmlns="http://www.w3.org/2000/svg">
<g clip-path="url(#clip0)">
<path d="M32.6667 42.5834L40.25 36.1667L39.6667 41.4167L43.1667 44.9167L35.5833 50.75L36.5 45.5L32.6667 42.5834Z" fill="#FE000C"/>
<path d="M33.3709 21.6711H11.3362C10.2126 21.6711 9.29841 22.5822 9.29841 23.7021V28.5448C9.29841 29.6647 10.2125 30.5758 11.3362 30.5758H33.371C34.4946 30.5758 35.4087 29.6647 35.4087 28.5448V23.7021C35.4086 22.5822 34.4946 21.6711 33.3709 21.6711ZM33.768 28.5448C33.768 28.76 33.5898 28.9352 33.3709 28.9352H11.3362C11.1172 28.9352 10.939 28.76 10.939 28.5448V23.7021C10.939 23.4869 11.1172 23.3118 11.3362 23.3118H33.371C33.5899 23.3118 33.7681 23.4869 33.7681 23.7021L33.768 28.5448ZM35.4086 12.806C35.4086 11.6861 34.4946 10.775 33.3709 10.775H11.3362C10.2126 10.775 9.29841 11.6861 9.29841 12.806V17.6486C9.29841 18.7685 10.2125 19.6796 11.3362 19.6796H33.371C34.4946 19.6796 35.4087 18.7685 35.4087 17.6486L35.4086 12.806ZM33.768 17.6488C33.768 17.864 33.5898 18.0391 33.3709 18.0391H11.3362C11.1172 18.0391 10.939 17.864 10.939 17.6488V12.8061C10.939 12.5908 11.1172 12.4157 11.3362 12.4157H33.371C33.5899 12.4157 33.7681 12.5908 33.7681 12.8061L33.768 17.6488ZM37.9513 31.1956C35.9111 31.1956 33.9847 31.691 32.2853 32.5674H11.3362C10.2127 32.5674 9.29852 33.4786 9.29852 34.5985V39.4405C9.29852 40.5604 10.2126 41.4716 11.3362 41.4716H25.7322C25.6123 42.1626 25.5492 42.8729 25.5492 43.5976C25.5492 46.2492 26.3861 48.7086 27.8089 50.7269H11.3362C11.1172 50.7269 10.9391 50.5517 10.9391 50.3365V45.4944C10.9391 45.2791 11.1172 45.104 11.3362 45.104H23.1094C23.5625 45.104 23.9297 44.7367 23.9297 44.2836C23.9297 43.8306 23.5625 43.4633 23.1094 43.4633H11.3362C10.2127 43.4633 9.29852 44.3745 9.29852 45.4944V50.3365C9.29852 51.4563 10.2126 52.3675 11.3362 52.3675H29.1902C29.9635 53.1401 30.838 53.8112 31.7917 54.3593H10.109C8.55291 54.3593 7.28711 53.0934 7.28711 51.5374V11.6058C7.28711 10.0498 8.55291 8.78391 10.109 8.78391H34.598C36.1541 8.78391 37.4199 10.0498 37.4199 11.6058V28.7383C37.4199 29.1913 37.7871 29.5586 38.2402 29.5586C38.6934 29.5586 39.0605 29.1913 39.0605 28.7383V11.6058C39.0605 9.14517 37.0587 7.14328 34.598 7.14328H30.2157V3.24833C30.2157 1.4572 28.7585 0 26.9674 0H17.7397C15.9486 0 14.4914 1.4572 14.4914 3.24833V7.14328H10.109C7.64838 7.14328 5.64648 9.14517 5.64648 11.6058V51.5375C5.64648 53.9981 7.64838 56 10.109 56H34.598C35.0237 56 35.4436 55.9395 35.8495 55.8211C36.5329 55.9382 37.235 56 37.9513 56C44.7898 56 50.3535 50.4364 50.3535 43.5977C50.3535 36.7592 44.7899 31.1956 37.9513 31.1956ZM16.1319 3.24833C16.1319 2.36184 16.8532 1.64062 17.7396 1.64062H26.9673C27.8538 1.64062 28.575 2.36184 28.575 3.24833V7.14328H16.1319V3.24833ZM11.3362 39.8311C11.1172 39.8311 10.9391 39.6559 10.9391 39.4406V34.5986C10.9391 34.3832 11.1172 34.2081 11.3362 34.2081H29.8578C28.1444 35.687 26.8391 37.6261 26.1346 39.8311H11.3362ZM37.9513 54.3594C32.0173 54.3594 27.1896 49.5318 27.1896 43.5977C27.1896 37.6638 32.0173 32.8362 37.9513 32.8362C43.8852 32.8362 48.7129 37.6638 48.7129 43.5977C48.7129 49.5318 43.8852 54.3594 37.9513 54.3594Z" fill="#A29999"/>
</g>
<defs>
<clipPath id="clip0">
<rect width="56" height="56" fill="white"/>
</clipPath>
</defs>
</svg>
