<svg width="24" height="24" viewBox="0 0 24 24" fill="none" xmlns="http://www.w3.org/2000/svg">
<g id="Iconly/Light/Buy">
<g id="Buy">
<path id="Stroke 1" d="M2.75034 3.24988L4.83034 3.60988L5.79334 15.0829C5.87034 16.0199 6.65334 16.7389 7.59334 16.7359H18.5023C19.3993 16.7379 20.1603 16.0779 20.2873 15.1899L21.2363 8.63188C21.3423 7.89888 20.8333 7.21888 20.1013 7.11288C20.0373 7.10388 5.16434 7.09888 5.16434 7.09888" stroke="#333333" stroke-width="1.5" stroke-linecap="round" stroke-linejoin="round"/>
<path id="Stroke 3" d="M14.1253 10.7948H16.8983" stroke="#333333" stroke-width="1.5" stroke-linecap="round" stroke-linejoin="round"/>
<path id="Stroke 5" fill-rule="evenodd" clip-rule="evenodd" d="M7.15463 20.2025C7.45563 20.2025 7.69863 20.4465 7.69863 20.7465C7.69863 21.0475 7.45563 21.2915 7.15463 21.2915C6.85363 21.2915 6.61063 21.0475 6.61063 20.7465C6.61063 20.4465 6.85363 20.2025 7.15463 20.2025Z" fill="#333333" stroke="#333333" stroke-width="1.5" stroke-linecap="round" stroke-linejoin="round"/>
<path id="Stroke 7" fill-rule="evenodd" clip-rule="evenodd" d="M18.4349 20.2025C18.7359 20.2025 18.9799 20.4465 18.9799 20.7465C18.9799 21.0475 18.7359 21.2915 18.4349 21.2915C18.1339 21.2915 17.8909 21.0475 17.8909 20.7465C17.8909 20.4465 18.1339 20.2025 18.4349 20.2025Z" fill="#333333" stroke="#333333" stroke-width="1.5" stroke-linecap="round" stroke-linejoin="round"/>
</g>
</g>
</svg>
