<svg width="48" height="48" viewBox="0 0 48 48" fill="none" xmlns="http://www.w3.org/2000/svg">
<g clip-path="url(#clip0_161:4318)">
<path d="M47.5411 13.3316L32.3624 7.54469C31.9944 7.40443 31.5824 7.589 31.4421 7.95668C31.3019 8.32472 31.4865 8.73671 31.8545 8.87697L45.286 13.9977L35.9879 17.543L24.2941 12.2483C23.9352 12.0857 23.5129 12.245 23.3507 12.6035C23.1881 12.9624 23.3474 13.3847 23.7059 13.5473L34.1111 18.2586L24 22.1133L2.71399 13.9977L24 5.8821L29.2456 7.88234C29.6129 8.02223 30.0253 7.83803 30.1659 7.46999C30.3062 7.10231 30.1216 6.69032 29.7535 6.55006L24.2542 4.45314C24.0905 4.39088 23.9095 4.39052 23.7458 4.45314L0.458862 13.3316C0.182739 13.437 0 13.7022 0 13.9977V17.2533C0 17.5488 0.182739 17.814 0.458862 17.9194L7.73071 20.6917V23.1621C7.73071 23.5558 8.04968 23.8751 8.44336 23.8751C8.8374 23.8751 9.15637 23.5558 9.15637 23.1621V21.2355L23.7458 26.7979C23.8279 26.829 23.9139 26.8447 24 26.8447C24.0861 26.8447 24.1721 26.829 24.2542 26.7979L35.2515 22.6051V33.8873C31.7988 35.6997 27.9272 36.6709 24 36.6709C18.6401 36.6709 13.3828 34.864 9.15637 31.5758V26.0138C9.15637 25.6201 8.8374 25.3008 8.44336 25.3008C8.04968 25.3008 7.73071 25.6201 7.73071 26.0138V31.9212C7.73071 32.1376 7.82886 32.3423 7.99768 32.4774C12.5208 36.1011 18.204 38.0966 24 38.0966C27.9089 38.0966 31.7659 37.1876 35.2515 35.4851V38.3705C34.1027 38.6843 33.2556 39.7365 33.2556 40.9834C33.2556 42.4768 34.4707 43.6923 35.9641 43.6923C37.4579 43.6923 38.673 42.4768 38.673 40.9834C38.673 39.7365 37.8259 38.6843 36.6771 38.3705V34.7322C37.8391 34.0712 38.9524 33.319 40.0027 32.4774C40.1715 32.3423 40.27 32.1376 40.27 31.9212V20.6913L47.5411 17.9191C47.8173 17.814 48 17.5488 48 17.2529V13.9977C48 13.7022 47.8173 13.437 47.5411 13.3316ZM37.2473 40.9834C37.2473 41.6906 36.6716 42.2663 35.9641 42.2663C35.257 42.2663 34.6813 41.6906 34.6813 40.9834C34.6813 40.2759 35.257 39.7002 35.9641 39.7002C36.6716 39.7002 37.2473 40.2759 37.2473 40.9834ZM1.42566 15.0326L23.287 23.3676V25.0968L1.42566 16.7619V15.0326ZM24.713 25.0968V23.3676L35.2515 19.3495V21.0791L24.713 25.0968ZM38.844 31.5755C38.1486 32.1167 37.4246 32.617 36.6771 33.0762V22.0613L38.844 21.2351V31.5755ZM36.6771 20.5353V18.806L46.5743 15.0326V16.7619L36.6771 20.5353Z" fill="#A29999"/>
<circle cx="36" cy="41" r="2.2" stroke="#FE000C" stroke-width="1.6"/>
</g>
<defs>
<clipPath id="clip0_161:4318">
<rect width="48" height="48" fill="white"/>
</clipPath>
</defs>
</svg>
