<svg width="26" height="26" viewBox="0 0 26 26" fill="none" xmlns="http://www.w3.org/2000/svg">
<path d="M21.8335 17.3034L23.7446 17.292C24.1089 17.2899 24.406 17.5834 24.4082 17.9477L24.4308 21.7426C24.433 22.1068 24.1395 22.4039 23.7751 22.4062L21.864 22.4176C21.4997 22.4197 21.2026 22.1262 21.2004 21.7619L21.1777 17.967C21.1755 17.6027 21.4691 17.3056 21.8335 17.3034Z" fill="#2F4859"/>
<path d="M2.38527 17.4196L4.29643 17.4082C4.6607 17.4061 4.95781 17.6996 4.96002 18.0639L4.98259 21.8588C4.98474 22.2231 4.69122 22.5202 4.32688 22.5224L2.41573 22.5338C2.05145 22.536 1.75435 22.2425 1.75213 21.8781L1.7295 18.0833C1.72735 17.7189 2.02093 17.4218 2.38527 17.4196Z" fill="#2F4859"/>
<path d="M24.0056 8.06093C23.8459 8.076 23.7245 8.21092 23.7262 8.37121C23.7655 8.6841 23.565 8.9771 23.2592 9.05378L22.7837 9.05672L23.0278 9.76929C23.0278 9.76929 26.089 9.7509 25.9974 8.74546C25.9264 7.96514 24.5978 8.00413 24.0056 8.06093Z" fill="#2F4859"/>
<path d="M1.99384 8.06093C2.15348 8.076 2.2749 8.21092 2.2732 8.37121C2.23388 8.6841 2.43441 8.9771 2.74025 9.05378L3.21571 9.05672L2.97155 9.76929C2.97155 9.76929 -0.0895435 9.7509 0.00201365 8.74546C0.0729639 7.96514 1.40159 8.00413 1.99384 8.06093Z" fill="#2F4859"/>
<path d="M25.3161 14.0317C25.2589 13.284 25.0427 12.557 24.6819 11.8996L23.3916 9.53324C23.3916 9.53324 21.1005 4.369 20.146 3.95804C19.2231 3.56064 13.3325 3.4713 12.9422 3.46582H12.9206C12.5303 3.47612 6.64122 3.63583 5.72324 4.04418C4.77363 4.46643 2.54306 9.65675 2.54306 9.65675L1.2822 12.0385C0.929467 12.7002 0.721964 13.4295 0.673511 14.1778C0.584824 15.8307 0.762916 17.4871 1.20088 19.0834C1.40721 19.8362 2.09473 20.3555 2.87532 20.3481L13.0209 20.2894H13.0425L23.188 20.2291C23.9685 20.227 24.6496 19.6995 24.8469 18.9443C25.2663 17.3427 25.4247 15.6838 25.3161 14.0317Z" fill="#FE7058"/>
<path d="M8.0669 17.1L17.9536 17.041C18.1305 17.04 18.2747 17.1825 18.2758 17.3594L18.2858 19.0428C18.2869 19.2197 18.1443 19.364 17.9675 19.365L8.08079 19.424C7.90387 19.4251 7.75963 19.2825 7.75858 19.1057L7.74854 17.4222C7.7475 17.2453 7.89005 17.1011 8.0669 17.1Z" fill="#3A556A"/>
<path d="M20.3297 4.73718C20.2265 4.51239 20.0039 4.36638 19.7565 4.36136L12.9962 4.22266H12.975L6.21663 4.44203C5.96954 4.45011 5.74874 4.59867 5.64825 4.82456L3.70898 9.18656L13.0036 9.13107H13.0249L22.3208 9.07557L20.3297 4.73718Z" fill="#2F4859"/>
<path d="M22.531 16.7569C21.8794 16.7606 21.3541 17.2919 21.3579 17.9436C21.3617 18.5952 21.893 19.1204 22.5446 19.1167C23.1963 19.1129 23.7215 18.5816 23.7177 17.9299C23.7177 17.9297 23.7177 17.9296 23.7177 17.9294C23.7136 17.278 23.1824 16.7531 22.531 16.7569Z" fill="#EBF0F3"/>
<path d="M3.58538 16.8701C2.93373 16.8741 2.40864 17.4055 2.41262 18.0572C2.41653 18.7088 2.94801 19.2339 3.59967 19.2299C4.25133 19.226 4.77634 18.6946 4.77243 18.043C4.76845 17.3913 4.23704 16.8662 3.58538 16.8701Z" fill="#EBF0F3"/>
<path d="M8.58398 14.1074H17.1893V15.1816H8.58398V14.1074Z" fill="#3A556A"/>
<path d="M24.188 12.4192C24.1596 12.1679 23.9327 11.9872 23.6814 12.0157C23.6618 12.0179 23.6424 12.0213 23.6232 12.0261L19.688 12.9883C19.5698 13.0173 19.468 13.0922 19.4051 13.1963L18.6255 14.4866C18.4949 14.7028 18.5643 14.984 18.7806 15.1146C18.8519 15.1577 18.9337 15.1804 19.017 15.1804H22.8619C22.9519 15.1811 23.04 15.1554 23.1155 15.1066C24.0225 14.5059 24.3064 13.5702 24.188 12.4192Z" fill="#E1E6E9"/>
<path d="M22.3211 12.7839C21.8453 12.8034 21.4754 13.2049 21.4949 13.6807C21.5143 14.1564 21.9158 14.5264 22.3916 14.5069C22.8673 14.4874 23.2373 14.0861 23.2179 13.6103C23.1983 13.1346 22.7969 12.7646 22.3211 12.7839Z" fill="#BDBEC1"/>
<path d="M20.4942 13.607C20.1323 13.6215 19.8507 13.9267 19.8653 14.2886C19.8798 14.6504 20.185 14.932 20.5469 14.9175C20.9087 14.9029 21.1903 14.5977 21.1758 14.2359C21.1758 14.2357 21.1758 14.2356 21.1758 14.2354C21.161 13.8737 20.8559 13.5924 20.4942 13.607Z" fill="#BDBEC1"/>
<path d="M1.81208 12.4192C1.84051 12.1679 2.06739 11.9872 2.31871 12.0157C2.33827 12.0179 2.35771 12.0213 2.37688 12.0261L6.31214 12.9883C6.43031 13.0173 6.5321 13.0922 6.59503 13.1963L7.37464 14.4866C7.50519 14.7028 7.43581 14.984 7.21956 15.1146C7.14822 15.1577 7.06645 15.1804 6.98311 15.1804H3.13816C3.04823 15.1811 2.96013 15.1554 2.88462 15.1066C1.97752 14.5059 1.69372 13.5702 1.81208 12.4192Z" fill="#E1E6E9"/>
<path d="M3.67681 12.7839C4.1526 12.8034 4.52254 13.2049 4.50305 13.6807C4.48361 14.1564 4.0821 14.5264 3.60632 14.5069C3.1306 14.4874 2.76066 14.0861 2.78002 13.6103C2.79965 13.1346 3.20103 12.7646 3.67681 12.7839Z" fill="#BDBEC1"/>
<path d="M5.50537 13.607C5.86723 13.6215 6.14882 13.9267 6.13427 14.2886C6.11973 14.6504 5.81454 14.932 5.45268 14.9175C5.09082 14.9029 4.80924 14.5977 4.82378 14.2359C4.82378 14.2357 4.82378 14.2356 4.82378 14.2354C4.83858 13.8737 5.14364 13.5924 5.50537 13.607Z" fill="#BDBEC1"/>
</svg>
