<svg width="32" height="32" viewBox="0 0 32 32" fill="none" xmlns="http://www.w3.org/2000/svg">
<g clip-path="url(#clip0)">
<path d="M29.7528 10.0651H28.8764V19.6982C28.8764 21.198 28.0031 22.5543 26.2524 22.5543H9.10016V23.0122C9.10016 24.3383 10.6084 25.6768 12.1571 25.6768H25.2709L30.2878 28.6266L29.5602 25.6768H29.7528C31.3005 25.6768 31.9989 24.3414 31.9989 23.0122V12.3518C31.9989 11.0258 31.3005 10.0651 29.7528 10.0651Z" fill="#FE000C"/>
<path d="M23.6919 3.37231H3.76997C2.01717 3.37231 0 4.92943 0 6.43034V18.5042C0 19.8865 1.70908 20.8847 3.34843 21.0387L2.28155 25.0887L9.11788 21.0668H23.6919C25.4447 21.0668 27.0622 20.0041 27.0622 18.5042V8.73583V6.43034C27.0622 4.92943 25.4437 3.37231 23.6919 3.37231ZM6.80926 13.5644C5.81525 13.5644 5.00963 12.7587 5.00963 11.7647C5.00963 10.7707 5.81525 9.96508 6.80926 9.96508C7.80224 9.96508 8.6089 10.7707 8.6089 11.7647C8.6089 12.7587 7.80224 13.5644 6.80926 13.5644ZM13.5311 13.5644C12.5371 13.5644 11.7315 12.7587 11.7315 11.7647C11.7315 10.7707 12.5371 9.96508 13.5311 9.96508C14.5251 9.96508 15.3307 10.7707 15.3307 11.7647C15.3307 12.7587 14.5251 13.5644 13.5311 13.5644ZM20.254 13.5644C19.26 13.5644 18.4533 12.7587 18.4533 11.7647C18.4533 10.7707 19.26 9.96508 20.254 9.96508C21.2459 9.96508 22.0536 10.7707 22.0536 11.7647C22.0536 12.7587 21.2459 13.5644 20.254 13.5644Z" fill="#FE000C"/>
</g>
<defs>
<clipPath id="clip0">
<rect width="31.999" height="32" fill="white"/>
</clipPath>
</defs>
</svg>
