<svg width="48" height="48" viewBox="0 0 48 48" fill="none" xmlns="http://www.w3.org/2000/svg">
<path d="M40.8 11.7H29.6V10.9C29.5953 6.92539 26.3746 3.70468 22.4 3.7H7.2C3.22539 3.70468 0.0046875 6.92539 0 10.9V20.5C0.0046875 24.4746 3.22539 27.6953 7.2 27.7H8V34.1C8 34.4234 8.19492 34.7152 8.49375 34.8391C8.79258 34.9629 9.13672 34.8941 9.36563 34.6656L16.3313 27.7H18.4V28.5C18.4047 32.4746 21.6254 35.6953 25.6 35.7H30.0688L38.6344 44.2656C38.8633 44.4941 39.2074 44.5629 39.5063 44.4391C39.8051 44.3152 40 44.0234 40 43.7V35.7H40.8C44.7746 35.6953 47.9953 32.4746 48 28.5V18.9C47.9953 14.9254 44.7746 11.7047 40.8 11.7ZM16 26.1C15.7879 26.1 15.5844 26.1844 15.4344 26.3344L9.6 32.1687V26.9C9.6 26.4582 9.2418 26.1 8.8 26.1H7.2C4.10859 26.0965 1.60352 23.5914 1.6 20.5V10.9C1.60352 7.80859 4.10859 5.30351 7.2 5.3H22.4C25.4914 5.30351 27.9965 7.80859 28 10.9V11.7H25.6C21.6254 11.7047 18.4047 14.9254 18.4 18.9V26.1H16ZM46.4 28.5C46.3965 31.5914 43.8914 34.0965 40.8 34.1H39.2C38.7582 34.1 38.4 34.4582 38.4 34.9V41.7687L30.9656 34.3344C30.8156 34.1844 30.6121 34.1 30.4 34.1H25.6C22.5086 34.0965 20.0035 31.5914 20 28.5V18.9C20.0035 15.8086 22.5086 13.3035 25.6 13.3H40.8C43.8914 13.3035 46.3965 15.8086 46.4 18.9V28.5Z" fill="#A29999"/>
<path d="M42.4002 18.1H24.0002C23.5584 18.1 23.2002 18.4582 23.2002 18.9C23.2002 19.3418 23.5584 19.7 24.0002 19.7H42.4002C42.842 19.7 43.2002 19.3418 43.2002 18.9C43.2002 18.4582 42.842 18.1 42.4002 18.1Z" fill="#FE000C"/>
<path d="M42.4002 22.9H24.0002C23.5584 22.9 23.2002 23.2582 23.2002 23.7C23.2002 24.1418 23.5584 24.5 24.0002 24.5H42.4002C42.842 24.5 43.2002 24.1418 43.2002 23.7C43.2002 23.2582 42.842 22.9 42.4002 22.9Z" fill="#FE000C"/>
<path d="M42.4002 27.7H24.0002C23.5584 27.7 23.2002 28.0582 23.2002 28.5C23.2002 28.9418 23.5584 29.3 24.0002 29.3H42.4002C42.842 29.3 43.2002 28.9418 43.2002 28.5C43.2002 28.0582 42.842 27.7 42.4002 27.7Z" fill="#FE000C"/>
<path d="M4.8 11.7H21.6C22.0418 11.7 22.4 11.3418 22.4 10.9C22.4 10.4582 22.0418 10.1 21.6 10.1H4.8C4.3582 10.1 4 10.4582 4 10.9C4 11.3418 4.3582 11.7 4.8 11.7Z" fill="#A29999"/>
<path d="M16.8 14.9H4.8C4.3582 14.9 4 15.2582 4 15.7C4 16.1418 4.3582 16.5 4.8 16.5H16.8C17.2418 16.5 17.6 16.1418 17.6 15.7C17.6 15.2582 17.2418 14.9 16.8 14.9Z" fill="#A29999"/>
<path d="M16 19.7H4.8C4.3582 19.7 4 20.0582 4 20.5C4 20.9418 4.3582 21.3 4.8 21.3H16C16.4418 21.3 16.8 20.9418 16.8 20.5C16.8 20.0582 16.4418 19.7 16 19.7Z" fill="#A29999"/>
</svg>
