<svg width="56" height="57" viewBox="0 0 56 57" fill="none" xmlns="http://www.w3.org/2000/svg">
<g clip-path="url(#clip0)">
<path d="M12.7939 10.7466C13.247 10.7466 13.6142 10.3791 13.6142 9.92579C13.6142 9.47247 13.247 9.10495 12.7939 9.10495C12.3409 9.10495 11.9736 9.47247 11.9736 9.92579C11.9736 10.3791 12.3408 10.7466 12.7939 10.7466ZM6.23142 10.7466C6.68445 10.7466 7.05173 10.3791 7.05173 9.92579C7.05173 9.47247 6.68445 9.10495 6.23142 9.10495C5.77839 9.10495 5.41111 9.47247 5.41111 9.92579C5.41111 10.3791 5.77828 10.7466 6.23142 10.7466ZM9.51267 10.7466C9.9657 10.7466 10.333 10.3791 10.333 9.92579C10.333 9.47247 9.9657 9.10495 9.51267 9.10495C9.05964 9.10495 8.69236 9.47247 8.69236 9.92579C8.69236 10.3791 9.05953 10.7466 9.51267 10.7466ZM9.33275 19.4424C9.33778 19.4425 9.34281 19.4425 9.34784 19.4425L16.7645 19.4443C17.2769 19.4443 17.7123 19.1122 17.8476 18.6177C17.983 18.123 17.7775 17.6153 17.3365 17.3543L16.2085 16.6864C18.0215 14.8884 19.0412 12.435 19.025 9.86461C18.9925 4.72419 14.7879 0.482215 9.65234 0.40823C4.3307 0.331728 0 4.63915 0 9.92601C0 14.9958 4.17463 19.3326 9.33275 19.4424ZM3.98672 4.31585C5.49938 2.8239 7.49875 2.02003 9.62883 2.04969C13.8784 2.11087 17.3575 5.6212 17.3844 9.8749C17.3989 12.1698 16.4154 14.3523 14.686 15.8624C14.3968 16.1148 14.2453 16.4936 14.2803 16.8757C14.3153 17.2575 14.5333 17.602 14.8631 17.7972L14.8713 17.802L9.35594 17.8007C5.09228 17.7188 1.64062 14.2041 1.64062 9.92601C1.64062 7.80047 2.47384 5.80814 3.98672 4.31585ZM55.1797 54.8014H54.3594V42.5775C54.3594 39.3749 52.4682 36.4667 49.5321 35.1645L45.209 33.3104C46.2609 32.9782 47.2113 32.3859 47.9846 31.5643C49.1513 30.3248 49.8203 28.643 49.8203 26.95C49.8203 25.3943 49.2772 23.926 48.2494 22.7034C46.9638 21.1759 46.2558 19.2345 46.2558 17.2367V13.3033C46.2558 9.85815 44.915 6.61989 42.4805 4.18507C40.046 1.74882 36.8095 0.407245 33.367 0.407245C26.2607 0.407245 20.4794 6.19229 20.4794 13.3032V17.1086C20.4798 19.1758 19.6679 21.1489 18.3486 22.7395C16.6882 24.7412 16.3433 27.4477 17.4485 29.8026C18.2688 31.5507 19.7484 32.8066 21.5198 33.3382L17.2268 35.2062C14.2149 36.4744 12.2687 39.4066 12.2687 42.6761V52.339C12.2687 52.7923 12.6359 53.1599 13.089 53.1599C13.5422 53.1599 13.9093 52.7923 13.9093 52.339V42.6761C13.9093 40.0689 15.4612 37.7306 17.8721 36.7155L23.2531 34.3741V39.3149H20.7809C20.0842 39.3149 19.4173 39.6122 18.9513 40.1305C18.4854 40.6489 18.2603 41.3437 18.3338 42.037L19.686 54.8014H0.820312C0.367172 54.8014 0 55.1689 0 55.6223C0 56.0756 0.367172 56.4431 0.820312 56.4431H55.1797C55.6328 56.4431 56 56.0756 56 55.6223C56 55.1689 55.6328 54.8014 55.1797 54.8014ZM46.9942 23.7604C47.7697 24.683 48.1797 25.7859 48.1797 26.9499C48.1797 28.2289 47.6733 29.5005 46.7903 30.4386C45.8554 31.4318 44.571 31.9788 43.1737 31.9788H42.1047L40.7004 31.3766C39.4738 30.8501 38.6346 29.7217 38.4631 28.4226C40.9942 27.059 42.7187 24.3826 42.7187 21.3101V15.1393C42.9588 15.1556 43.1986 15.1645 43.4378 15.1645C43.8324 15.1645 44.2253 15.142 44.6153 15.0978V17.2366C44.6152 19.6208 45.4602 21.9377 46.9942 23.7604ZM33.5664 36.7188C30.6318 36.7708 27.7192 36.3987 24.8938 35.6145V33.6601L25.131 33.5569C25.1328 33.5562 25.1347 33.5553 25.1367 33.5545L26.6001 32.9178C28.2291 32.2091 29.3803 30.7577 29.7293 29.0615C30.4437 29.2693 31.1976 29.3829 31.9781 29.3829H34.6511C35.4345 29.3829 36.1913 29.2684 36.908 29.0591C37.2685 30.7475 38.4241 32.1859 40.0539 32.8855L41.6158 33.5553L41.6187 33.5565L41.7344 33.6061V35.4532C39.0796 36.2447 36.3349 36.6704 33.5664 36.7188ZM41.7342 37.1623V39.3151H24.8938V37.3144C27.5531 38.0121 30.2835 38.3652 33.0325 38.3652C33.2199 38.3652 33.4075 38.3635 33.5951 38.3603C36.3502 38.3121 39.0829 37.9092 41.7342 37.1623ZM44.6152 13.4426C42.3556 13.748 39.8086 13.1424 38.0538 11.7819C37.6958 11.5043 37.1805 11.5695 36.9029 11.928C36.6254 12.2863 36.6908 12.8019 37.0489 13.0796C38.1962 13.9689 39.5799 14.5954 41.0781 14.9112V19.38C40.6839 20.279 40.2451 21.0266 39.2558 21.8433C38.8393 22.1871 38.3834 22.4727 37.8952 22.6992C37.4965 21.9207 36.6868 21.3864 35.7542 21.3864H33.8319C32.5059 21.3864 31.4273 22.4659 31.4273 23.7926C31.4273 25.1193 32.5059 26.1987 33.8319 26.1987H35.7542C36.8701 26.1987 37.8107 25.4341 38.0808 24.4012C39.1781 23.9828 40.9678 22.4896 40.9678 22.4896C40.4123 25.4739 37.7921 27.7408 34.6512 27.7408H31.978C28.4342 27.7408 25.5511 24.8559 25.5511 21.3098V14.9649C28.3372 14.5278 30.9693 13.5844 33.3832 12.1557C37.0587 9.98029 39.4162 7.13757 40.839 4.89164C43.2733 7.06117 44.6581 10.1715 44.6152 13.4426ZM36.518 23.7949C36.5168 24.2155 36.1747 24.5573 35.7541 24.5573H33.8318C33.4104 24.5573 33.0678 24.2143 33.0678 23.7928C33.0678 23.3713 33.4106 23.0283 33.8318 23.0283H35.7541C36.1746 23.0283 36.5166 23.3699 36.518 23.7903V23.7949ZM22.12 13.3032C22.12 7.09751 27.1654 2.04892 33.367 2.04892C35.5912 2.04892 37.7165 2.69136 39.5327 3.88738C38.2234 5.98752 36.0196 8.68818 32.5479 10.7431C30.1663 12.1528 27.5539 13.0527 24.783 13.4181H24.7318H24.7307H24.7296H22.1199L22.12 13.3032ZM18.9334 29.1048C18.1016 27.332 18.3612 25.2947 19.6101 23.7892C21.1771 21.9001 22.1218 19.5658 22.12 17.1086V15.0597H23.9105V21.3101C23.9105 24.3843 25.6372 27.062 28.1705 28.4249C28.012 29.7338 27.1754 30.8772 25.9458 31.4121L24.6434 31.9788H23.4544C21.4977 31.9788 19.7654 30.8776 18.9334 29.1048ZM47.4897 41.864L46.1192 54.8014H21.3358L19.9652 41.864C19.9404 41.6295 20.0134 41.4038 20.171 41.2286C20.3287 41.0533 20.5453 40.9567 20.7809 40.9567H46.674C46.9096 40.9567 47.1263 41.0533 47.2839 41.2286C47.4415 41.4038 47.5146 41.6295 47.4897 41.864ZM52.7188 54.8014H47.769L49.1212 42.0372C49.1947 41.3438 48.9695 40.649 48.5037 40.1306C48.0376 39.6123 47.3709 39.3151 46.674 39.3151H43.3748V34.3098L48.8765 36.6693C51.2106 37.7047 52.7188 40.0237 52.7188 42.5775V54.8014ZM33.7274 44.7598C32.0086 44.7598 30.6102 46.1591 30.6102 47.879C30.6102 49.5989 32.0086 50.9982 33.7274 50.9982C35.4463 50.9982 36.8446 49.5989 36.8446 47.879C36.8446 46.1591 35.4463 44.7598 33.7274 44.7598ZM33.7274 49.3565C32.9132 49.3565 32.2509 48.6937 32.2509 47.879C32.2509 47.0643 32.9132 46.4015 33.7274 46.4015C34.5416 46.4015 35.204 47.0643 35.204 47.879C35.204 48.6937 34.5417 49.3565 33.7274 49.3565Z" fill="#A29999"/>
<path d="M12.7939 10.7466C13.247 10.7466 13.6142 10.3791 13.6142 9.92579C13.6142 9.47247 13.247 9.10495 12.7939 9.10495C12.3409 9.10495 11.9736 9.47247 11.9736 9.92579C11.9736 10.3791 12.3408 10.7466 12.7939 10.7466ZM6.23142 10.7466C6.68445 10.7466 7.05173 10.3791 7.05173 9.92579C7.05173 9.47247 6.68445 9.10495 6.23142 9.10495C5.77839 9.10495 5.41111 9.47247 5.41111 9.92579C5.41111 10.3791 5.77828 10.7466 6.23142 10.7466ZM9.51267 10.7466C9.9657 10.7466 10.333 10.3791 10.333 9.92579C10.333 9.47247 9.9657 9.10495 9.51267 9.10495C9.05964 9.10495 8.69236 9.47247 8.69236 9.92579C8.69236 10.3791 9.05953 10.7466 9.51267 10.7466ZM9.33275 19.4424C9.33778 19.4425 9.34281 19.4425 9.34784 19.4425L16.7645 19.4443C17.2769 19.4443 17.7123 19.1122 17.8476 18.6177C17.983 18.123 17.7775 17.6153 17.3365 17.3543L16.2085 16.6864C18.0215 14.8884 19.0412 12.435 19.025 9.86461C18.9925 4.72419 14.7879 0.482215 9.65234 0.40823C4.3307 0.331728 0 4.63915 0 9.92601C0 14.9958 4.17463 19.3326 9.33275 19.4424ZM3.98672 4.31585C5.49938 2.8239 7.49875 2.02003 9.62883 2.04969C13.8784 2.11087 17.3575 5.6212 17.3844 9.8749C17.3989 12.1698 16.4154 14.3523 14.686 15.8624C14.3968 16.1148 14.2453 16.4936 14.2803 16.8757C14.3153 17.2575 14.5333 17.602 14.8631 17.7972L14.8713 17.802L9.35594 17.8007C5.09228 17.7188 1.64062 14.2041 1.64062 9.92601C1.64062 7.80047 2.47384 5.80814 3.98672 4.31585Z" fill="#FE000C"/>
</g>
<defs>
<clipPath id="clip0">
<rect width="56" height="56.0358" fill="white" transform="translate(0 0.407227)"/>
</clipPath>
</defs>
</svg>
