<svg width="56" height="56" viewBox="0 0 56 56" fill="none" xmlns="http://www.w3.org/2000/svg">
<g clip-path="url(#clip0)">
<path d="M12.7939 10.3326C13.247 10.3326 13.6142 9.96534 13.6142 9.5123C13.6142 9.05927 13.247 8.69199 12.7939 8.69199C12.3409 8.69199 11.9736 9.05927 11.9736 9.5123C11.9736 9.96534 12.3408 10.3326 12.7939 10.3326ZM6.23142 10.3326C6.68445 10.3326 7.05173 9.96534 7.05173 9.5123C7.05173 9.05927 6.68445 8.69199 6.23142 8.69199C5.77839 8.69199 5.41111 9.05927 5.41111 9.5123C5.41111 9.96534 5.77828 10.3326 6.23142 10.3326ZM9.51267 10.3326C9.9657 10.3326 10.333 9.96534 10.333 9.5123C10.333 9.05927 9.9657 8.69199 9.51267 8.69199C9.05964 8.69199 8.69236 9.05927 8.69236 9.5123C8.69236 9.96534 9.05953 10.3326 9.51267 10.3326ZM9.33275 19.0228C9.33778 19.0229 9.34281 19.0229 9.34784 19.0229L16.7645 19.0248H16.7649C17.2773 19.0248 17.7123 18.6928 17.8476 18.1987C17.983 17.7043 17.7775 17.1969 17.3365 16.936L16.2085 16.2686C18.0215 14.4717 19.0412 12.0199 19.025 9.45116C18.9925 4.31404 14.7879 0.0747725 9.65234 0.000835038C4.3307 -0.0756181 0 4.22905 0 9.51252C0 14.5791 4.17463 18.9131 9.33275 19.0228ZM3.98672 3.90596C5.49937 2.41496 7.49875 1.6116 9.62883 1.64124C13.8784 1.70238 17.3575 5.21048 17.3844 9.46144C17.3989 11.7549 16.4154 13.936 14.686 15.4451C14.3968 15.6974 14.2453 16.0759 14.2803 16.4577C14.3153 16.8393 14.5333 17.1836 14.8631 17.3787L14.8713 17.3835L9.35594 17.3822C5.09228 17.3004 1.64062 13.7879 1.64062 9.51252C1.64062 7.38835 2.47384 5.39729 3.98672 3.90596ZM55.1797 54.3592H54.3594V42.1431C54.3594 38.9426 52.4682 36.0363 49.5321 34.7348L45.209 32.8819C46.2609 32.55 47.2113 31.958 47.9846 31.1369C49.1513 29.8983 49.8203 28.2175 49.8203 26.5256C49.8203 24.9709 49.2772 23.5036 48.2494 22.2817C46.9638 20.7552 46.2558 18.8151 46.2558 16.8186V12.8876C46.2558 9.44471 44.915 6.20852 42.4805 3.77526C40.046 1.34057 36.8095 -0.000149337 33.367 -0.000149337C26.2607 -0.000149337 20.4794 5.78119 20.4794 12.8875V16.6905C20.4798 18.7564 19.6679 20.7283 18.3486 22.3178C16.6882 24.3183 16.3433 27.023 17.4485 29.3764C18.2688 31.1234 19.7484 32.3785 21.5198 32.9097L17.2268 34.7765C14.2149 36.0439 12.2687 38.9742 12.2687 42.2417V51.8984C12.2687 52.3514 12.6359 52.7187 13.089 52.7187C13.5422 52.7187 13.9093 52.3514 13.9093 51.8984V42.2417C13.9093 39.6362 15.4612 37.2994 17.8721 36.2849L23.2531 33.9449V38.8827H20.7809C20.0842 38.8827 19.4173 39.1797 18.9513 39.6977C18.4854 40.2157 18.2603 40.9102 18.3338 41.6029L19.686 54.3592H0.820312C0.367172 54.3592 0 54.7265 0 55.1795C0 55.6326 0.367172 55.9999 0.820312 55.9999H55.1797C55.6328 55.9999 56 55.6326 56 55.1795C56 54.7265 55.6328 54.3592 55.1797 54.3592ZM46.9942 23.3381C47.7698 24.2601 48.1797 25.3623 48.1797 26.5255C48.1797 27.8037 47.6733 29.0745 46.7903 30.012C45.8554 31.0046 44.571 31.5513 43.1737 31.5513H42.1047L40.7004 30.9494C39.4738 30.4233 38.6346 29.2955 38.4631 27.9973C40.9942 26.6345 42.7187 23.9599 42.7187 20.8894V14.7225C42.9588 14.7388 43.1986 14.7476 43.4378 14.7476C43.8324 14.7476 44.2253 14.7252 44.6153 14.681V16.8184C44.6152 19.2011 45.4602 21.5165 46.9942 23.3381ZM33.5664 36.2882C30.6318 36.3401 27.7192 35.9683 24.8938 35.1846V33.2315L25.131 33.1283C25.1328 33.1276 25.1347 33.1267 25.1367 33.1259L26.6001 32.4896C28.2291 31.7814 29.3803 30.3309 29.7293 28.6358C30.4437 28.8435 31.1976 28.957 31.9781 28.957H34.6511C35.4345 28.957 36.1913 28.8426 36.908 28.6334C37.2685 30.3207 38.4241 31.7582 40.0539 32.4573L41.6158 33.1267C41.6167 33.1271 41.6177 33.1276 41.6187 33.1279L41.7344 33.1774V35.0234C39.0796 35.8144 36.3349 36.2398 33.5664 36.2882ZM41.7342 36.7314V38.8828H24.8938V36.8834C27.5531 37.5807 30.2835 37.9335 33.0325 37.9335C33.2199 37.9335 33.4075 37.9319 33.5951 37.9286C36.3502 37.8805 39.0829 37.4779 41.7342 36.7314ZM44.6152 13.0269C42.3556 13.3321 39.8086 12.7268 38.0538 11.3672C37.6958 11.0898 37.1805 11.155 36.9029 11.5132C36.6254 11.8713 36.6908 12.3866 37.0489 12.6641C38.1962 13.5528 39.5799 14.1789 41.0781 14.4946V18.9604C40.6839 19.8589 40.2451 20.606 39.2558 21.4221C38.8393 21.7658 38.3834 22.0512 37.8952 22.2776C37.4965 21.4996 36.6868 20.9656 35.7542 20.9656H33.8319C32.5059 20.9656 31.4273 22.0444 31.4273 23.3702C31.4273 24.6961 32.5059 25.7748 33.8319 25.7748H35.7542C36.8701 25.7748 37.8107 25.0107 38.0808 23.9785C39.1781 23.5603 40.9674 22.0687 40.9678 22.0681C40.4123 25.0504 37.7921 27.3159 34.6512 27.3159H31.978C28.4342 27.3159 25.5511 24.4329 25.5511 20.8891V14.5481C28.3372 14.1114 30.9693 13.1686 33.3832 11.7408C37.0587 9.56677 39.4162 6.72587 40.839 4.48138C43.2733 6.64952 44.6581 9.75785 44.6152 13.0269ZM36.518 23.3725C36.5168 23.7929 36.1747 24.1344 35.7541 24.1344H33.8318C33.4105 24.1344 33.0678 23.7916 33.0678 23.3704C33.0678 22.9492 33.4106 22.6065 33.8318 22.6065H35.7541C36.1746 22.6065 36.5166 22.9478 36.518 23.3679V23.3725ZM22.12 12.8875C22.12 6.68584 27.1654 1.64048 33.367 1.64048C35.5912 1.64048 37.7165 2.28251 39.5327 3.47776C38.2234 5.57655 36.0196 8.27549 32.5479 10.3291C30.1663 11.7379 27.5539 12.6373 24.783 13.0024H24.7318C24.7314 13.0024 24.7311 13.0024 24.7307 13.0024C24.7302 13.0024 24.73 13.0024 24.7296 13.0024H22.1199V12.8875H22.12ZM18.9334 28.6791C18.1016 26.9074 18.3612 24.8714 19.6101 23.3668C21.1771 21.4789 22.1217 19.1462 22.12 16.6905V14.643H23.9105V20.8894C23.9105 23.9616 25.6372 26.6376 28.1705 27.9996C28.012 29.3076 27.1754 30.4503 25.9458 30.9849L24.6434 31.5513H23.4544C21.4977 31.5513 19.7654 30.4507 18.9334 28.6791ZM47.4897 41.4301L46.1192 54.3592H21.3358L19.9652 41.4301C19.9404 41.1957 20.0134 40.9702 20.171 40.7951C20.3287 40.6199 20.5453 40.5234 20.7809 40.5234H46.674C46.9096 40.5234 47.1263 40.6199 47.2839 40.7951C47.4415 40.9702 47.5146 41.1957 47.4897 41.4301ZM52.7188 54.3592H47.769L49.1212 41.6031C49.1947 40.9103 48.9695 40.2158 48.5037 39.6978C48.0376 39.1798 47.3709 38.8828 46.674 38.8828H43.3748V33.8807L48.8765 36.2387C51.2106 37.2734 52.7188 39.591 52.7188 42.1431V54.3592ZM33.7274 44.3241C32.0086 44.3241 30.6102 45.7224 30.6102 47.4413C30.6102 49.1601 32.0086 50.5584 33.7274 50.5584C35.4462 50.5584 36.8446 49.1601 36.8446 47.4413C36.8446 45.7224 35.4462 44.3241 33.7274 44.3241ZM33.7274 48.9178C32.9132 48.9178 32.2509 48.2554 32.2509 47.4413C32.2509 46.6271 32.9132 45.9647 33.7274 45.9647C34.5416 45.9647 35.204 46.6271 35.204 47.4413C35.204 48.2554 34.5417 48.9178 33.7274 48.9178Z" fill="white"/>
</g>
<defs>
<clipPath id="clip0">
<rect width="56" height="56" fill="white"/>
</clipPath>
</defs>
</svg>
