<svg width="56" height="56" viewBox="0 0 56 56" fill="none" xmlns="http://www.w3.org/2000/svg">
<g clip-path="url(#clip0)">
<path d="M37.3 23C34 23 30.7 22 27.5 20.1C26.6 19.5 26 18.5 26 17.4V10.5C26 10 26.4 9.60001 26.9 9.60001C27.4 9.60001 27.8 10 27.8 10.5V17.4C27.8 17.9 28.1 18.4 28.5 18.7C31.5 20.5 34.5 21.4 37.5 21.4C40.4 21.4 43.5 20.5 46.4 18.7C46.8 18.5 47.1 18 47.1 17.4V10.5C47.1 10 47.5 9.60001 48 9.60001C48.5 9.60001 48.9 10 48.9 10.5V17.4C48.9 18.5 48.3 19.6 47.4 20.1C43.9 22 40.6 23 37.3 23Z" fill="#FE000C"/>
<path d="M37.3008 16C37.2008 16 37.1008 16 36.9008 15.9L21.8008 9C21.5008 8.9 21.3008 8.5 21.3008 8.2C21.3008 7.9 21.5008 7.6 21.8008 7.4L37.0008 0.400003C37.1008 0.300003 37.2008 0.300003 37.4008 0.300003C37.6008 0.300003 37.6008 0.300003 37.8008 0.400003L53.0008 7.4C53.3008 7.5 53.5008 7.9 53.5008 8.2C53.5008 8.5 53.3008 8.8 53.0008 9L37.8008 16C37.6008 16 37.5008 16 37.3008 16ZM24.2008 8.2L37.3008 14.2L50.4008 8.2L37.3008 2.2L24.2008 8.2Z" fill="#FE000C"/>
<path d="M3.50156 41.7C3.00156 41.7 2.60156 41.3 2.60156 40.8V5.8C2.60156 2.7 5.10156 0.300003 8.10156 0.300003H22.1016C22.6016 0.300003 23.0016 0.700003 23.0016 1.2C23.0016 1.6 22.6016 2 22.2016 2H8.20156C6.10156 2 4.40156 3.7 4.40156 5.8V40.8C4.40156 41.3 4.00156 41.7 3.50156 41.7Z" fill="#A29999"/>
<path d="M8.20312 46.4C5.10313 46.4 2.70312 43.9 2.70312 40.9C2.70312 37.8 5.20312 35.4 8.20312 35.4H42.3031V29.3C42.3031 28.8 42.7031 28.4 43.2031 28.4C43.7031 28.4 44.1031 28.8 44.1031 29.3V36.3C44.1031 36.8 43.7031 37.2 43.2031 37.2H8.20312C6.10313 37.2 4.40313 38.9 4.40313 41C4.40313 43.1 6.10313 44.8 8.20312 44.8H17.5031C18.0031 44.8 18.4031 45.2 18.4031 45.7C18.4031 46.2 18.0031 46.6 17.5031 46.6H8.20312V46.4Z" fill="#A29999"/>
<path d="M29.2008 46.4C28.7008 46.4 28.3008 46 28.3008 45.5C28.3008 45 28.7008 44.6 29.2008 44.6H42.3008V36.1C42.3008 35.6 42.7008 35.2 43.2008 35.2C43.7008 35.2 44.1008 35.6 44.1008 36.1V45.4C44.1008 45.9 43.7008 46.3 43.2008 46.3H29.2008V46.4Z" fill="#A29999"/>
<path d="M17.5016 55.7C17.4016 55.7 17.2016 55.7 17.1016 55.6C16.8016 55.5 16.6016 55.1 16.6016 54.8V40.8C16.6016 40.3 17.0016 39.9 17.5016 39.9C18.0016 39.9 18.4016 40.3 18.4016 40.8V53L22.8016 49.5C23.0016 49.4 23.1016 49.3 23.3016 49.3C23.5016 49.3 23.7016 49.4 23.8016 49.5L28.2016 53V40.8C28.2016 40.3 28.6016 39.9 29.1016 39.9C29.6016 39.9 30.0016 40.3 30.0016 40.8V54.8C30.0016 55.1 29.8016 55.4 29.5016 55.6C29.4016 55.7 29.3016 55.7 29.1016 55.7C28.9016 55.7 28.7016 55.6 28.6016 55.5L23.3016 51.3L18.0016 55.5C17.9016 55.6 17.7016 55.7 17.5016 55.7Z" fill="#A29999"/>
<path d="M12.8023 41.7C12.3023 41.7 11.9023 41.3 11.9023 40.8C11.9023 40.3 12.3023 39.9 12.8023 39.9H33.8023C34.3023 39.9 34.7023 40.3 34.7023 40.8C34.7023 41.3 34.3023 41.7 33.8023 41.7H12.8023Z" fill="#A29999"/>
</g>
<defs>
<clipPath id="clip0">
<rect width="56" height="56" fill="white"/>
</clipPath>
</defs>
</svg>
