<svg width="32" height="32" viewBox="0 0 32 32" fill="none" xmlns="http://www.w3.org/2000/svg">
<g clip-path="url(#clip0_161:2643)">
<path d="M14.9423 4.28906H10.4808V5.40445H14.9423C15.0902 5.40445 15.2321 5.34569 15.3367 5.2411C15.4412 5.13652 15.5 4.99466 15.5 4.84675C15.5 4.69885 15.4412 4.55699 15.3367 4.45241C15.2321 4.34782 15.0902 4.28906 14.9423 4.28906Z" fill="#FF5023"/>
<path d="M30 9.86523H14.3846V23.2498H30V9.86523Z" fill="#B38B63"/>
<path d="M15.5 9.86523V17.6729C15.5 18.5604 15.8525 19.4115 16.4801 20.039C17.1076 20.6665 17.9587 21.0191 18.8462 21.0191H30V23.2498H14.3846V9.86523H15.5Z" fill="#A97C50"/>
<path d="M11.0386 5.4043V8.75045C11.0386 9.63791 10.686 10.489 10.0585 11.1165C9.43098 11.7441 8.57988 12.0966 7.69242 12.0966V14.3274H4.34627V12.0966C4.01111 11.929 3.72924 11.6714 3.53224 11.3527C3.33524 11.0339 3.23089 10.6666 3.23088 10.2919V5.4043H11.0386Z" fill="#FFBCAB"/>
<path d="M4.34612 14.3271H8.80765C9.69511 14.3271 10.5462 14.6797 11.1737 15.3072C11.8013 15.9347 12.1538 16.7858 12.1538 17.6733V29.9425H0.999963V17.6733C0.999963 16.7858 1.3525 15.9347 1.98003 15.3072C2.60755 14.6797 3.45866 14.3271 4.34612 14.3271Z" fill="#FF5023"/>
<path d="M4.346 22.1345V18.7884C4.346 18.1967 4.58103 17.6293 4.99938 17.211C5.41773 16.7926 5.98514 16.5576 6.57677 16.5576C7.16841 16.5576 7.73581 16.7926 8.15416 17.211C8.57252 17.6293 8.80754 18.1967 8.80754 18.7884V21.0192C8.80754 21.315 8.92506 21.5987 9.13423 21.8079C9.34341 22.017 9.62711 22.1345 9.92293 22.1345H16.6152V26.5961H8.80754C7.62427 26.5961 6.48946 26.126 5.65276 25.2893C4.81606 24.4526 4.346 23.3178 4.346 22.1345Z" fill="#FFDA44"/>
<path d="M16.6153 21.5771H19.9614V23.2502V25.481V27.1541H16.6153V26.5964V22.1348V21.5771Z" fill="#DF461F"/>
<path d="M2.67311 5.40407V4.28869C2.67311 3.10541 3.14317 1.9706 3.97987 1.1339C4.81657 0.297202 5.95138 -0.172852 7.13465 -0.172852C8.31793 -0.172852 9.45274 0.297202 10.2894 1.1339C11.1261 1.9706 11.5962 3.10541 11.5962 4.28869V5.40407H2.67311Z" fill="#DF461F"/>
<path d="M22.1922 14.3268L20.5191 15.4422V9.86523H23.8652V15.4422L22.1922 14.3268Z" fill="#FFA733"/>
<path d="M24.4229 23.25C24.4229 23.8416 24.1878 24.409 23.7695 24.8274C23.3511 25.2457 22.7837 25.4808 22.1921 25.4808H19.9613V23.25H24.4229Z" fill="#FFBCAB"/>
<path d="M12.1538 29.9424H0.999963V32.1732H12.1538V29.9424Z" fill="#6D6E71"/>
</g>
<defs>
<clipPath id="clip0_161:2643">
<rect width="32" height="32" fill="white" transform="matrix(-1 0 0 1 32 0)"/>
</clipPath>
</defs>
</svg>
