<svg width="56" height="57" viewBox="0 0 56 57" fill="none" xmlns="http://www.w3.org/2000/svg">
<path d="M2.2998 23.4097C2.0998 23.4097 1.8998 23.3096 1.7998 23.2096C1.6998 23.1095 1.4998 22.9094 1.4998 22.8093C1.3998 22.6092 1.3998 22.409 1.4998 22.309C1.5998 22.2089 1.6998 22.0088 1.7998 21.9087L8.9998 16.4052C9.0998 16.3051 9.2998 16.2051 9.4998 16.2051H9.5998C9.7998 16.2051 9.9998 16.3051 10.1998 16.5053C10.2998 16.7054 10.3998 16.9055 10.3998 17.1057C10.3998 17.3058 10.2998 17.5059 10.0998 17.706L2.8998 23.2096C2.5998 23.3096 2.4998 23.4097 2.2998 23.4097Z" fill="#A29999"/>
<path d="M2.2999 55.2299C2.0999 55.2299 1.8999 55.1298 1.6999 54.9297C1.4999 54.7296 1.3999 54.5294 1.3999 54.3293V22.509C1.3999 22.3088 1.4999 22.1087 1.6999 21.9086C1.8999 21.7085 2.0999 21.6084 2.2999 21.6084C2.4999 21.6084 2.6999 21.7085 2.8999 21.9086C3.0999 22.1087 3.1999 22.3088 3.1999 22.509V53.4287H52.8999V22.509C52.8999 22.3088 52.9999 22.1087 53.0999 21.9086C53.2999 21.7085 53.4999 21.6084 53.6999 21.6084C53.8999 21.6084 54.0999 21.7085 54.2999 21.9086C54.4999 22.1087 54.5999 22.3088 54.5999 22.509V54.3293C54.5999 54.5294 54.4999 54.7296 54.2999 54.9297C54.0999 55.1298 53.8999 55.2299 53.6999 55.2299H2.2999Z" fill="#A29999"/>
<path d="M27.9999 41.6207C25.6999 41.6207 23.3999 40.8202 21.5999 39.3193L1.6999 23.209C1.4999 23.1089 1.3999 22.8087 1.3999 22.6086C1.3999 22.4085 1.3999 22.1083 1.5999 22.0082C1.6999 21.8081 1.8999 21.708 2.1999 21.708C2.4999 21.708 2.6999 21.8081 2.7999 21.9081L22.6999 38.1185C24.1999 39.3193 26.0999 40.0197 27.9999 40.0197C29.8999 40.0197 31.7999 39.3193 33.2999 38.1185L53.1999 21.9081C53.3999 21.8081 53.4999 21.708 53.6999 21.708C53.9999 21.708 54.1999 21.8081 54.3999 22.0082C54.4999 22.2083 54.5999 22.4085 54.5999 22.6086C54.5999 22.8087 54.4999 23.0088 54.2999 23.209L34.3999 39.4193C32.5999 40.8202 30.2999 41.6207 27.9999 41.6207Z" fill="#A29999"/>
<path d="M53.7 55.23C53.5 55.23 53.3 55.1299 53.2 55.0299L33.3 39.4199C33.1 39.3198 33 39.1197 33 38.8195C33 38.6194 33 38.4193 33.2 38.2191C33.3 38.019 33.5 37.9189 33.8 37.9189H33.9C34.1 37.9189 34.3 38.019 34.4 38.1191L54.3 53.7291C54.4 53.8291 54.5 54.0292 54.6 54.1293C54.6 54.3294 54.6 54.5296 54.6 54.6296C54.5 54.8298 54.4 54.9298 54.3 55.0299C54.1 55.1299 53.9 55.23 53.7 55.23Z" fill="#A29999"/>
<path d="M2.2998 55.23C2.0998 55.23 1.8998 55.1299 1.7998 55.0299C1.6998 54.9298 1.4998 54.8298 1.4998 54.6296C1.3998 54.4295 1.3998 54.2294 1.4998 54.1293C1.4998 53.9292 1.6998 53.8291 1.7998 53.7291L21.6998 38.1191C21.7998 38.019 21.8998 38.019 21.9998 37.9189C22.0998 37.9189 22.1998 37.9189 22.1998 37.9189C22.3998 37.9189 22.4998 38.019 22.5998 38.019C22.6998 38.1191 22.7998 38.1191 22.8998 38.2191C22.9998 38.3192 22.9998 38.4193 23.0998 38.5193C23.0998 38.6194 23.0998 38.7195 23.0998 38.8195C23.0998 38.9196 22.9998 39.0196 22.9998 39.1197C22.8998 39.2198 22.8998 39.3198 22.7998 39.4199L2.7998 55.0299C2.5998 55.1299 2.4998 55.23 2.2998 55.23Z" fill="#A29999"/>
<path d="M53.7002 23.4092C53.5002 23.4092 53.3002 23.3092 53.2002 23.2091L46.0002 17.7056C45.9002 17.6055 45.8002 17.6055 45.8002 17.5055C45.7002 17.4054 45.7002 17.3053 45.7002 17.2053C45.7002 17.1052 45.7002 17.0051 45.7002 16.9051C45.7002 16.805 45.8002 16.7049 45.8002 16.6049C45.9002 16.5048 46.0002 16.4048 46.1002 16.4048C46.2002 16.3047 46.3002 16.3047 46.4002 16.3047H46.5002C46.6002 16.3047 46.7002 16.3047 46.8002 16.3047C46.9002 16.3047 47.0002 16.4048 47.1002 16.5048L54.3002 22.0083C54.4002 22.1084 54.5002 22.3085 54.6002 22.4086C54.7002 22.5087 54.6002 22.8088 54.6002 22.9089C54.5002 23.109 54.4002 23.2091 54.3002 23.3092C54.1002 23.3092 53.9002 23.4092 53.7002 23.4092Z" fill="#A29999"/>
<path d="M34.9002 8.9996C34.7002 8.9996 34.5002 8.89953 34.4002 8.79947L28.0002 3.89633L21.6002 8.79947C21.5002 8.89953 21.3002 8.9996 21.1002 8.9996H21.0002C20.8002 8.9996 20.6002 8.89953 20.4002 8.6994C20.2002 8.49928 20.2002 8.29915 20.2002 8.09902C20.2002 7.89889 20.3002 7.69876 20.5002 7.49864L27.4002 2.19525C27.5002 2.09518 27.7002 1.99512 27.9002 1.99512C28.1002 1.99512 28.3002 2.09518 28.4002 2.19525L35.3002 7.49864C35.4002 7.5987 35.5002 7.79883 35.6002 7.89889C35.7002 8.09902 35.6002 8.29915 35.6002 8.39921C35.5002 8.59934 35.4002 8.6994 35.3002 8.79947C35.3002 8.9996 35.1002 8.9996 34.9002 8.9996Z" fill="#A29999"/>
<path d="M46.5001 29.3129C46.3001 29.3129 46.1001 29.2128 45.9001 29.0127C45.7001 28.8126 45.6001 28.6125 45.6001 28.4123V8.99992H10.3001V28.4123C10.3001 28.6125 10.2001 28.8126 10.0001 29.0127C9.8001 29.2128 9.6001 29.3129 9.4001 29.3129C9.2001 29.3129 9.0001 29.2128 8.9001 29.0127C8.7001 28.8126 8.6001 28.6125 8.6001 28.4123V8.1994C8.6001 7.99928 8.7001 7.79915 8.9001 7.59902C9.0001 7.39889 9.2001 7.29883 9.5001 7.29883H46.6001C46.8001 7.29883 47.0001 7.39889 47.2001 7.59902C47.4001 7.79915 47.5001 7.99928 47.5001 8.1994V28.4123C47.5001 28.6125 47.4001 28.8126 47.2001 29.0127C47.0001 29.2128 46.8001 29.3129 46.5001 29.3129Z" fill="#A29999"/>
<path d="M16.2999 15.5043C16.0999 15.5043 15.8999 15.4042 15.6999 15.2041C15.4999 15.004 15.3999 14.8038 15.3999 14.6037C15.3999 14.4036 15.4999 14.2034 15.6999 14.0033C15.8999 13.8032 16.0999 13.7031 16.2999 13.7031H39.7999C39.9999 13.7031 40.1999 13.8032 40.3999 14.0033C40.5999 14.2034 40.6999 14.4036 40.6999 14.6037C40.6999 14.8038 40.5999 15.004 40.3999 15.2041C40.1999 15.4042 39.9999 15.5043 39.7999 15.5043H16.2999Z" fill="#FE000C"/>
<path d="M16.2999 21.308C16.0999 21.308 15.8999 21.2079 15.6999 21.0078C15.4999 20.8077 15.3999 20.6075 15.3999 20.4074C15.3999 20.2073 15.4999 20.0072 15.6999 19.807C15.8999 19.6069 16.0999 19.5068 16.2999 19.5068H39.7999C39.9999 19.5068 40.1999 19.6069 40.3999 19.807C40.5999 20.0072 40.6999 20.2073 40.6999 20.4074C40.6999 20.6075 40.5999 20.8077 40.3999 21.0078C40.1999 21.2079 39.9999 21.308 39.7999 21.308H16.2999Z" fill="#FE000C"/>
<path d="M16.2999 27.2113C16.0999 27.2113 15.8999 27.1112 15.6999 26.9111C15.4999 26.711 15.3999 26.5109 15.3999 26.3107C15.3999 26.1106 15.4999 25.9105 15.6999 25.7103C15.8999 25.5102 16.0999 25.4102 16.2999 25.4102H39.7999C39.9999 25.4102 40.1999 25.5102 40.3999 25.7103C40.5999 25.9105 40.6999 26.1106 40.6999 26.3107C40.6999 26.5109 40.5999 26.711 40.3999 26.9111C40.1999 27.1112 39.9999 27.2113 39.7999 27.2113H16.2999Z" fill="#FE000C"/>
</svg>
