<svg width="56" height="56" viewBox="0 0 56 56" fill="none" xmlns="http://www.w3.org/2000/svg">
<path d="M7.4998 55.8996C5.9998 55.8996 4.7998 54.6996 4.7998 53.1996V8.39961C4.7998 6.89961 5.9998 5.69961 7.4998 5.69961H10.3998V2.79961C10.3998 1.29961 11.5998 0.0996094 13.0998 0.0996094H39.1998C39.2998 0.0996094 39.2998 0.0996094 39.3998 0.0996094C39.6998 0.0996094 39.7998 0.299609 39.9998 0.499609L50.8998 11.3996C51.0998 11.4996 51.2998 11.6996 51.2998 11.9996C51.2998 12.0996 51.2998 12.0996 51.2998 12.1996V47.5996C51.2998 49.0996 50.0998 50.2996 48.5998 50.2996H45.6998V53.1996C45.6998 54.6996 44.4998 55.8996 42.9998 55.8996H7.4998ZM7.4998 7.39961C6.8998 7.39961 6.4998 7.89961 6.4998 8.39961V53.1996C6.4998 53.7996 6.8998 54.1996 7.4998 54.1996H42.9998C43.5998 54.1996 43.9998 53.7996 43.9998 53.1996V50.2996H13.0998C11.5998 50.2996 10.3998 49.0996 10.3998 47.5996V7.39961H7.4998ZM13.0998 1.79961C12.4998 1.79961 12.0998 2.29961 12.0998 2.79961V47.5996C12.0998 48.1996 12.4998 48.5996 13.0998 48.5996H48.5998C49.1998 48.5996 49.5998 48.1996 49.5998 47.5996V12.9996H41.0998C39.5998 12.9996 38.3998 11.7996 38.3998 10.2996V1.79961H13.0998ZM39.9998 10.2996C39.9998 10.8996 40.3998 11.2996 40.9998 11.2996H48.2998L39.9998 2.89961V10.2996Z" fill="#A29999"/>
<path d="M17.7004 13.0004C17.2004 13.0004 16.9004 12.7004 16.9004 12.2004C16.9004 11.7004 17.2004 11.4004 17.7004 11.4004H34.5004C35.0004 11.4004 35.3004 11.7004 35.3004 12.2004C35.3004 12.7004 35.0004 13.0004 34.5004 13.0004H17.7004Z" fill="#FE000C"/>
<path d="M17.7004 18.6C17.2004 18.6 16.9004 18.3 16.9004 17.8C16.9004 17.3 17.2004 17 17.7004 17H45.7004C46.2004 17 46.5004 17.3 46.5004 17.8C46.5004 18.3 46.2004 18.6 45.7004 18.6H17.7004Z" fill="#FE000C"/>
<path d="M17.7004 24.1996C17.2004 24.1996 16.9004 23.8996 16.9004 23.3996C16.9004 22.8996 17.2004 22.5996 17.7004 22.5996H45.7004C46.2004 22.5996 46.5004 22.8996 46.5004 23.3996C46.5004 23.8996 46.2004 24.1996 45.7004 24.1996H17.7004Z" fill="#FE000C"/>
<path d="M17.7004 29.8002C17.2004 29.8002 16.9004 29.5002 16.9004 29.0002C16.9004 28.5002 17.2004 28.2002 17.7004 28.2002H45.7004C46.2004 28.2002 46.5004 28.5002 46.5004 29.0002C46.5004 29.5002 46.2004 29.8002 45.7004 29.8002H17.7004Z" fill="#A29999"/>
<path d="M17.7004 35.3998C17.2004 35.3998 16.9004 35.0998 16.9004 34.5998C16.9004 34.0998 17.2004 33.7998 17.7004 33.7998H45.7004C46.2004 33.7998 46.5004 34.0998 46.5004 34.5998C46.5004 35.0998 46.2004 35.3998 45.7004 35.3998H17.7004Z" fill="#A29999"/>
<path d="M17.7004 41.0004C17.2004 41.0004 16.9004 40.7004 16.9004 40.2004C16.9004 39.7004 17.2004 39.4004 17.7004 39.4004H45.7004C46.2004 39.4004 46.5004 39.7004 46.5004 40.2004C46.5004 40.7004 46.2004 41.0004 45.7004 41.0004H17.7004Z" fill="#A29999"/>
</svg>
