<svg width="56" height="56" viewBox="0 0 56 56" fill="none" xmlns="http://www.w3.org/2000/svg">
<path d="M22.9317 47.4093L24.5233 47.7593C26.5937 48.2195 28.7375 48.2417 30.817 47.8244C32.8965 47.4072 34.8657 46.5597 36.5983 45.3364L47.7554 37.4614C47.909 37.353 48.0235 37.1981 48.0821 37.0195C48.1408 36.841 48.1403 36.6483 48.0809 36.47L47.8316 35.7219C47.6677 35.2301 47.4001 34.7792 47.0469 34.3997C46.6936 34.0203 46.263 33.7212 45.7841 33.5226C45.3052 33.3241 44.7892 33.2307 44.2711 33.2489C43.753 33.2671 43.2449 33.3964 42.7811 33.628L41.9997 34.0209L41.5841 33.8135C40.8752 33.4718 40.101 33.2871 39.3142 33.272C38.5275 33.2569 37.7467 33.4118 37.0253 33.726L35.6699 33.3874C34.9902 33.2224 34.2825 33.2086 33.5968 33.3471C32.9111 33.4856 32.2642 33.773 31.7018 34.1889L29.4583 35.875H25.5812L24.3247 35.2459C22.6504 34.4088 20.7847 34.0292 18.9164 34.1455C17.0482 34.2618 15.2439 34.87 13.6864 35.9083L10.9363 37.7458L9.66757 38.3802L8.66219 36.3589C8.56239 36.1591 8.39 36.0051 8.18031 35.9283C7.97063 35.8515 7.73952 35.8578 7.53432 35.9459L1.40932 38.5709C1.30132 38.6172 1.20375 38.6847 1.12242 38.7695C1.0411 38.8543 0.977678 38.9546 0.935951 39.0644C0.894223 39.1743 0.875042 39.2914 0.879551 39.4088C0.88406 39.5262 0.912167 39.6415 0.962195 39.7478L7.96219 54.6228C8.03261 54.7723 8.14395 54.8989 8.28332 54.9878C8.42269 55.0767 8.58439 55.1242 8.74969 55.125C8.90318 55.1259 9.05415 55.0861 9.18719 55.0095L15.3122 51.5095C15.5065 51.3988 15.6511 51.2179 15.7162 51.0039C15.7813 50.7899 15.762 50.5591 15.6622 50.3589L14.7312 48.4978C17.2513 47.1807 20.1553 46.7952 22.9317 47.4093ZM40.4019 35.2162L36.4286 38.6225C36.1878 38.0305 35.8205 37.4983 35.3523 37.0633L36.9457 35.7875C37.429 35.4127 37.9981 35.1641 38.6015 35.0643C39.2049 34.9646 39.8237 35.0168 40.4019 35.2162ZM32.7527 35.5915C33.0804 35.3531 33.4531 35.1836 33.8482 35.0934C34.2433 35.0032 34.6526 34.994 35.0513 35.0665L33.7388 36.1165C33.3 35.9632 32.8394 35.8817 32.3747 35.875L32.7527 35.5915ZM9.1382 53.025L2.9257 39.8265L7.45907 37.884L13.7223 50.4L9.1382 53.025ZM10.4507 39.9455L11.7632 39.2875C11.7957 39.2709 11.8272 39.2525 11.8577 39.2324L14.6577 37.3687C15.9575 36.5018 17.4632 35.9937 19.0225 35.8959C20.5818 35.798 22.1392 36.1138 23.5372 36.8113L24.9801 37.5332C25.1026 37.5942 25.2378 37.6257 25.3747 37.625H32.3747C32.9174 37.6257 33.4467 37.7942 33.8899 38.1075C34.333 38.4209 34.6684 38.8636 34.8501 39.375H27.1247V41.125H35.8747C36.0837 41.125 36.2857 41.0502 36.4443 40.9142L42.4879 35.7333L43.5607 35.1969C43.8204 35.068 44.1064 35.0006 44.3963 35C44.7888 34.9995 45.1715 35.1228 45.4899 35.3523C45.8083 35.5818 46.0463 35.9059 46.1699 36.2784L46.2137 36.4097L35.5877 43.911C34.0544 44.993 32.3119 45.7427 30.4719 46.1118C28.6319 46.481 26.7351 46.4616 24.9031 46.0548L23.3106 45.7004C20.1417 44.9995 16.8272 45.4362 13.9481 46.9342L10.4507 39.9455Z" fill="#A29999"/>
<path d="M54.5259 9.66965L28.2759 0.919649C28.0964 0.859868 27.9024 0.859868 27.7229 0.919649L1.47288 9.66965C1.29782 9.72719 1.14539 9.83853 1.03733 9.98779C0.929271 10.1371 0.871094 10.3166 0.871094 10.5009C0.871094 10.6852 0.929271 10.8647 1.03733 11.014C1.14539 11.1633 1.29782 11.2746 1.47288 11.3321L11.3744 14.6309V24.5C11.3744 24.6359 11.406 24.7698 11.4668 24.8913C11.5275 25.0128 11.6157 25.1185 11.7244 25.2C16.4196 28.7214 22.1303 30.625 27.9994 30.625C33.8684 30.625 39.5791 28.7214 44.2744 25.2C44.383 25.1185 44.4712 25.0128 44.532 24.8913C44.5928 24.7698 44.6244 24.6359 44.6244 24.5V14.6309L48.9994 13.1723V20.125C48.8245 20.1249 48.6536 20.1772 48.5087 20.2751C48.3638 20.3731 48.2516 20.5122 48.1865 20.6745L46.4365 25.0495C46.3955 25.1531 46.3744 25.2636 46.3744 25.375V27.125C46.3744 27.3571 46.4666 27.5796 46.6307 27.7437C46.7948 27.9078 47.0173 28 47.2494 28H52.4994C52.7314 28 52.954 27.9078 53.1181 27.7437C53.2822 27.5796 53.3744 27.3571 53.3744 27.125V25.375C53.3743 25.2636 53.3533 25.1531 53.3123 25.0495L51.5623 20.6745C51.4972 20.5122 51.385 20.3731 51.2401 20.2751C51.0952 20.1772 50.9243 20.1249 50.7494 20.125V12.5895L54.5259 11.3304C54.7009 11.2729 54.8534 11.1615 54.9614 11.0123C55.0695 10.863 55.1277 10.6834 55.1277 10.4991C55.1277 10.3149 55.0695 10.1353 54.9614 9.98604C54.8534 9.83678 54.7009 9.72544 54.5259 9.6679V9.66965ZM51.6244 25.543V26.25H48.1244V25.543L49.5917 21.875H50.157L51.6244 25.543ZM27.9994 28.875C22.66 28.8645 17.458 27.1816 13.1244 24.0625V21.7875C17.5461 24.6837 22.7136 26.2339 27.9994 26.25C33.2852 26.2339 38.4526 24.6837 42.8744 21.7875V24.0625C38.5407 27.1816 33.3388 28.8645 27.9994 28.875ZM42.8744 19.6656C38.5438 22.7934 33.3413 24.4842 27.9994 24.5C22.6574 24.4842 17.455 22.7934 13.1244 19.6656V15.2145L27.7229 20.0804C27.9024 20.1402 28.0964 20.1402 28.2759 20.0804L42.8744 15.2145V19.6656ZM27.9994 18.3278L4.51613 10.5L27.9994 2.67227L51.4826 10.5L27.9994 18.3278Z" fill="#A29999"/>
<path d="M28 12.25C28.9665 12.25 29.75 11.4665 29.75 10.5C29.75 9.5335 28.9665 8.75 28 8.75C27.0335 8.75 26.25 9.5335 26.25 10.5C26.25 11.4665 27.0335 12.25 28 12.25Z" fill="#A29999"/>
<path d="M50.6738 20.1049L49.0696 20.1049C48.6577 20.1049 48.2879 20.3575 48.1381 20.7412L46.4493 25.0672C46.4041 25.1831 46.3809 25.3065 46.3809 25.4309V27.0322C46.3809 27.5845 46.8286 28.0322 47.3809 28.0322H52.3665C52.9188 28.0322 53.3665 27.5845 53.3665 27.0322V25.4313C53.3665 25.3066 53.3432 25.183 53.2978 25.0669L51.6051 20.7405C51.4551 20.3571 51.0855 20.1049 50.6738 20.1049Z" fill="#FE000C"/>
</svg>
