<svg width="56" height="56" viewBox="0 0 56 56" fill="none" xmlns="http://www.w3.org/2000/svg">
<g clip-path="url(#clip0)">
<path d="M54.8363 27.9778H47.9501C47.2689 27.9778 46.5955 27.8006 46.0024 27.4653L40.0712 24.1132C39.1504 23.5927 38.1046 23.3177 37.047 23.3177H29.3284H18.6551C17.6041 23.3177 16.5641 23.5896 15.6476 24.104L9.67143 27.4572C9.08362 27.787 8.41684 27.962 7.74306 27.9636L1.16134 27.9779C0.557346 27.9792 0.0686364 28.47 0.0699489 29.074C0.0712615 29.6773 0.560627 30.1655 1.16375 30.1655H1.16615L7.74787 30.1511C8.79398 30.1489 9.82937 29.8769 10.7419 29.3649L16.7181 26.0117C17.3084 25.6805 17.9783 25.5053 18.6551 25.5053H26.9932L20.6454 33.1232C20.4537 33.3534 20.3646 33.6522 20.3993 33.9498C20.434 34.2474 20.5891 34.5177 20.8285 34.6977C23.7902 36.9241 27.9923 36.459 30.3951 33.6381L31.4695 32.3768C32.8304 33.9207 35.7407 36.4962 40.1194 36.6774L46.0399 43.1067C46.5788 43.6921 46.5411 44.6067 45.9559 45.1456C45.3704 45.6846 44.456 45.6468 43.9171 45.0615L37.2271 37.7964C36.818 37.3522 36.1261 37.3235 35.6814 37.7327C35.237 38.1419 35.2086 38.8338 35.6178 39.2784L41.1079 45.2403C42.3681 46.6105 40.2454 48.5638 38.9846 47.1947L32.6494 40.3147C32.2403 39.8705 31.5483 39.8419 31.1039 40.2511C30.6595 40.6603 30.6309 41.3522 31.0401 41.7967L36.5333 47.7624C37.7918 49.139 35.6602 51.0741 34.407 49.7131L27.9039 42.6516C27.4944 42.2073 26.8025 42.1788 26.3583 42.588C25.9139 42.9972 25.8855 43.6891 26.2946 44.1335L30.9966 49.2399C32.2618 50.6133 30.1329 52.562 28.8676 51.1881L27.4148 49.6637C26.6903 49.032 25.7807 48.7472 24.889 48.793C24.8107 47.9069 24.4046 47.0486 23.6827 46.4192L23.5855 46.3347C22.9412 45.773 22.1505 45.4851 21.3562 45.4604C21.3562 45.3785 21.3543 45.2963 21.3486 45.2137C21.2142 43.2509 19.4129 41.6815 17.4499 41.8152C16.8517 41.8562 16.2863 42.0425 15.7932 42.3538C15.5889 41.8828 15.2798 41.449 14.8677 41.0898L14.7706 41.0052C13.2884 39.7133 11.0313 39.8678 9.73924 41.3501L8.96341 42.2401C8.53191 42.7352 8.26261 43.3168 8.14941 43.9198H2.25766V39.0632C2.25766 38.4592 1.76796 37.9694 1.16386 37.9694C0.559752 37.9694 0.0700583 38.4592 0.0700583 39.0632V45.0136C0.0700583 45.6176 0.559752 46.1074 1.16386 46.1074H8.42909C9.16161 47.6622 10.9617 48.547 12.6349 48.1204C13.1069 49.9402 15.0005 51.1568 16.85 50.8072C17.3011 52.9329 19.6452 54.2498 21.6894 53.484C22.1509 54.8702 23.4891 55.9039 24.9468 55.9934C26.539 56.0911 28.0422 55.088 28.5492 53.5714C28.9918 53.7535 29.4638 53.846 29.9369 53.8459C30.8163 53.8459 31.6984 53.5291 32.3949 52.8878C32.7825 52.5307 33.0812 52.1028 33.2803 51.6314C33.9231 52.1176 34.6954 52.3643 35.4701 52.3642C36.3495 52.3642 37.2316 52.0475 37.9281 51.4061C38.4399 50.9348 38.797 50.3403 38.9732 49.6844C39.3221 49.7917 39.6846 49.846 40.0477 49.846C40.9272 49.846 41.8091 49.5292 42.5055 48.8878C42.9668 48.4631 43.2927 47.9457 43.4814 47.3901C43.9555 47.604 44.4673 47.7127 44.9801 47.7127C45.8596 47.7126 46.7416 47.3959 47.438 46.7546C47.6802 46.5316 47.8842 46.2827 48.0515 46.0165H54.8364C55.4404 46.0165 55.9302 45.5267 55.9302 44.9227V29.0716C55.9301 28.4676 55.4404 27.9778 54.8363 27.9778ZM10.8433 45.7071C10.2367 45.1926 10.0607 44.3111 10.613 43.6775L11.3888 42.7875C11.9149 42.1838 12.7991 42.1882 13.3824 42.6966C13.965 43.2045 14.0902 44.0789 13.5652 44.6825L12.7884 45.5738C12.289 46.1469 11.4165 46.2065 10.8433 45.7071ZM16.2754 48.6802C15.0615 48.7637 14.222 47.2597 15.0443 46.3152L16.6552 44.4672C17.1811 43.8639 18.0646 43.8671 18.6485 44.3761C19.2322 44.8852 19.3578 45.7586 18.8306 46.3633L17.2203 48.2108C16.9781 48.4884 16.6426 48.6551 16.2754 48.6802ZM19.5273 51.1868C18.9218 50.6732 18.7451 49.7941 19.2946 49.1603L20.2058 48.1148C20.7381 47.5069 21.623 47.5226 22.2076 48.0352C22.7856 48.542 22.8992 49.4167 22.3791 50.0134L21.4723 51.0537C20.9729 51.6265 20.1004 51.6863 19.5273 51.1868ZM26.2083 53.3422C24.9877 54.7425 22.7674 52.7065 24.0977 51.3768C25.3317 50.1431 27.3601 52.0209 26.2083 53.3422ZM53.7425 43.8292H48.5977C48.5425 43.0354 48.2289 42.2544 47.6493 41.6249L41.414 34.8537C41.2098 34.6317 40.911 34.5009 40.6094 34.5009C38.4276 34.5009 36.3974 33.7657 34.5753 32.3158C33.1776 31.2037 32.4325 30.0668 32.4268 30.0581C32.24 29.7661 31.9259 29.5801 31.5801 29.5566C31.2331 29.5322 30.8978 29.6746 30.673 29.9385L28.7299 32.2195C27.3337 33.8585 25.0551 34.3426 23.1522 33.5322L29.8407 25.5052H37.047C37.7283 25.5052 38.4018 25.6824 38.9949 26.0177L44.9261 29.3698C45.8469 29.8903 46.8927 30.1653 47.9501 30.1653H53.7425V43.8292Z" fill="white"/>
<path d="M0.154019 34.6056C0.527753 35.5021 1.83085 35.4783 2.18303 34.5806C2.55546 33.6313 1.47089 32.7291 0.601581 33.2492C0.14319 33.5235 -0.0514971 34.1126 0.154019 34.6056Z" fill="white"/>
<path d="M16.5492 21.1412C16.6756 21.1892 16.8071 21.2124 16.9372 21.2124C17.244 21.2124 17.5439 21.0831 17.7555 20.8446L20.7193 17.5049H35.9733C38.3218 17.5049 40.2323 15.5943 40.2323 13.2459V4.25904C40.2323 1.91065 38.3219 0 35.9734 0H35.9172C35.3132 0 34.8234 0.489803 34.8234 1.0938C34.8234 1.13919 34.8263 1.18721 34.832 1.23216C34.9044 1.81144 35.4163 2.22687 35.9929 2.18771C37.126 2.19821 38.0447 3.12334 38.0447 4.25914V13.2459C38.0447 14.3881 37.1155 15.3173 35.9733 15.3173H20.2276C19.9149 15.3173 19.617 15.4512 19.4095 15.6851L18.0314 17.2381V4.25904C18.0314 3.11689 18.9607 2.1876 20.1028 2.1876H26.2393C26.2876 2.19099 26.3364 2.19132 26.3858 2.18815C26.9758 2.15128 27.4272 1.65317 27.411 1.06689C27.4107 1.053 27.41 1.039 27.4092 1.02555C27.3731 0.449005 26.8951 0 26.3175 0H20.1029C17.7544 0 15.8439 1.91065 15.8439 4.25904V20.1187C15.8437 20.5729 16.1245 20.9799 16.5492 21.1412Z" fill="white"/>
<path d="M26.4269 10.0149L24.9222 8.44231C24.5046 8.00588 23.8121 7.99057 23.3757 8.40829C22.9393 8.8258 22.9239 9.51817 23.3416 9.95481L25.5939 12.3087C25.8086 12.533 26.0962 12.6462 26.3844 12.6462C26.6523 12.6462 26.9206 12.5483 27.1315 12.3513L33.479 6.4143C33.9201 6.00161 33.9433 5.30934 33.5307 4.86821C33.118 4.42697 32.4259 4.40389 31.9846 4.81647L26.4269 10.0149Z" fill="white"/>
<path d="M30.5103 2.00261C31.3359 2.55353 32.435 1.75564 32.1705 0.802439C32.046 0.354001 31.637 0.0239076 31.1712 0.00159513C30.7036 -0.0208267 30.2668 0.265517 30.0979 0.700939C29.9165 1.16852 30.0873 1.72666 30.5103 2.00261Z" fill="white"/>
</g>
<defs>
<clipPath id="clip0">
<rect width="56" height="56" fill="white"/>
</clipPath>
</defs>
</svg>
