<svg width="56" height="56" viewBox="0 0 56 56" fill="none" xmlns="http://www.w3.org/2000/svg">
<g clip-path="url(#clip0)">
<path d="M18.076 9.40703C17.7019 9.66252 17.6057 10.1728 17.8612 10.547C18.1166 10.921 18.6268 11.0174 19.0012 10.7618C29.3823 3.53856 44.0264 11.2738 43.9173 23.9309C43.9175 24.3837 44.2846 24.751 44.7377 24.751C45.1909 24.751 45.558 24.3837 45.558 23.9307C45.6789 9.96799 29.5213 1.43964 18.076 9.40703Z" fill="#A29999"/>
<path d="M45.0432 28.1696C45.1521 27.7298 44.884 27.2851 44.4442 27.1762C44.0042 27.0669 43.5595 27.3353 43.4507 27.7752C42.4891 31.6574 40.1116 35.0167 36.7561 37.2343C36.5298 37.3839 36.392 37.6359 36.3883 37.9073C36.3779 38.6558 36.3645 39.376 36.3487 40.067C31.8979 40.1962 23.6541 40.2115 19.6096 40.0301C19.5938 39.3508 19.5803 38.6425 19.5699 37.9074C19.5661 37.636 19.4284 37.3842 19.202 37.2345C11.0837 32.0652 9.62141 20.1207 16.2429 13.1485C16.5493 12.815 16.5277 12.2962 16.1942 11.9895C15.8605 11.6827 15.3417 11.7047 15.0351 12.0381C7.84885 19.6021 9.27941 32.5446 17.9359 38.3579C17.9447 38.9088 17.9551 39.4439 17.9668 39.9631C17.5693 39.9454 17.1886 39.9274 16.8204 39.9096C15.733 39.8941 15.6594 41.4591 16.7411 41.5482C17.1471 41.5678 17.5681 41.5877 18.0099 41.6071C18.0312 42.3204 18.0548 42.9974 18.08 43.6366C17.6414 43.6173 17.2234 43.5976 16.8204 43.5781C15.7328 43.5638 15.6595 45.1272 16.7411 45.2167C17.1903 45.2383 17.6578 45.2603 18.1514 45.2819C18.213 46.576 18.2782 47.6677 18.3368 48.5386C18.3643 48.9482 18.6905 49.2744 19.1001 49.3019C19.6232 49.3371 20.1779 49.373 20.7835 49.4068C21.1668 54.4062 26.7628 57.5553 31.2531 55.2083C31.6567 55.0027 31.8173 54.5088 31.6118 54.1051C31.4062 53.7014 30.9123 53.5408 30.5086 53.7464C27.1201 55.5197 22.8779 53.2285 22.442 49.487C25.3472 49.6229 30.3583 49.6109 33.5119 49.511C33.4155 50.2323 33.1794 50.9296 32.815 51.5595C32.588 51.9516 32.7219 52.4534 33.1141 52.6803C33.4992 52.9052 34.0067 52.7769 34.2348 52.3812C34.7528 51.4861 35.0707 50.4866 35.1689 49.4569C35.8084 49.4327 36.3754 49.407 36.8461 49.3814C37.26 49.3589 37.592 49.0311 37.6199 48.6176C37.6789 47.7418 37.7446 46.6425 37.8065 45.3369C38.3257 45.3211 38.7964 45.3051 39.2087 45.2889C40.2933 45.208 40.2296 43.6459 39.1447 43.6496C38.7688 43.6643 38.3439 43.6791 37.8776 43.6934C37.9027 43.0543 37.9262 42.3774 37.9474 41.664C38.4111 41.6497 38.834 41.635 39.2087 41.6204C40.2935 41.5401 40.2293 39.9756 39.1447 39.9811C38.7993 39.9947 38.4124 40.0082 37.9904 40.0214C38.0025 39.4841 38.0131 38.9292 38.0221 38.3575C41.5312 35.9133 44.0172 32.3117 45.0432 28.1696ZM36.0305 47.7794C32.2977 47.9953 23.2992 48.0112 19.9276 47.7122C19.8878 47.0707 19.8428 46.2766 19.798 45.3471C23.8173 45.5187 31.7496 45.5039 36.1624 45.381C36.1188 46.2847 36.0737 47.0862 36.0305 47.7794ZM36.2343 43.7383C31.8168 43.864 23.744 43.8791 19.7255 43.7029C19.7001 43.0692 19.6758 42.3916 19.6538 41.6734C23.707 41.8515 31.8493 41.8363 36.3051 41.7091C36.2835 42.4234 36.2597 43.1003 36.2343 43.7383Z" fill="#A29999"/>
<path d="M38.4865 27.4C38.8873 27.3712 39.2082 27.0564 39.2446 26.6563C39.2537 26.5571 39.4634 24.1979 39.245 21.6495C39.2106 21.2476 38.8889 20.9303 38.4865 20.9014C38.1265 20.8755 37.753 20.8509 37.3707 20.8277C37.2545 20.4992 37.1206 20.1764 36.9701 19.8617C37.223 19.5762 37.4696 19.2947 37.7069 19.0207C37.97 18.717 37.9742 18.2674 37.717 17.9586C37.6532 17.8821 36.133 16.0655 34.1759 14.4181C33.8675 14.1586 33.4159 14.1614 33.1109 14.4254C32.8377 14.6619 32.5561 14.9085 32.2695 15.1623C31.9545 15.0118 31.6315 14.8779 31.3028 14.7615C31.2797 14.3821 31.255 14.0088 31.229 13.6465C31.2002 13.2456 30.8853 12.9248 30.4852 12.8883C30.3861 12.8794 28.0261 12.6696 25.4769 12.888C25.0749 12.9225 24.7576 13.2441 24.7288 13.6466C24.7027 14.0098 24.678 14.3831 24.655 14.7616C24.3262 14.878 24.0032 15.0119 23.6882 15.1624C23.4023 14.9092 23.1207 14.6625 22.8468 14.4255C22.5433 14.1627 22.0936 14.1585 21.7852 14.4154C21.7086 14.4791 19.8914 15.9989 18.2434 17.9555C17.9835 18.264 17.9865 18.7159 18.2507 19.0208C18.4882 19.2951 18.7348 19.5765 18.9875 19.8618C18.837 20.1765 18.7031 20.4993 18.5868 20.8278C18.2045 20.851 17.831 20.8757 17.4711 20.9016C17.0703 20.9303 16.7494 21.2452 16.713 21.6453C16.7039 21.7445 16.4942 24.1037 16.7126 26.652C16.747 27.054 17.0687 27.3712 17.4711 27.4001C17.831 27.426 18.2045 27.4506 18.5868 27.4738C18.7031 27.8024 18.837 28.1251 18.9875 28.4399C18.734 28.7261 18.4872 29.0075 18.2507 29.2808C17.9876 29.5846 17.9835 30.0342 18.2406 30.3429C18.3044 30.4195 19.8246 32.236 21.7817 33.8835C22.09 34.1431 22.5416 34.1403 22.8467 33.8761C23.1199 33.6397 23.4016 33.393 23.6881 33.1393C24.0032 33.2898 24.3261 33.4237 24.6549 33.54C24.6779 33.9186 24.7026 34.2918 24.7287 34.655C24.7574 35.0558 25.0723 35.3767 25.4724 35.4131C25.5379 35.419 26.5883 35.5125 28.0282 35.5125C28.7695 35.5125 29.6144 35.4877 30.4808 35.4135C30.8827 35.3791 31.2 35.0574 31.2288 34.655C31.2549 34.2926 31.2796 33.9193 31.3027 33.5399C31.6314 33.4236 31.9544 33.2897 32.2694 33.1392C32.5563 33.3932 32.8379 33.6399 33.1108 33.876C33.4145 34.1388 33.864 34.143 34.1724 33.8861C34.249 33.8223 36.0662 32.3025 37.7142 30.3461C37.9741 30.0375 37.9711 29.5857 37.7069 29.2806C37.4704 29.0073 37.2236 28.7259 36.9701 28.4397C37.1206 28.1249 37.2545 27.8022 37.3707 27.4736C37.753 27.4506 38.1266 27.4259 38.4865 27.4ZM36.7166 25.8685C36.3684 25.8878 36.0706 26.1252 35.974 26.4602C35.8031 27.0525 35.5648 27.6272 35.2655 28.1682C35.0966 28.4736 35.1395 28.8523 35.3722 29.1123C35.5856 29.3506 35.7952 29.5869 35.9992 29.819C35.1015 30.8224 34.1961 31.6732 33.647 32.1668C33.4157 31.9635 33.1799 31.7544 32.9416 31.5413C32.6817 31.3089 32.3031 31.2661 31.9979 31.4347C31.457 31.7337 30.882 31.972 30.2891 32.1431C29.9541 32.2396 29.7168 32.5375 29.6974 32.8857C29.6797 33.2035 29.6609 33.5186 29.6409 33.8281C28.2961 33.9029 27.054 33.8644 26.3166 33.8255C26.2966 33.5162 26.2779 33.2021 26.2603 32.8858C26.241 32.5376 26.0036 32.2395 25.6685 32.1429C25.0757 31.9721 24.5007 31.7338 23.9597 31.4347C23.6546 31.266 23.2759 31.3087 23.016 31.5412C22.7773 31.7547 22.5408 31.9644 22.3086 32.1684C21.3049 31.271 20.4539 30.3659 19.96 29.817C20.1635 29.5855 20.3726 29.3498 20.5854 29.1122C20.8181 28.8522 20.861 28.4735 20.692 28.1681C20.393 27.6273 20.1546 27.0525 19.9835 26.46C19.8868 26.125 19.589 25.8877 19.2409 25.8684C18.9211 25.8506 18.6059 25.8317 18.2979 25.8118C18.223 24.468 18.2615 23.2264 18.3004 22.4893C18.6076 22.4695 18.922 22.4507 19.2409 22.433C19.589 22.4136 19.8868 22.1764 19.9835 21.8414C20.1545 21.2489 20.3929 20.6742 20.6921 20.1332C20.861 19.8279 20.8181 19.4491 20.5854 19.189C20.3727 18.9514 20.163 18.7151 19.9584 18.4824C20.8561 17.479 21.7616 16.6282 22.3106 16.1346C22.5426 16.3384 22.7784 16.5474 23.016 16.76C23.2759 16.9924 23.6544 17.0353 23.9597 16.8667C24.5007 16.5677 25.0757 16.3293 25.6685 16.1584C26.0036 16.0618 26.241 15.7638 26.2603 15.4156C26.2779 15.0984 26.2967 14.7833 26.3167 14.4732C27.6614 14.3983 28.9034 14.4368 29.641 14.4758C29.661 14.7846 29.6797 15.0988 29.6974 15.4158C29.7168 15.764 29.9541 16.0618 30.2891 16.1585C30.882 16.3293 31.4569 16.5678 31.9979 16.8668C32.303 17.0354 32.6816 16.9928 32.9416 16.7603C33.1803 16.5468 33.4168 16.337 33.649 16.133C34.6527 17.0304 35.5037 17.9355 35.9976 18.4845C35.7936 18.7165 35.5846 18.952 35.3722 19.1893C35.1395 19.4492 35.0966 19.828 35.2656 20.1333C35.5647 20.6743 35.803 21.2489 35.974 21.8414C36.0706 22.1764 36.3684 22.4137 36.7166 22.4331C37.0364 22.4509 37.3517 22.4697 37.6597 22.4896C37.7346 23.8334 37.6961 25.075 37.6572 25.8122C37.3498 25.832 37.0355 25.8508 36.7166 25.8685Z" fill="#A29999"/>
<path d="M27.9789 18.4673C24.8442 18.4673 22.2939 21.0169 22.2939 24.1508C22.2939 24.6038 22.6611 24.9711 23.1142 24.9711C23.5673 24.9711 23.9345 24.6038 23.9345 24.1508C24.1564 18.7875 31.8021 18.7887 32.0235 24.1508C32.0294 27.7943 27.4939 29.5822 25.0204 26.9076C24.7116 26.5764 24.1926 26.5584 23.861 26.8675C23.5298 27.1765 23.5119 27.6956 23.821 28.0268C27.3118 31.776 33.6672 29.2791 33.6641 24.1507C33.6641 21.0168 31.1137 18.4673 27.9789 18.4673Z" fill="#A29999"/>
<path d="M45.4045 14.7064C45.5436 14.7064 45.6847 14.671 45.8137 14.5964L48.4359 13.083C48.8283 12.8566 48.9627 12.3549 48.7363 11.9625C48.5098 11.5701 48.0079 11.4358 47.6158 11.6621L44.9937 13.1754C44.6013 13.4018 44.4668 13.9035 44.6932 14.2959C44.8453 14.5592 45.1211 14.7064 45.4045 14.7064Z" fill="#A29999"/>
<path d="M10.1863 33.2652L7.5642 34.7786C7.17178 35.005 7.03736 35.5067 7.26376 35.8991C7.49158 36.2951 7.99883 36.424 8.38425 36.1995L11.0064 34.6862C11.3988 34.4598 11.5332 33.9581 11.3068 33.5657C11.0803 33.1732 10.5784 33.0389 10.1863 33.2652Z" fill="#A29999"/>
<path d="M37.6379 7.24298C38.0233 7.46751 38.5306 7.33879 38.7585 6.94287L40.2724 4.32159C40.4989 3.92928 40.3646 3.4276 39.9723 3.20099C39.5797 2.97437 39.0783 3.10879 38.8517 3.5011L37.3378 6.12237C37.1112 6.51468 37.2456 7.01647 37.6379 7.24298Z" fill="#A29999"/>
<path d="M7.5642 13.083L10.1863 14.5964C10.5718 14.8208 11.079 14.692 11.3068 14.2959C11.5332 13.9036 11.3988 13.4019 11.0064 13.1754L8.38425 11.6621C7.99205 11.4357 7.49026 11.5701 7.26376 11.9625C7.03736 12.3548 7.17178 12.8565 7.5642 13.083Z" fill="#A29999"/>
<path d="M48.4359 34.7786L45.8137 33.2652C45.4215 33.0387 44.9197 33.1732 44.6932 33.5657C44.4668 33.958 44.6013 34.4596 44.9937 34.6862L47.6158 36.1995C48.0012 36.4239 48.5085 36.2951 48.7363 35.8991C48.9628 35.5067 48.8283 35.0051 48.4359 34.7786Z" fill="#A29999"/>
<path d="M17.2416 6.94282C17.4695 7.33874 17.9768 7.46736 18.3622 7.24293C18.7545 7.01643 18.8888 6.51464 18.6623 6.12233L17.1484 3.50105C16.9218 3.10874 16.4203 2.97443 16.0278 3.20094C15.6355 3.42745 15.5012 3.92924 15.7277 4.32155L17.2416 6.94282Z" fill="#A29999"/>
<path d="M28 4.66138C28.4531 4.66138 28.8203 4.29412 28.8203 3.8411V0.814288C28.7827 -0.271867 27.2169 -0.270992 27.1797 0.814288V3.8411C27.1797 4.29412 27.5469 4.66138 28 4.66138Z" fill="#A29999"/>
<path d="M8.72425 23.9309C8.72425 23.4779 8.3571 23.1106 7.90398 23.1106H4.87618C3.79002 23.1482 3.7909 24.714 4.87618 24.7511H7.90398C8.35699 24.7511 8.72425 24.3839 8.72425 23.9309Z" fill="#A29999"/>
<path d="M51.1239 23.1106H48.0961C47.0099 23.1482 47.0108 24.714 48.0961 24.7511H51.1239C52.21 24.7135 52.2093 23.1478 51.1239 23.1106Z" fill="#A29999"/>
<circle cx="27.9788" cy="24.1508" r="3.5" fill="#FE000C"/>
</g>
<defs>
<clipPath id="clip0">
<rect width="56" height="56" fill="white"/>
</clipPath>
</defs>
</svg>
