<svg width="56" height="56" viewBox="0 0 56 56" fill="none" xmlns="http://www.w3.org/2000/svg">
<path d="M27.9996 15.9C26.8996 15.9 25.8996 15.6 24.9996 15C24.0996 14.4 23.3996 13.6 22.9996 12.6C22.5996 11.6 22.4996 10.5 22.6996 9.4C22.8996 8.3 23.3996 7.4 24.1996 6.6C24.9996 5.8 25.8996 5.3 26.9996 5.1C27.2996 5 27.5996 5 27.9996 5C28.6996 5 29.3996 5.1 30.0996 5.4C31.0996 5.8 31.8996 6.5 32.4996 7.4C33.0996 8.3 33.3996 9.3 33.3996 10.4C33.3996 11.9 32.7996 13.2 31.7996 14.3C30.7996 15.3 29.4996 15.9 27.9996 15.9ZM27.9996 6.6C27.4996 6.6 26.9996 6.7 26.4996 6.9C25.7996 7.2 25.1996 7.7 24.7996 8.3C24.3996 8.9 24.1996 9.7 24.1996 10.4C24.1996 11.4 24.5996 12.4 25.2996 13.1C25.9996 13.8 26.9996 14.2 27.9996 14.2C28.7996 14.2 29.4996 14 30.0996 13.6C30.6996 13.2 31.1996 12.6 31.4996 11.9C31.7996 11.2 31.8996 10.4 31.6996 9.7C31.4996 9 31.1996 8.3 30.6996 7.8C30.1996 7.3 29.4996 6.9 28.7996 6.8C28.4996 6.6 28.1996 6.6 27.9996 6.6Z" fill="#FE000C"/>
<path d="M28.0004 25.9998C27.8004 25.9998 27.7004 25.8998 27.5004 25.8998C25.8004 24.5998 24.1004 23.0998 22.7004 21.4998C19.5004 17.8998 17.9004 13.9998 17.9004 10.3998C17.9004 7.6998 18.9004 5.1998 20.9004 3.2998C22.8004 1.3998 25.3004 0.299805 28.0004 0.299805C30.7004 0.299805 33.2004 1.2998 35.1004 3.2998C37.0004 5.1998 38.1004 7.6998 38.1004 10.3998C38.1004 13.9998 36.4004 17.7998 33.3004 21.4998C31.9004 23.0998 30.3004 24.5998 28.5004 25.8998C28.3004 25.9998 28.2004 25.9998 28.0004 25.9998ZM28.0004 1.9998C25.7004 1.9998 23.6004 2.8998 22.0004 4.4998C20.4004 6.0998 19.5004 8.1998 19.5004 10.4998C19.5004 17.1998 25.9004 22.6998 27.9004 24.1998H28.0004H28.1004C30.1004 22.6998 36.5004 17.0998 36.5004 10.4998C36.5004 8.1998 35.6004 6.0998 34.0004 4.4998C32.4004 2.8998 30.3004 1.9998 28.0004 1.9998Z" fill="#FE000C"/>
<path d="M16.3789 46.6183L15.8789 48.2432L17.5038 48.7431L18.0037 47.1183L16.3789 46.6183Z" fill="#A29999"/>
<path d="M20.0468 47.7472L19.5469 49.3721L21.1717 49.872L21.6717 48.2472L20.0468 47.7472Z" fill="#A29999"/>
<path d="M23.7119 48.8839L23.2119 50.5088L24.8368 51.0088L25.3367 49.3839L23.7119 48.8839Z" fill="#A29999"/>
<path d="M27.9996 55.7004C27.8996 55.7004 27.7996 55.7004 27.7996 55.7004L3.69961 48.2004C3.49961 48.1004 3.39961 48.0004 3.29961 47.9004C3.19961 47.8004 3.09961 47.6004 3.09961 47.4004V22.4004C3.09961 22.2004 3.19961 22.1004 3.29961 21.9004C3.39961 21.8004 3.59961 21.7004 3.69961 21.6004L17.4996 17.4004L17.9996 19.0004L6.69961 22.4004L27.9996 29.0004L49.2996 22.5004L37.9996 19.0004L38.4996 17.4004L52.2996 21.6004C52.4996 21.7004 52.5996 21.8004 52.6996 21.9004C52.7996 22.0004 52.8996 22.2004 52.8996 22.4004V47.4004C52.8996 47.6004 52.7996 47.7004 52.6996 47.9004C52.5996 48.0004 52.3996 48.1004 52.2996 48.2004L28.1996 55.6004C28.1996 55.7004 28.0996 55.7004 27.9996 55.7004ZM28.7996 30.5004V53.8004L51.1996 46.9004V23.6004L28.7996 30.5004ZM4.79961 46.8004L27.1996 53.7004V30.5004L4.79961 23.6004V46.8004Z" fill="#A29999"/>
<path d="M41.5057 46.0931L39.8809 46.5928L40.3805 48.2176L42.0054 47.718L41.5057 46.0931Z" fill="#A29999"/>
<path d="M45.2167 44.9906L43.5918 45.4902L44.0914 47.1151L45.7163 46.6155L45.2167 44.9906Z" fill="#A29999"/>
<path d="M48.9295 43.891L47.3047 44.3906L47.8043 46.0155L49.4292 45.5159L48.9295 43.891Z" fill="#A29999"/>
<path d="M20.6 37.5C20.5 37.5 20.4 37.5 20.4 37.5L11.1 34.7C10.9 34.6 10.8 34.5 10.7 34.4C10.6 34.3 10.5 34.1 10.5 33.9V29.3C10.5 29.2 10.5 29 10.6 28.9C10.7 28.8 10.7 28.7 10.8 28.6C10.9 28.5 11 28.5 11.2 28.5H11.3C11.4 28.5 11.5 28.5 11.5 28.5L20.8 31.3C21 31.4 21.1 31.5 21.2 31.6C21.3 31.7 21.4 31.9 21.4 32.1V36.7C21.4 36.9 21.3 37.1 21.2 37.3C21 37.4 20.8 37.5 20.6 37.5ZM12.2 33.2L19.8 35.5V32.6L12.2 30.3V33.2Z" fill="#A29999"/>
<path d="M35.3996 37.5H35.2996C35.1996 37.5 35.0996 37.4 34.8996 37.4C34.7996 37.3 34.6996 37.2 34.6996 37.1C34.5996 37 34.5996 36.9 34.5996 36.7V32.1C34.5996 31.9 34.6996 31.8 34.7996 31.6C34.8996 31.5 35.0996 31.4 35.1996 31.3L44.4996 28.5C44.5996 28.5 44.6996 28.5 44.6996 28.5H44.7996C44.8996 28.5 44.9996 28.6 45.1996 28.6C45.2996 28.7 45.3996 28.8 45.3996 28.9C45.4996 29 45.4996 29.1 45.4996 29.3V33.9C45.4996 34.1 45.3996 34.2 45.2996 34.4C45.1996 34.5 44.9996 34.6 44.8996 34.7L35.5996 37.5C35.5996 37.5 35.4996 37.5 35.3996 37.5ZM36.1996 32.7V35.6L43.7996 33.3V30.4L36.1996 32.7Z" fill="#A29999"/>
</svg>
