<svg width="199" height="48" viewBox="0 0 199 48" fill="none" xmlns="http://www.w3.org/2000/svg">
<path d="M179.658 27.7419C179.658 27.7419 173.946 14.0644 173.817 13.8064C173.687 13.5483 173.557 13.5483 173.297 13.5483H173.168V25.1613C173.168 26.5806 172.259 27.8709 171.091 27.8709C169.922 27.8709 168.884 27.8709 168.884 27.8709V12.7741C168.884 11.3548 170.052 10.0645 171.48 10.0645H178.1L183.942 24.258H184.201L189.004 12.5161C189.654 10.9677 190.952 10.0645 192.639 10.0645H199V25.1613C199 26.5806 197.832 27.8709 196.404 27.8709H193.548V13.6774H193.418C193.158 13.6774 193.029 13.8064 193.029 13.9354C192.899 14.1935 188.226 25.4193 188.226 25.4193C187.577 26.9677 186.278 27.8709 184.591 27.8709H179.658V27.7419Z" fill="black"/>
<path d="M145.258 27.742L136.301 18.4517L144.609 9.93555H140.326C138.378 9.93555 136.95 10.5807 135.912 11.871C134.874 13.0323 132.667 15.484 132.148 16.1291C131.758 16.5162 131.369 16.7743 130.849 16.7743C130.33 16.7743 127.994 16.7743 127.994 16.7743V12.7743C127.994 11.3549 126.825 10.0646 125.397 10.0646H122.542V27.8711H125.397C126.825 27.8711 127.994 26.7098 127.994 25.1614V20.2581C127.994 20.2581 130.33 20.2581 130.849 20.2581C131.498 20.2581 131.888 20.3872 132.277 20.9033C132.797 21.4194 135.393 24.5162 136.431 25.8065C137.47 27.0969 138.898 27.742 140.845 27.742H145.258Z" fill="black"/>
<path d="M63.4775 20.0001C63.4775 20.0001 66.593 13.9356 66.7228 13.6775C66.8526 13.5485 66.9824 13.4194 67.1122 13.4194C67.242 13.4194 67.2421 13.4194 67.2421 13.4194L70.6171 20.0001H63.4775ZM80.8722 27.742L71.6556 9.93555H66.9824C64.9054 9.93555 63.3477 10.9678 62.439 12.6452L54.6504 27.613C54.6504 27.613 55.5591 27.613 57.1168 27.613C58.6745 27.613 59.9726 26.8388 60.7515 25.4194C61.5304 24.0001 61.9198 23.2259 61.9198 23.2259H72.4345C72.4345 23.2259 72.8239 24.0001 73.6028 25.4194C74.2518 26.8388 75.6797 27.613 77.3673 27.613H80.8722V27.742Z" fill="#FE000C"/>
<path d="M166.547 21.4195C166.547 25.2904 164.211 27.8711 160.316 27.8711H150.451C146.556 27.8711 144.22 25.2904 144.22 21.4195V16.3872C144.22 12.5162 146.556 9.93555 150.451 9.93555H160.316C164.211 9.93555 166.547 12.5162 166.547 16.3872V21.4195ZM161.095 16.1291C161.095 14.5807 160.057 13.4194 158.499 13.4194H152.268C150.71 13.4194 149.672 14.4517 149.672 16.1291V21.8065C149.672 23.3549 150.71 24.5162 152.268 24.5162H158.499C160.057 24.5162 161.095 23.484 161.095 21.8065V16.1291Z" fill="black"/>
<path d="M95.5408 10.0645H81.9106V27.8709H84.7665C86.454 27.8709 87.3627 26.9677 87.3627 25.4193C87.3627 25.2903 87.3627 24.5161 87.3627 23.4838H95.411C99.3053 23.4838 101.902 21.1612 101.902 17.2903V16.387C101.902 12.387 99.3053 10.0645 95.5408 10.0645ZM96.3197 17.2903C96.3197 18.8387 95.2812 20 93.5936 20H87.3627C87.3627 17.8064 87.3627 15.4838 87.3627 13.5483H93.5936C95.2812 13.5483 96.3197 14.5806 96.3197 16.258V17.2903Z" fill="#FE000C"/>
<path d="M101.642 10.0645C101.642 10.0645 101.642 10.1935 101.772 11.6129C101.902 12.9032 102.94 13.8064 104.628 13.8064H108.522V27.8709H111.378C113.065 27.8709 113.974 26.9677 113.974 25.4193C113.974 25.0322 113.974 17.9354 113.974 13.8064H118.128C119.816 13.8064 120.854 12.9032 120.984 11.6129C121.114 10.3225 121.114 10.0645 121.114 10.0645H101.642Z" fill="#FE000C"/>
<path d="M56.8573 34.8388V38.8388H55.689V33.9355H59.9727V34.9678H56.8573V34.8388Z" fill="black"/>
<path d="M67.8914 35.613C67.8914 36.1291 67.7616 36.3872 67.1125 36.3872H65.1654V34.8388H67.1125C67.7616 34.8388 67.8914 35.0969 67.8914 35.613ZM69.0597 35.613C69.0597 34.3227 68.5405 33.9355 67.3722 33.9355H63.9971V38.8388H65.1654V37.4194H67.3722C68.6703 37.2904 69.0597 36.9033 69.0597 35.613Z" fill="black"/>
<path d="M76.199 37.5476C75.55 38.5799 75.2903 38.7089 74.3817 38.7089H73.8624V37.8057H74.122C74.6413 37.8057 74.7711 37.6767 74.7711 37.5476C74.7711 37.5476 74.7711 37.4186 74.6413 37.2896L72.3047 33.8057H73.7326L75.4201 36.5154L76.9779 33.8057H78.4058L76.199 37.5476Z" fill="black"/>
<path d="M86.4542 38.8388V34.8388H83.3387V38.8388H82.1704V33.9355H87.6224V38.8388H86.4542Z" fill="black"/>
<path d="M96.19 38.8388V34.8388H93.0745V38.8388H91.9062V33.9355H97.3583V38.8388H96.19Z" fill="black"/>
<path d="M105.666 36.6452H103.719L104.757 34.8388L105.666 36.6452ZM108.132 38.8388L105.536 33.9355H103.719L101.123 38.8388H102.55L103.2 37.5485H106.185L106.834 38.8388H108.132Z" fill="black"/>
<path d="M122.671 38.8388L120.335 36.7743H119.556V38.8388H118.388V33.9355H119.556V35.742H120.205L122.412 33.9355H124.229L121.373 36.2582L124.359 38.8388H122.671Z" fill="black"/>
<path d="M132.927 37.0315C132.927 37.6766 132.797 37.8057 132.018 37.8057H130.46C129.681 37.8057 129.552 37.6766 129.552 37.0315V35.7412C129.552 35.096 129.811 34.8379 130.46 34.8379H132.018C132.667 34.8379 132.927 34.967 132.927 35.7412V37.0315ZM134.095 37.1605V35.6121C134.095 34.1928 133.576 33.8057 132.278 33.8057H130.071C128.773 33.8057 128.253 34.1928 128.253 35.6121V37.1605C128.253 38.3218 128.773 38.838 130.071 38.838H132.278C133.705 38.838 134.095 38.3218 134.095 37.1605Z" fill="black"/>
<path d="M145.129 38.8388V34.8388H144.999L143.311 38.8388H141.624L139.936 34.8388H139.806V38.8388H138.638V33.9355H140.845L142.533 37.9356H142.662L144.35 33.9355H146.557V38.8388H145.129Z" fill="black"/>
<path d="M155.384 38.8388V34.8388H152.268V38.8388H151.1V33.9355H156.552V38.8388H155.384Z" fill="black"/>
<path d="M165.12 36.6452H163.172L164.211 34.8388L165.12 36.6452ZM167.586 38.8388L164.99 33.9355H163.172L160.576 38.8388H162.004L162.653 37.5485H165.639L166.288 38.8388H167.586Z" fill="black"/>
<path d="M175.764 38.8388V36.7743H172.648V38.8388H171.48V33.9355H172.648V35.871H175.764V33.9355H176.932V38.8388H175.764Z" fill="black"/>
<path d="M186.798 38.8388V34.8388H186.668L183.682 38.8388H181.605V33.9355H182.774V37.9356H182.904L185.889 33.9355H187.836V38.8388H186.798Z" fill="black"/>
<path d="M197.702 38.8383V34.8383H197.572L194.587 38.8383H192.51V33.9351H193.678V37.9351H193.808L196.794 33.9351H198.741V38.8383H197.702ZM195.495 33.548C194.067 33.548 193.808 33.2899 193.808 32.5157V32.3867H194.717C194.717 32.9028 194.846 32.9028 195.495 32.9028C196.144 32.9028 196.274 32.9028 196.274 32.3867H197.183C197.183 33.1609 197.053 33.548 195.495 33.548Z" fill="black"/>
<path d="M24.1448 48C10.7743 48 0 37.2904 0 24C0 10.7097 10.7743 0 24.1448 0C37.5153 0 48.2896 10.7097 48.2896 24C48.2896 37.1613 37.5153 48 24.1448 48ZM14.2792 14.5806C15.1879 15.7419 16.6158 16.3871 18.3033 16.3871H29.4671C31.0248 16.3871 32.4527 17.1613 33.4912 18.1936L34.7893 19.7419H19.0822C15.0581 19.7419 12.9811 21.0323 11.0339 23.3549L7.65887 27.3548V37.0323L14.7985 28.6452C15.7071 27.4839 17.135 26.8387 18.8226 26.8387H34.6595L33.3614 28.3871C32.4527 29.5484 31.0248 30.1936 29.3373 30.1936H18.1735C16.6158 30.1936 15.1879 30.9677 14.1494 32L9.86563 37.0323H28.9478C32.3229 37.0323 34.9191 35.6129 36.8663 33.2903L45.304 23.3549L36.8663 13.2903C34.9191 10.9677 32.1931 9.54838 28.9478 9.54838H9.99545C9.99545 9.54838 13.3705 13.4193 14.2792 14.5806Z" fill="#FE000C"/>
</svg>
