<svg width="199" height="48" viewBox="0 0 199 48" fill="none" xmlns="http://www.w3.org/2000/svg">
<path d="M179.658 27.7419C179.658 27.7419 173.947 14.0644 173.817 13.8064C173.687 13.5483 173.557 13.5483 173.297 13.5483H173.168V25.1613C173.168 26.5806 172.259 27.8709 171.091 27.8709C169.922 27.8709 168.884 27.8709 168.884 27.8709V12.7741C168.884 11.3548 170.052 10.0645 171.48 10.0645H178.1L183.942 24.258H184.202L189.005 12.5161C189.654 10.9677 190.952 10.0645 192.639 10.0645H199V25.1613C199 26.5806 197.832 27.8709 196.404 27.8709H193.548V13.6774H193.418C193.159 13.6774 193.029 13.8064 193.029 13.9354C192.899 14.1935 188.226 25.4193 188.226 25.4193C187.577 26.9677 186.279 27.8709 184.591 27.8709H179.658V27.7419Z" fill="black"/>
<path d="M145.258 27.7419L136.301 18.4516L144.609 9.93542H140.326C138.378 9.93542 136.95 10.5806 135.912 11.8709C134.873 13.0322 132.667 15.4838 132.147 16.129C131.758 16.5161 131.369 16.7742 130.849 16.7742C130.33 16.7742 127.994 16.7742 127.994 16.7742V12.7742C127.994 11.3548 126.825 10.0645 125.397 10.0645H122.541V27.8709H125.397C126.825 27.8709 127.994 26.7097 127.994 25.1613V20.258C127.994 20.258 130.33 20.258 130.849 20.258C131.498 20.258 131.888 20.387 132.277 20.9032C132.797 21.4193 135.393 24.5161 136.431 25.8064C137.47 27.0967 138.898 27.7419 140.845 27.7419H145.258Z" fill="black"/>
<path d="M63.4775 20C63.4775 20 66.593 13.9355 66.7228 13.6774C66.8526 13.5484 66.9824 13.4193 67.1122 13.4193C67.242 13.4193 67.2421 13.4193 67.2421 13.4193L70.6171 20H63.4775ZM80.8722 27.7419L71.6556 9.93542H66.9824C64.9054 9.93542 63.3477 10.9677 62.439 12.6451L54.6504 27.6129C54.6504 27.6129 55.5591 27.6129 57.1168 27.6129C58.6745 27.6129 59.9726 26.8387 60.7515 25.4193C61.5304 23.9999 61.9198 23.2258 61.9198 23.2258H72.4345C72.4345 23.2258 72.8239 23.9999 73.6028 25.4193C74.2518 26.8387 75.6797 27.6129 77.3673 27.6129H80.8722V27.7419Z" fill="#FE000C"/>
<path d="M166.547 21.4193C166.547 25.2903 164.211 27.8709 160.316 27.8709H150.451C146.556 27.8709 144.22 25.2903 144.22 21.4193V16.387C144.22 12.5161 146.556 9.93542 150.451 9.93542H160.316C164.211 9.93542 166.547 12.5161 166.547 16.387V21.4193ZM161.095 16.129C161.095 14.5806 160.057 13.4193 158.499 13.4193H152.268C150.71 13.4193 149.672 14.4516 149.672 16.129V21.8064C149.672 23.3548 150.71 24.5161 152.268 24.5161H158.499C160.057 24.5161 161.095 23.4838 161.095 21.8064V16.129Z" fill="black"/>
<path d="M95.5408 10.0645H81.9106V27.8709H84.7665C86.454 27.8709 87.3627 26.9677 87.3627 25.4193C87.3627 25.2903 87.3627 24.5161 87.3627 23.4838H95.411C99.3053 23.4838 101.902 21.1612 101.902 17.2903V16.387C101.902 12.387 99.3053 10.0645 95.5408 10.0645ZM96.3197 17.2903C96.3197 18.8387 95.2812 20 93.5936 20H87.3627C87.3627 17.8064 87.3627 15.4838 87.3627 13.5483H93.5936C95.2812 13.5483 96.3197 14.5806 96.3197 16.258V17.2903Z" fill="#FE000C"/>
<path d="M101.642 10.0645C101.642 10.0645 101.642 10.1935 101.772 11.6129C101.902 12.9032 102.94 13.8064 104.628 13.8064H108.522V27.8709H111.378C113.065 27.8709 113.974 26.9677 113.974 25.4193C113.974 25.0322 113.974 17.9354 113.974 13.8064H118.128C119.815 13.8064 120.854 12.9032 120.984 11.6129C121.114 10.3225 121.114 10.0645 121.114 10.0645H101.642Z" fill="#FE000C"/>
<path d="M56.8571 34.8387V38.8387H55.6888V33.9354H59.9726V34.9677H56.8571V34.8387Z" fill="black"/>
<path d="M67.891 35.6129C67.891 36.129 67.7612 36.387 67.1122 36.387H65.165V34.8387H67.1122C67.7612 34.8387 67.891 35.0967 67.891 35.6129ZM69.0593 35.6129C69.0593 34.3225 68.5401 33.9354 67.3718 33.9354H63.9967V38.8387H65.165V37.4193H67.3718C68.6699 37.2903 69.0593 36.9032 69.0593 35.6129Z" fill="black"/>
<path d="M76.1989 37.5484C75.5499 38.5806 75.2903 38.7096 74.3816 38.7096H73.8624V37.8064H74.122C74.6412 37.8064 74.771 37.6774 74.771 37.5484C74.771 37.5484 74.771 37.4193 74.6412 37.2903L72.3046 33.8064H73.7326L75.4201 36.5161L76.9778 33.8064H78.4057L76.1989 37.5484Z" fill="black"/>
<path d="M86.454 38.8387V34.8387H83.3385V38.8387H82.1702V33.9354H87.6223V38.8387H86.454Z" fill="black"/>
<path d="M96.1898 38.8387V34.8387H93.0743V38.8387H91.906V33.9354H97.3581V38.8387H96.1898Z" fill="black"/>
<path d="M105.666 36.6451H103.719L104.757 34.8387L105.666 36.6451ZM108.132 38.8387L105.536 33.9354H103.719L101.123 38.8387H102.551L103.2 37.5484H106.185L106.834 38.8387H108.132Z" fill="black"/>
<path d="M122.671 38.8387L120.335 36.7742H119.556V38.8387H118.387V33.9354H119.556V35.7419H120.205L122.412 33.9354H124.229L121.373 36.258L124.359 38.8387H122.671Z" fill="black"/>
<path d="M132.926 37.0322C132.926 37.6774 132.796 37.8064 132.018 37.8064H130.46C129.681 37.8064 129.551 37.6774 129.551 37.0322V35.7419C129.551 35.0967 129.811 34.8387 130.46 34.8387H132.018C132.667 34.8387 132.926 34.9677 132.926 35.7419V37.0322ZM134.095 37.1612V35.6129C134.095 34.1935 133.575 33.8064 132.277 33.8064H130.07C128.772 33.8064 128.253 34.1935 128.253 35.6129V37.1612C128.253 38.3225 128.772 38.8387 130.07 38.8387H132.277C133.705 38.8387 134.095 38.3225 134.095 37.1612Z" fill="black"/>
<path d="M145.128 38.8387V34.8387H144.999L143.311 38.8387H141.624L139.936 34.8387H139.806V38.8387H138.638V33.9354H140.845L142.532 37.9354H142.662L144.35 33.9354H146.556V38.8387H145.128Z" fill="black"/>
<path d="M155.384 38.8387V34.8387H152.268V38.8387H151.1V33.9354H156.552V38.8387H155.384Z" fill="black"/>
<path d="M165.119 36.6451H163.172L164.211 34.8387L165.119 36.6451ZM167.586 38.8387L164.99 33.9354H163.172L160.576 38.8387H162.004L162.653 37.5484H165.639L166.288 38.8387H167.586Z" fill="black"/>
<path d="M175.764 38.8387V36.7742H172.648V38.8387H171.48V33.9354H172.648V35.8709H175.764V33.9354H176.932V38.8387H175.764Z" fill="black"/>
<path d="M186.798 38.8387V34.8387H186.668L183.682 38.8387H181.605V33.9354H182.774V37.9354H182.903L185.889 33.9354H187.836V38.8387H186.798Z" fill="black"/>
<path d="M197.702 38.8387V34.8387H197.572L194.586 38.8387H192.509V33.9355H193.678V37.9355H193.808L196.793 33.9355H198.74V38.8387H197.702ZM195.495 33.5484C194.067 33.5484 193.808 33.2903 193.808 32.5161V32.3871H194.716C194.716 32.9032 194.846 32.9032 195.495 32.9032C196.144 32.9032 196.274 32.9032 196.274 32.3871H197.183C197.183 33.1613 197.053 33.5484 195.495 33.5484Z" fill="black"/>
<path d="M24.1448 48C10.7743 48 0 37.2904 0 24C0 10.7097 10.7743 0 24.1448 0C37.5153 0 48.2896 10.7097 48.2896 24C48.2896 37.1613 37.5153 48 24.1448 48ZM14.2792 14.5806C15.1879 15.7419 16.6158 16.3871 18.3033 16.3871H29.4671C31.0248 16.3871 32.4527 17.1613 33.4912 18.1936L34.7893 19.7419H19.0822C15.0581 19.7419 12.9811 21.0323 11.0339 23.3549L7.65887 27.3548V37.0323L14.7985 28.6452C15.7071 27.4839 17.135 26.8387 18.8226 26.8387H34.6595L33.3614 28.3871C32.4527 29.5484 31.0248 30.1936 29.3373 30.1936H18.1735C16.6158 30.1936 15.1879 30.9677 14.1494 32L9.86563 37.0323H28.9478C32.3229 37.0323 34.9191 35.6129 36.8663 33.2903L45.304 23.3549L36.8663 13.2903C34.9191 10.9677 32.1931 9.54838 28.9478 9.54838H9.99545C9.99545 9.54838 13.3705 13.4193 14.2792 14.5806Z" fill="#FE000C"/>
</svg>
