<svg width="18" height="18" viewBox="0 0 18 18" fill="none" xmlns="http://www.w3.org/2000/svg">
<path d="M1.92859 6.50829L8.77759 10.0704C8.84629 10.1061 8.92258 10.1247 9.00002 10.1247C9.07745 10.1247 9.15374 10.1061 9.22245 10.0704L16.0714 6.50894V12.6964C16.0715 13.2301 15.8673 13.7435 15.5008 14.1314C15.1343 14.5193 14.6333 14.7523 14.1004 14.7825L13.9822 14.7857H4.01787C3.48421 14.7858 2.97077 14.5816 2.58287 14.2151C2.19497 13.8486 1.96202 13.3475 1.9318 12.8147L1.92859 12.6964V6.50829ZM4.01787 3.21429H13.9822C14.5158 3.21426 15.0293 3.41844 15.4172 3.78494C15.8051 4.15144 16.038 4.65249 16.0682 5.18529L16.0714 5.30358V5.42187L9.00002 9.09901L1.92859 5.42187V5.30358C1.92855 4.76992 2.13273 4.25648 2.49923 3.86857C2.86574 3.48067 3.36678 3.24772 3.89959 3.21751L4.01787 3.21429H13.9822H4.01787Z" fill="#009999"/>
</svg>
