<svg width="56" height="56" viewBox="0 0 56 56" fill="none" xmlns="http://www.w3.org/2000/svg">
<g clip-path="url(#clip0)">
<path d="M27.998 25.4C23.898 25.4 20.498 22 20.498 17.8C20.498 16.5 20.798 15.4 21.398 14.3C21.498 14 21.798 13.9 22.098 13.9C22.198 13.9 22.398 13.9 22.498 14C22.598 14.1 22.798 14.2 22.798 14.4C22.898 14.6 22.898 14.9 22.798 15.1C22.398 15.9 22.098 16.8 22.098 17.9C22.098 21.2 24.798 23.9 27.998 23.9C31.298 23.9 33.898 21.2 33.898 17.9C33.898 14.6 31.198 11.9 27.998 11.9C26.798 11.9 25.598 12.3 24.698 12.9C24.498 13 24.398 13 24.198 13C23.898 13 23.698 12.8 23.598 12.7C23.398 12.5 23.398 12.3 23.398 12.1C23.398 11.9 23.598 11.7 23.798 11.6C25.098 10.7 26.498 10.3 28.098 10.3C32.198 10.3 35.598 13.7 35.598 17.9C35.498 22 32.098 25.4 27.998 25.4Z" fill="#FE000C"/>
<path d="M0.798438 56C0.498438 56 0.298438 55.9 0.0984375 55.6C-0.0015625 55.4 -0.0015625 55.1 0.0984375 54.9L1.39844 51.8C1.59844 51.5 1.79844 51.3 2.19844 51.3C2.29844 51.3 2.49844 51.3 2.59844 51.4C2.79844 51.5 2.89844 51.6 2.99844 51.8C3.09844 52 3.09844 52.2 2.99844 52.4L2.19844 54.4H7.79844L10.6984 47.4H4.89844L4.09844 49.3C3.89844 49.6 3.69844 49.8 3.29844 49.8C3.19844 49.8 2.99844 49.8 2.89844 49.7C2.79844 49.7 2.59844 49.5 2.49844 49.3C2.39844 49.1 2.49844 48.9 2.49844 48.7L7.99844 35.4C8.19844 35.1 8.39844 34.9 8.79844 34.9H16.9984C15.4984 32.9 14.1984 30.8 13.0984 28.6C11.2984 24.9 10.3984 21.3 10.3984 17.9C10.3984 8 18.2984 0 27.9984 0C37.6984 0 45.6984 8 45.6984 17.8C45.6984 21.1 44.7984 24.7 42.9984 28.5C41.9984 30.5 40.7984 32.5 39.0984 34.8H47.1984C47.4984 34.8 47.7984 35 47.8984 35.3L55.9984 54.9C56.0984 55.1 56.0984 55.4 55.8984 55.7C55.7984 55.9 55.4984 56.1 55.1984 56.1H0.798438V56ZM18.9984 39.8C19.1984 39.8 19.3984 39.9 19.4984 40L36.3984 54.4H41.1984L32.9984 47.2C32.6984 47 32.5984 46.6 32.7984 46.3C32.8984 46 33.1984 45.8 33.5984 45.8H50.4984L49.2984 43H44.2984C43.8984 43 43.4984 42.7 43.4984 42.2C43.4984 41.7 43.8984 41.4 44.2984 41.4H48.5984L46.5984 36.5H37.7984C37.6984 36.7 37.5984 36.8 37.4984 37C37.3984 37.2 37.1984 37.3 37.0984 37.5C35.8984 38.9 34.5984 40.3 33.4984 41.5H40.9984C41.3984 41.5 41.7984 41.8 41.7984 42.3C41.7984 42.8 41.3984 43.1 40.9984 43.1H31.6984C31.2984 43.5 29.0984 45.5 28.4984 45.9C28.2984 46 28.0984 46 27.9984 46C27.7984 46 27.6984 45.9 27.5984 45.9C27.5984 45.9 23.2984 42.6 18.9984 37.4C18.6984 37.1 18.4984 36.8 18.1984 36.5H16.7984L14.2984 42.6C14.0984 42.9 13.8984 43.1 13.4984 43.1H6.69844L5.59844 45.8H11.6984C11.9984 45.8 12.1984 45.9 12.3984 46.2C12.5984 46.4 12.5984 46.7 12.4984 47L9.39844 54.5H12.4984L18.2984 40.5C18.3984 40.3 18.5984 40.1 18.8984 40H18.9984V39.8ZM43.7984 54.4H53.9984L51.0984 47.4H35.6984L43.7984 54.4ZM33.8984 54.3L19.2984 42L14.1984 54.4H33.8984V54.3ZM27.9984 1.7C19.1984 1.7 11.9984 8.9 11.9984 17.8C11.9984 21.5 13.2984 27.5 19.1984 35.1L19.3984 35.3C19.6984 35.7 19.8984 36 20.1984 36.3C23.6984 40.4 26.9984 43.3 27.9984 44.1C29.3984 43 32.5984 40.1 35.7984 36.3C36.1984 35.9 36.4984 35.5 36.7984 35.1C42.7984 27.4 43.9984 21.4 43.9984 17.8C43.9984 8.9 36.7984 1.7 27.9984 1.7ZM12.9984 41.4L14.9984 36.5H9.39844L7.39844 41.4H12.9984Z" fill="#A29999"/>
</g>
<defs>
<clipPath id="clip0">
<rect width="56" height="56" fill="white"/>
</clipPath>
</defs>
</svg>
