<svg width="33" height="32" viewBox="0 0 33 32" fill="none" xmlns="http://www.w3.org/2000/svg">
<path d="M16.0965 32C7.18287 32 0 24.8602 0 16C0 7.13979 7.18287 0 16.0965 0C25.0102 0 32.1931 7.13979 32.1931 16C32.1931 24.7742 25.0102 32 16.0965 32ZM9.51946 9.72042C10.1252 10.4946 11.0772 10.9247 12.2022 10.9247H19.6447C20.6832 10.9247 21.6352 11.4409 22.3275 12.129L23.1929 13.1613H12.7215C10.0387 13.1613 8.65405 14.0215 7.35595 15.5699L5.10591 18.2366V24.6882L9.86564 19.0968C10.4714 18.3226 11.4234 17.8925 12.5484 17.8925H23.1063L22.2409 18.9247C21.6351 19.6989 20.6832 20.129 19.5582 20.129H12.1157C11.0772 20.129 10.1253 20.6452 9.43294 21.3333L6.57709 24.6882H19.2986C21.5486 24.6882 23.2794 23.7419 24.5775 22.1935L30.2027 15.5699L24.5775 8.86021C23.2794 7.31182 21.4621 6.36559 19.2986 6.36559H6.66363C6.66363 6.36559 8.91368 8.94623 9.51946 9.72042Z" fill="#333333"/>
</svg>
