<svg width="25" height="24" viewBox="0 0 25 24" fill="none" xmlns="http://www.w3.org/2000/svg">
<path d="M10.25 8.25H15.5V9.75H10.25V8.25Z" fill="white"/>
<path d="M22.25 9.75H20.735C20.7134 9.15746 20.5705 8.57564 20.315 8.04054C20.0596 7.50544 19.6971 7.02843 19.25 6.639V3.75C19.25 3.61072 19.2112 3.47418 19.138 3.3557C19.0648 3.23722 18.96 3.14147 18.8354 3.07918C18.7108 3.01689 18.5714 2.99052 18.4326 3.00303C18.2939 3.01554 18.1614 3.06643 18.05 3.15L15.2502 5.25H11.75C7.6175 5.25 4.65275 7.68075 4.289 11.25H4.25C4.05109 11.25 3.86032 11.171 3.71967 11.0303C3.57902 10.8897 3.5 10.6989 3.5 10.5V9H2V10.5C2.0006 11.0966 2.23784 11.6685 2.65967 12.0903C3.0815 12.5122 3.65345 12.7494 4.25 12.75H4.3025C4.41127 13.7334 4.73089 14.6819 5.23955 15.5306C5.74822 16.3792 6.43396 17.1082 7.25 17.6677V20.25C7.25 20.4489 7.32902 20.6397 7.46967 20.7803C7.61032 20.921 7.80109 21 8 21H11C11.1989 21 11.3897 20.921 11.5303 20.7803C11.671 20.6397 11.75 20.4489 11.75 20.25V18.75H14V20.25C14 20.4489 14.079 20.6397 14.2197 20.7803C14.3603 20.921 14.5511 21 14.75 21H17.75C17.9489 21 18.1397 20.921 18.2803 20.7803C18.421 20.6397 18.5 20.4489 18.5 20.25V17.7277C19.0418 17.4709 19.5155 17.0901 19.8828 16.6163C20.2501 16.1424 20.5006 15.5887 20.6143 15H22.25C22.4489 15 22.6397 14.921 22.7803 14.7803C22.921 14.6397 23 14.4489 23 14.25V10.5C23 10.3011 22.921 10.1103 22.7803 9.96967C22.6397 9.82902 22.4489 9.75 22.25 9.75ZM21.5 13.5H19.343C19.1143 15.5647 18.725 16.1138 17 16.7362V19.5H15.5V17.25H10.25V19.5H8.75V16.7835C7.84693 16.3539 7.08505 15.6757 6.55371 14.8284C6.02236 13.9812 5.74356 13 5.75 12C5.75 8.37375 8.7635 6.75 11.75 6.75H15.7498L17.75 5.25V7.332C19.5635 8.727 19.1847 9.7215 19.2635 11.25H21.5V13.5Z" fill="white"/>
</svg>
