<svg width="56" height="56" viewBox="0 0 56 56" fill="none" xmlns="http://www.w3.org/2000/svg">
<path d="M50.0946 2.72065H13.8831C10.7404 2.72065 8.18364 5.25355 8.18364 8.35679L7.95027 40.2429H0.883413C0.382591 40.2429 0 40.6857 0 41.1866V45.5748C0 49.6828 3.28745 53.0425 7.25506 53.2267V53.2794H37.749V53.22C37.9757 53.2293 38.113 53.2794 38.2688 53.2794H38.2905C42.5221 53.2546 45.9331 49.8055 45.9109 45.574V17.6842H55.1166C55.6174 17.6842 56 17.2308 56 16.7304V8.67871C56.0057 5.40632 53.367 2.74412 50.0946 2.72065V2.72065ZM7.65182 51.4656H7.64562C4.41972 51.4656 1.81376 48.7994 1.81376 45.574V42.0567H30.6073V45.5589C30.6002 47.6003 31.4066 49.5602 32.8479 51.0055C33.0011 51.1596 33.1614 51.2389 33.3253 51.4656H7.65182ZM44.0971 45.5731C44.0971 48.7994 41.5164 51.4656 38.2892 51.4656H38.2706C35.0274 51.4421 32.4135 48.8025 32.421 45.5593V41.1866C32.4237 40.6787 32.0221 40.2606 31.5142 40.2429H9.76404L9.9974 8.36299C9.9974 6.25387 11.7403 4.53442 13.8831 4.53442H45.813C44.7795 5.66802 44.0971 7.1023 44.0971 8.70307V45.5731ZM54.1862 8.69465V15.8705H45.9109V8.7013C45.9109 6.43143 47.7991 4.53442 50.068 4.53442H50.0933C52.368 4.557 54.1968 6.41284 54.1862 8.68801V8.69465Z" fill="#A29999"/>
<path d="M21.2965 25.0429L25.9722 28.2396C26.2773 28.4499 26.6807 28.4499 26.9858 28.2396L31.6473 25.0438C33.2667 23.939 34.4627 21.6292 34.4627 19.6707V13.2029C34.4725 12.8611 34.2838 12.544 33.9792 12.3886L26.86 8.88683C26.6103 8.76285 26.3172 8.76285 26.0674 8.88683L18.9616 12.3789C18.6569 12.5343 18.4687 12.8513 18.4789 13.1932V19.6707C18.4789 21.6292 19.6776 23.939 21.2965 25.0429ZM20.2927 13.7591L26.4708 10.7108L32.6489 13.7675V19.6707C32.6489 21.0368 31.7536 22.7744 30.624 23.5444L26.4602 26.3921L22.3128 23.5449C21.1832 22.7739 20.2927 21.0368 20.2927 19.6707V13.7591Z" fill="#FE000C"/>
<path d="M24.9347 21.0399C25.1038 21.2126 25.335 21.3104 25.5768 21.3117H25.579C25.8199 21.3109 26.0506 21.2143 26.2202 21.0434L29.8278 17.4345C30.1825 17.0802 30.1825 16.5054 29.8282 16.1512C29.4744 15.7965 28.8997 15.7965 28.5454 16.1507L25.5821 19.1136L24.3976 17.9176C24.0446 17.5616 23.4703 17.5589 23.1143 17.9118C22.7583 18.2647 22.756 18.8391 23.1085 19.1951L24.9347 21.0399Z" fill="#FE000C"/>
<path d="M37.7482 30.834H15.9831C15.4822 30.834 15.0762 31.2401 15.0762 31.7409C15.0762 32.2417 15.4822 32.6478 15.9831 32.6478H37.7482C38.2491 32.6478 38.6551 32.2417 38.6551 31.7409C38.6551 31.2401 38.2491 30.834 37.7482 30.834Z" fill="#A29999"/>
<path d="M37.7482 35.0283H15.9831C15.4822 35.0283 15.0762 35.4344 15.0762 35.9352C15.0762 36.436 15.4822 36.8421 15.9831 36.8421H37.7482C38.2491 36.8421 38.6551 36.436 38.6551 35.9352C38.6551 35.4344 38.2491 35.0283 37.7482 35.0283Z" fill="#A29999"/>
</svg>
