<svg width="56" height="56" viewBox="0 0 56 56" fill="none" xmlns="http://www.w3.org/2000/svg">
<g clip-path="url(#clip0)">
<path d="M23.3992 56C22.3992 56 21.2992 55.9 20.3992 55.7C19.9992 55.6 19.6992 55.2 19.6992 54.8C19.7992 54.4 20.0992 54.1 20.4992 54.1H20.5992C21.5992 54.2 22.4992 54.3 23.3992 54.3H31.7992C38.3992 54.3 44.0992 50.5 46.6992 44.5C49.2992 38.4 48.1992 31.7 43.6992 26.9L33.0992 15.7H32.9992H30.5992C30.2992 15.7 30.0992 15.6 29.9992 15.4C29.8992 15.2 29.7992 15 29.7992 14.8C29.8992 14.3 30.1992 14.1 30.5992 14.1H32.9992C33.4992 14.1 33.9992 13.7 33.9992 13.2C33.9992 12.9 33.8992 12.7 33.6992 12.5C33.4992 12.3 33.2992 12.2 32.9992 12.2H21.9992C21.4992 12.2 20.9992 12.6 20.9992 13.1C20.9992 13.4 21.0992 13.6 21.2992 13.8C21.4992 14 21.6992 14.1 21.9992 14.1H27.1992H27.3992C27.8992 14.2 28.0992 14.6 28.0992 15C27.9992 15.4 27.6992 15.7 27.2992 15.7H21.9992L15.6992 22.3C15.5992 22.4 15.2992 22.5 15.0992 22.5C14.8992 22.5 14.6992 22.4 14.4992 22.3C14.3992 22.2 14.1992 22 14.1992 21.7C14.1992 21.5 14.2992 21.3 14.3992 21.1L20.0992 15C19.9992 15 19.8992 14.8 19.7992 14.7C19.3992 14.3 19.0992 13.6 19.1992 12.9C19.1992 12 19.7992 11.1 20.6992 10.7C20.4992 10.3 20.3992 9.9 20.3992 9.5C20.3992 8.6 20.7992 7.8 21.5992 7.3L18.0992 3C17.6992 2.5 17.5992 1.7 17.8992 1C18.1992 0.3 18.7992 0 19.5992 0H24.8992C25.2992 0 25.6992 0.1 25.9992 0.3L27.1992 1.1C27.2992 1.2 27.3992 1.2 27.4992 1.2C27.5992 1.2 27.6992 1.2 27.7992 1.1L28.9992 0.3C29.1992 0.1 29.5992 0 29.9992 0H35.2992C35.9992 0 36.5992 0.4 36.9992 1C37.2992 1.7 37.1992 2.4 36.6992 3L33.1992 7.4C33.9992 7.9 34.3992 8.7 34.3992 9.6C34.3992 10 34.2992 10.4 34.0992 10.8H34.1992C34.4992 11 34.6992 11.1 34.9992 11.3C35.4992 11.8 35.7992 12.5 35.6992 13.2C35.5992 14 35.2992 14.6 34.6992 15L44.7992 25.7C49.6992 31 50.9992 38.4 48.1992 45.1C45.2992 51.8 39.0992 56 31.7992 56H23.6992H23.3992ZM23.0992 8.7C22.5992 8.7 22.0992 9.1 22.0992 9.7C22.0992 10.3 22.4992 10.7 23.0992 10.7H31.8992C32.3992 10.7 32.8992 10.3 32.8992 9.7C32.8992 9.1 32.4992 8.7 31.8992 8.7H23.0992ZM31.4992 7L35.5992 2C35.6992 1.9 35.6992 1.8 35.6992 1.8C35.5992 1.7 35.4992 1.7 35.3992 1.7H30.0992C30.0992 1.7 29.9992 1.7 29.8992 1.7L28.6992 2.5C28.3992 2.7 27.9992 2.9 27.4992 2.9C27.0992 2.9 26.6992 2.8 26.2992 2.6L25.0992 1.8H24.9992H19.6992C19.5992 1.8 19.4992 1.9 19.4992 1.9C19.3992 2 19.4992 2.1 19.4992 2.1L23.4992 7.1L31.4992 7Z" fill="#A29999"/>
<path d="M6.30027 39.3C5.90027 39.3 5.50027 38.9 5.50027 38.5C5.40027 33.8 7.10027 29.3 10.3003 25.8L11.6003 24.4C11.8003 24.2 12.0003 24.1 12.2003 24.1C12.4003 24.1 12.6003 24.2 12.8003 24.3C12.9003 24.4 13.1003 24.6 13.1003 24.9C13.1003 25.1 13.0003 25.3 12.9003 25.5L11.6003 26.9C8.50027 30.2 6.90027 34.2 7.00027 38.5C7.00027 38.7 6.90027 38.9 6.80027 39.1C6.70027 39.2 6.50027 39.3 6.30027 39.3Z" fill="#A29999"/>
<path d="M1.59961 56C0.499609 56 -0.400391 55.1 -0.400391 54V52C-0.400391 51.6 -0.300391 51.2 -0.000390619 50.8C-0.300391 50.4 -0.400391 50 -0.400391 49.6V47.6C-0.400391 47.2 -0.300391 46.8 -0.000390619 46.4C-0.300391 46 -0.400391 45.6 -0.400391 45.2V43.2C-0.400391 42.1 0.499609 41.2 1.59961 41.2H15.9996C17.0996 41.2 17.9996 42.1 17.9996 43.2V45.2C17.9996 45.6 17.8996 46 17.5996 46.4C17.8996 46.8 17.9996 47.2 17.9996 47.6V49.6C17.9996 50 17.8996 50.4 17.5996 50.8C17.8996 51.2 17.9996 51.6 17.9996 52V54C17.9996 55.1 17.0996 56 15.9996 56H1.59961ZM1.59961 51.5C1.39961 51.5 1.19961 51.7 1.19961 51.9V53.9C1.19961 54.1 1.39961 54.3 1.59961 54.3H15.9996C16.1996 54.3 16.3996 54.1 16.3996 53.9V51.9C16.3996 51.7 16.1996 51.5 15.9996 51.5H1.59961ZM1.59961 47.1C1.39961 47.1 1.19961 47.3 1.19961 47.5V49.5C1.19961 49.7 1.39961 49.9 1.59961 49.9H15.9996C16.1996 49.9 16.3996 49.7 16.3996 49.5V47.5C16.3996 47.3 16.1996 47.1 15.9996 47.1H1.59961ZM1.59961 42.6C1.39961 42.6 1.19961 42.8 1.19961 43V45C1.19961 45.2 1.39961 45.4 1.59961 45.4H15.9996C16.1996 45.4 16.3996 45.2 16.3996 45V43C16.3996 42.8 16.1996 42.6 15.9996 42.6H1.59961Z" fill="#A29999"/>
<path d="M42.8996 56C42.4996 56 42.0996 55.6 42.0996 55.2C42.0996 54.7 42.4996 54.4 42.8996 54.4H53.3996C53.5996 54.4 53.7996 54.2 53.7996 54V52C53.7996 51.8 53.5996 51.6 53.3996 51.6H47.7996C47.3996 51.6 46.9996 51.2 46.9996 50.8C46.9996 50.3 47.3996 50 47.7996 50H53.3996C53.5996 50 53.7996 49.8 53.7996 49.6V47.6C53.7996 47.4 53.5996 47.2 53.3996 47.2H50.3996C49.9996 47.2 49.5996 46.8 49.5996 46.4C49.5996 45.9 49.9996 45.6 50.3996 45.6H53.3996C53.5996 45.6 53.7996 45.4 53.7996 45.2V43.2C53.7996 43 53.5996 42.8 53.3996 42.8H51.7996C51.3996 42.8 50.9996 42.4 50.9996 42C50.9996 41.5 51.3996 41.2 51.7996 41.2H53.3996C54.4996 41.2 55.3996 42.1 55.3996 43.2V45.2C55.3996 45.6 55.2996 46 54.9996 46.4C55.2996 46.8 55.3996 47.2 55.3996 47.6V49.6C55.3996 50 55.2996 50.4 54.9996 50.8C55.2996 51.2 55.3996 51.6 55.3996 52V54C55.3996 55.1 54.4996 56 53.3996 56H43.1996H42.8996Z" fill="#A29999"/>
<path d="M27.6 43.4C21.5 43.4 16.5 38.4 16.5 32.3C16.5 26.2 21.5 21.2 27.6 21.2C33.7 21.2 38.7 26.2 38.7 32.3C38.7 33.5 38.5 34.7 38.1 35.9C38 36.3 37.7 36.5 37.3 36.5C37.2 36.5 37.1 36.5 37 36.4C36.8 36.3 36.7 36.2 36.6 36C36.5 35.8 36.4 35.6 36.5 35.3C36.8 34.3 37 33.3 37 32.2C37 27 32.8 22.7 27.5 22.7C22.2 22.7 18 26.9 18 32.2C18 37.4 22.2 41.7 27.5 41.7C30.4 41.7 33.1 40.4 34.9 38.1C35 37.9 35.3 37.8 35.5 37.8C35.7 37.8 35.9 37.9 36 38C36.1 38.1 36.3 38.3 36.3 38.5C36.3 38.7 36.3 38.9 36.1 39.1C34.1 41.9 30.9 43.4 27.6 43.4Z" fill="#A29999"/>
<path d="M24.7992 37.2V35.6H23.6992V34.6H24.7992V33.7H23.6992V32.3H24.7992V27.2H28.2992C28.7992 27.2 29.1992 27.3 29.5992 27.5C29.9992 27.7 30.2992 28 30.5992 28.2C30.7992 28.4 30.9992 28.8 31.1992 29.2C31.3992 29.6 31.3992 30 31.3992 30.4C31.3992 30.9 31.2992 31.5 30.9992 32C30.7992 32.5 30.3992 32.8 29.9992 33.2C29.4992 33.5 28.9992 33.7 28.3992 33.7H26.3992V34.6H28.3992V35.6H26.3992V37.2H24.7992ZM28.2992 32.3C28.6992 32.3 28.9992 32.2 29.1992 32.1C29.4992 31.9 29.5992 31.7 29.6992 31.4C29.7992 31.1 29.8992 30.8 29.8992 30.4C29.8992 30.1 29.7992 29.7 29.6992 29.4C29.5992 29.1 29.3992 28.9 29.1992 28.8C28.9992 28.6 28.6992 28.6 28.2992 28.6H26.4992V32.3H28.2992Z" fill="#FE000C"/>
</g>
<defs>
<clipPath id="clip0">
<rect width="56" height="56" fill="white"/>
</clipPath>
</defs>
</svg>
