<svg width="128" height="128" viewBox="0 0 128 128" fill="none" xmlns="http://www.w3.org/2000/svg">
<path d="M58.7001 29.8C57.6001 29.8 56.6001 29.4 55.8001 28.6C55.0001 27.8 54.6001 26.8 54.6001 25.7C54.6001 24.9 54.8001 24.1 55.3001 23.4C55.8001 22.7 56.4001 22.2 57.2001 21.9C57.7001 21.7 58.2001 21.6 58.8001 21.6C59.1001 21.6 59.3001 21.6 59.6001 21.7C60.4001 21.9 61.1001 22.3 61.7001 22.8C62.3001 23.4 62.7001 24.1 62.8001 24.9C62.9001 25.7 62.9001 26.5 62.6001 27.3C62.3001 28.1 61.8001 28.7 61.1001 29.2C60.3001 29.6 59.5001 29.8 58.7001 29.8ZM58.6001 23.6C58.1001 23.6 57.6001 23.8 57.2001 24.2C56.8001 24.6 56.6001 25.1 56.6001 25.7C56.6001 26.1 56.7001 26.5 57.0001 26.9C57.2001 27.3 57.6001 27.5 58.0001 27.7C58.3001 27.8 58.5001 27.9 58.8001 27.9C58.9001 27.9 59.1001 27.9 59.2001 27.9C59.6001 27.8 60.0001 27.6 60.3001 27.3C60.6001 27 60.8001 26.6 60.9001 26.2C61.0001 25.8 60.9001 25.4 60.8001 25C60.6001 24.6 60.4001 24.3 60.0001 24C59.5001 23.7 59.1001 23.6 58.6001 23.6Z" fill="#FE000C"/>
<path d="M69.3001 40.4C68.8001 40.4 68.2001 40.3 67.7001 40.1C66.9001 39.8 66.3001 39.3 65.8001 38.6C65.3001 37.9 65.1001 37.1 65.1001 36.3C65.1001 35.2 65.5001 34.2 66.3001 33.4C67.1001 32.6 68.1001 32.2 69.2001 32.2C70.0001 32.2 70.8001 32.4 71.5001 32.9C72.2001 33.4 72.7001 34 73.0001 34.8C73.3001 35.6 73.4001 36.4 73.2001 37.2C73.0001 38 72.6001 38.7 72.1001 39.3C71.5001 39.9 70.8001 40.3 70.0001 40.4C69.8001 40.4 69.6001 40.4 69.3001 40.4ZM69.3001 34.1C68.9001 34.1 68.5001 34.2 68.1001 34.5C67.7001 34.7 67.5001 35.1 67.3001 35.5C67.1001 35.9 67.1001 36.3 67.2001 36.7C67.3001 37.1 67.5001 37.5 67.8001 37.8C68.1001 38.1 68.5001 38.3 68.9001 38.4C69.0001 38.4 69.2001 38.4 69.3001 38.4C69.6001 38.4 69.9001 38.3 70.1001 38.2C70.5001 38 70.8001 37.8 71.1001 37.4C71.3001 37 71.5001 36.6 71.5001 36.2C71.5001 35.6 71.3001 35.1 70.9001 34.7C70.4001 34.4 69.9001 34.1 69.3001 34.1Z" fill="#FE000C"/>
<path d="M57.2002 38.8C57.1002 38.8 56.9002 38.8 56.8002 38.7C56.7002 38.7 56.6002 38.6 56.5002 38.5C56.3002 38.3 56.2002 38.1 56.2002 37.8C56.2002 37.5 56.3002 37.3 56.5002 37.1L70.2002 23.4C70.3002 23.3 70.4002 23.2 70.5002 23.2C70.6002 23.1 70.7002 23.1 70.9002 23.1C71.0002 23.1 71.2002 23.1 71.3002 23.2C71.4002 23.3 71.5002 23.3 71.6002 23.4C71.7002 23.5 71.8002 23.6 71.8002 23.7C71.8002 23.8 71.9002 24 71.9002 24.1C71.9002 24.2 71.9002 24.4 71.8002 24.5C71.7002 24.6 71.7002 24.7 71.6002 24.8L57.9002 38.5C57.8002 38.6 57.7002 38.7 57.6002 38.7C57.4002 38.8 57.3002 38.8 57.2002 38.8Z" fill="#FE000C"/>
<path d="M64.0001 49.9C59.0001 49.9 54.2001 47.9 50.6001 44.4C47.0001 40.8 45.1001 36.1 45.1001 31C45.1001 27.3 46.2001 23.6 48.3001 20.5C50.4001 17.4 53.3001 15 56.8001 13.5C59.1001 12.5 61.5001 12.1 64.0001 12.1C65.2001 12.1 66.5001 12.2 67.7001 12.5C71.4001 13.2 74.7001 15 77.4001 17.7C80.1001 20.4 81.8001 23.7 82.6001 27.4C83.3001 31.1 83.0001 34.9 81.5001 38.3C80.1001 41.8 77.7001 44.7 74.5001 46.8C71.4001 48.8 67.8001 49.9 64.0001 49.9ZM64.0001 14.1C59.5001 14.1 55.2001 15.9 52.1001 19.1C48.9001 22.3 47.1001 26.5 47.1001 31C47.1001 34.4 48.1001 37.6 49.9001 40.4C51.8001 43.2 54.4001 45.3 57.5001 46.6C59.6001 47.5 61.7001 47.9 64.0001 47.9C65.1001 47.9 66.2001 47.8 67.3001 47.6C70.6001 46.9 73.6001 45.3 76.0001 43C78.4001 40.6 80.0001 37.6 80.6001 34.3C81.3001 31 80.9001 27.6 79.6001 24.5C78.3001 21.4 76.2001 18.8 73.4001 16.9C70.6001 15.1 67.4001 14.1 64.0001 14.1Z" fill="#A29999"/>
<path d="M100.2 32C99.9002 32 99.7002 31.9 99.5002 31.7C99.3002 31.5 99.2002 31.3 99.2002 31C99.2002 30.7 99.3002 30.5 99.5002 30.3C99.7002 30.1 99.9002 30 100.2 30H107.3C107.6 30 107.8 30.1 108 30.3C108.2 30.5 108.3 30.7 108.3 31C108.3 31.3 108.2 31.5 108 31.7C107.8 31.9 107.6 32 107.3 32H100.2Z" fill="#A29999"/>
<path d="M97.6001 23.4C97.6001 23.4 97.5001 23.4 97.4001 23.4C97.1001 23.4 96.9001 23.2 96.8001 23C96.6001 22.8 96.6001 22.5 96.6001 22.3C96.6001 22 96.8001 21.8 97.0001 21.6L104.1 16.3C104.3 16.2 104.5 16.1 104.7 16.1H104.8C105.1 16.1 105.3 16.3 105.5 16.5C105.7 16.7 105.7 17 105.7 17.2C105.7 17.5 105.5 17.7 105.3 17.9L98.2001 23.2C98.0001 23.3 97.8001 23.4 97.6001 23.4Z" fill="#A29999"/>
<path d="M104.7 45.9C104.6 45.9 104.5 45.9 104.5 45.9C104.4 45.9 104.3 45.8 104.1 45.7L97.0001 40.4C96.8001 40.2 96.7001 40 96.6001 39.8C96.6001 39.5 96.6001 39.3 96.8001 39.1C97.0001 38.9 97.2001 38.8 97.4001 38.7C97.4001 38.7 97.5001 38.7 97.6001 38.7C97.8001 38.7 98.0001 38.8 98.2001 38.9L105.3 44.2C105.4 44.3 105.5 44.4 105.6 44.5C105.7 44.6 105.7 44.7 105.7 44.9C105.7 45 105.7 45.2 105.7 45.3C105.7 45.4 105.6 45.5 105.5 45.7C105.4 45.8 105.3 45.9 105.2 46C105.1 46.1 105 46.1 104.8 46.1L104.7 45.9Z" fill="#A29999"/>
<path d="M20.6001 32C20.3001 32 20.1001 31.9 19.9001 31.7C19.7001 31.5 19.6001 31.3 19.6001 31C19.6001 30.7 19.7001 30.5 19.9001 30.3C20.1001 30.1 20.3001 30 20.6001 30H27.7001C28.0001 30 28.2001 30.1 28.4001 30.3C28.6001 30.5 28.7001 30.7 28.7001 31C28.7001 31.3 28.6001 31.5 28.4001 31.7C28.3001 31.9 28.0001 32 27.8001 32H20.6001Z" fill="#A29999"/>
<path d="M23.1998 45.9C22.8998 45.9 22.6998 45.7 22.4998 45.5C22.2998 45.3 22.2998 45 22.2998 44.8C22.2998 44.5 22.4998 44.3 22.6998 44.1L29.7998 38.7C29.9998 38.6 30.1998 38.5 30.3998 38.5C30.4998 38.5 30.4998 38.5 30.5998 38.5C30.8998 38.5 31.0998 38.7 31.1998 38.9C31.3998 39.1 31.3998 39.4 31.3998 39.6C31.3998 39.9 31.1998 40.1 30.9998 40.3L23.8998 45.6C23.6998 45.7 23.4998 45.8 23.2998 45.8L23.1998 45.9Z" fill="#A29999"/>
<path d="M30.3998 23.4C30.1998 23.4 29.9998 23.3 29.7998 23.2L22.6998 17.9C22.4998 17.7 22.2998 17.5 22.2998 17.2C22.2998 16.9 22.2998 16.7 22.4998 16.5C22.6998 16.3 22.8998 16.1 23.1998 16.1H23.2998C23.4998 16.1 23.6998 16.2 23.8998 16.3L30.9998 21.7C31.1998 21.9 31.2998 22.1 31.3998 22.3C31.3998 22.6 31.3998 22.8 31.1998 23C30.9998 23.2 30.7998 23.3 30.5998 23.4C30.4998 23.4 30.4998 23.4 30.3998 23.4Z" fill="#A29999"/>
<path d="M64.0001 125.2C63.9001 125.2 63.7001 125.2 63.6001 125.1L25.5001 106.7C25.3001 106.6 25.2001 106.5 25.1001 106.3C25.0001 106.1 25.0001 106 25.0001 105.8V76.5L16.8001 72.2C16.6001 72.1 16.4001 71.9 16.3001 71.6C16.2001 71.3 16.2001 71.1 16.4001 70.8L24.3001 55.8C24.4001 55.7 24.4001 55.6 24.5001 55.5C24.6001 55.4 24.7001 55.4 24.8001 55.4L44.5001 48.8L42.0001 47.5C41.0001 47 40.1001 46.2 39.5001 45.1C38.9001 44.1 38.6001 42.9 38.7001 41.8L38.9001 39C38.9001 38.2 38.7001 37.3 38.2001 36.6L36.7001 34.3C36.1001 33.3 35.7001 32.2 35.7001 31C35.7001 29.8 36.0001 28.7 36.7001 27.7L38.2001 25.4C38.7001 24.7 38.9001 23.8 38.9001 23L38.7001 20.2C38.6001 19 38.9001 17.9 39.5001 16.9C40.1001 15.9 40.9001 15.1 42.0001 14.5L44.5001 13.3C45.3001 12.9 45.9001 12.3 46.3001 11.5L47.5001 9C48.0001 8 48.8001 7.1 49.9001 6.5C50.8001 6 51.8001 5.7 52.9001 5.7C53.0001 5.7 53.1001 5.7 53.2001 5.7L56.0001 5.9C56.1001 5.9 56.1001 5.9 56.2001 5.9C57.0001 5.9 57.8001 5.7 58.4001 5.2L60.7001 3.7C61.7001 3.1 62.8001 2.7 64.0001 2.7C65.2001 2.7 66.3001 3 67.3001 3.7L69.6001 5.2C70.3001 5.6 71.0001 5.9 71.8001 5.9C71.9001 5.9 71.9001 5.9 72.0001 5.9L74.8001 5.7C74.9001 5.7 75.0001 5.7 75.1001 5.7C76.2001 5.7 77.2001 6 78.1001 6.5C79.1001 7.1 79.9001 7.9 80.5001 9L81.7001 11.5C82.1001 12.3 82.7001 12.9 83.5001 13.3L86.0001 14.5C87.0001 15 87.9001 15.8 88.5001 16.9C89.1001 17.9 89.4001 19.1 89.3001 20.2L89.1001 23C89.1001 23.9 89.3001 24.7 89.8001 25.4L91.3001 27.7C92.0001 28.7 92.3001 29.8 92.3001 31C92.3001 32.2 92.0001 33.3 91.3001 34.3L89.8001 36.6C89.3001 37.3 89.1001 38.2 89.1001 39L89.3001 41.8C89.4001 43 89.1001 44.1 88.5001 45.1C87.9001 46.1 87.1001 46.9 86.0001 47.5L83.6001 48.7L103.2 55.4C103.3 55.4 103.4 55.5 103.5 55.5C103.6 55.6 103.7 55.7 103.7 55.8L111.6 70.9C111.7 71.1 111.7 71.4 111.7 71.7C111.6 71.9 111.4 72.2 111.2 72.3L103 76.6V105.9C103 106.1 103 106.3 102.9 106.4C102.8 106.6 102.7 106.7 102.5 106.8L64.5001 125.2C64.3001 125.2 64.2001 125.2 64.0001 125.2ZM65.0001 122.6L101 105.2V77.6L72.5001 92.8C72.4001 92.9 72.2001 92.9 72.1001 92.9C71.9001 92.9 71.7001 92.8 71.6001 92.8C71.4001 92.7 71.3001 92.6 71.2001 92.4L66.1001 82L65.0001 82.3V122.6ZM63.0001 122.6V82.3L61.9001 82L56.8001 92.3C56.7001 92.4 56.7001 92.5 56.6001 92.6C56.5001 92.7 56.4001 92.8 56.3001 92.8C56.2001 92.8 56.1001 92.8 56.0001 92.8C55.8001 92.8 55.7001 92.8 55.6001 92.7L27.0001 77.6V105.2L63.0001 122.6ZM55.5001 90.5L62.7001 76.1L40.8001 65.2C40.7001 65.1 40.6001 65 40.5001 64.9C40.4001 64.8 40.3001 64.7 40.3001 64.5C40.3001 64.4 40.3001 64.2 40.3001 64.1C40.3001 64 40.4001 63.8 40.5001 63.7C40.7001 63.4 40.9001 63.2 41.2001 63.2C41.4001 63.2 41.6001 63.2 41.7001 63.3L64.0001 74.6L100.2 56.5L81.8001 50.2L80.4001 52.9C79.9001 53.9 79.1001 54.8 78.0001 55.4C77.1001 55.9 76.1001 56.2 75.0001 56.2C74.9001 56.2 74.8001 56.2 74.7001 56.2L72.0001 56.1C71.9001 56.1 71.9001 56.1 71.8001 56.1C71.0001 56.1 70.2001 56.3 69.6001 56.8L67.3001 58.3C66.3001 58.9 65.2001 59.3 64.0001 59.3C62.8001 59.3 61.7001 59 60.7001 58.3L58.4001 56.8C57.7001 56.4 57.0001 56.1 56.2001 56.1C56.1001 56.1 56.1001 56.1 56.0001 56.1L53.2001 56.3C53.1001 56.3 53.0001 56.3 52.9001 56.3C51.8001 56.3 50.8001 56 49.9001 55.5C48.9001 54.9 48.1001 54.1 47.5001 53L46.2001 50.3L27.8001 56.5L32.7001 59C32.9001 59.1 33.1001 59.3 33.2001 59.6C33.3001 59.9 33.3001 60.1 33.1001 60.4C33.0001 60.6 32.8001 60.8 32.5001 60.9C32.4001 60.9 32.3001 61 32.2001 61C32.0001 61 31.9001 61 31.8001 60.9L25.6001 57.8L18.6001 71.1L55.5001 90.5ZM72.5001 90.5L109.4 70.9L102.4 57.6L65.3001 76.1L72.5001 90.5ZM56.2001 54.1C57.4001 54.1 58.5001 54.4 59.5001 55.1L61.8001 56.6C62.5001 57 63.2001 57.3 64.0001 57.3C64.8001 57.3 65.5001 57.1 66.2001 56.6L68.5001 55.1C69.5001 54.5 70.6001 54.1 71.8001 54.1C71.9001 54.1 72.0001 54.1 72.1001 54.1L74.9001 54.3C75.0001 54.3 75.0001 54.3 75.1001 54.3C75.8001 54.3 76.5001 54.1 77.1001 53.8C77.8001 53.4 78.3001 52.8 78.7001 52.1L79.9001 49.6C80.5001 48.5 81.4001 47.5 82.6001 47L85.1001 45.8C85.8001 45.4 86.4001 44.9 86.8001 44.2C87.2001 43.5 87.4001 42.8 87.3001 42L87.1001 39.2C87.0001 37.9 87.4001 36.7 88.1001 35.6L89.6001 33.3C90.0001 32.6 90.3001 31.9 90.3001 31.1C90.3001 30.3 90.1001 29.6 89.6001 28.9L88.1001 26.6C87.4001 25.5 87.1001 24.3 87.1001 23L87.3001 20.2C87.3001 19.4 87.2001 18.7 86.8001 18C86.4001 17.3 85.8001 16.8 85.1001 16.4L82.6001 15.2C81.5001 14.6 80.5001 13.7 80.0001 12.6L78.8001 10.1C78.5001 9.4 77.9001 8.8 77.2001 8.4C76.6001 8 75.9001 7.9 75.2001 7.9C75.1001 7.9 75.1001 7.9 75.0001 7.9L72.2001 8.1C72.1001 8.1 72.0001 8.1 71.9001 8.1C70.7001 8.1 69.6001 7.8 68.6001 7.1L66.3001 5.6C65.5001 5 64.8001 4.8 64.0001 4.8C63.2001 4.8 62.5001 5 61.8001 5.5L59.5001 7C58.5001 7.6 57.4001 8 56.2001 8C56.1001 8 56.0001 8 55.9001 8L53.1001 7.8C53.0001 7.8 53.0001 7.8 52.9001 7.8C52.2001 7.8 51.5001 8 50.9001 8.3C50.2001 8.7 49.7001 9.3 49.3001 10L48.1001 12.5C47.5001 13.6 46.6001 14.6 45.5001 15.1L43.0001 16.3C42.3001 16.7 41.7001 17.2 41.3001 17.9C40.9001 18.6 40.7001 19.3 40.8001 20.1L41.0001 22.9C41.1001 24.2 40.7001 25.4 40.0001 26.5L38.5001 28.8C38.1001 29.5 37.8001 30.2 37.8001 31C37.8001 31.8 38.0001 32.5 38.5001 33.2L40.0001 35.5C40.7001 36.6 41.1001 37.8 41.0001 39.1L40.8001 41.9C40.8001 42.7 40.9001 43.4 41.3001 44.1C41.7001 44.8 42.3001 45.3 43.0001 45.7L45.5001 46.9C46.6001 47.5 47.6001 48.4 48.1001 49.5L49.3001 52C49.7001 52.7 50.2001 53.3 50.9001 53.7C51.5001 54.1 52.2001 54.2 52.9001 54.2C53.0001 54.2 53.0001 54.2 53.1001 54.2L55.9001 54C56.0001 54.1 56.1001 54.1 56.2001 54.1Z" fill="#A29999"/>
<path d="M31.2998 87.8C30.9998 87.8 30.7998 87.7 30.5998 87.5C30.3998 87.3 30.2998 87.1 30.2998 86.8V85.5C30.2998 85.2 30.3998 85 30.5998 84.8C30.7998 84.6 30.9998 84.5 31.2998 84.5C31.5998 84.5 31.7998 84.6 31.9998 84.8C32.1998 85 32.2998 85.2 32.2998 85.5V86.8C32.2998 87.1 32.1998 87.3 31.9998 87.5C31.7998 87.7 31.4998 87.8 31.2998 87.8Z" fill="#A29999"/>
<path d="M31.2998 102.8C30.9998 102.8 30.7998 102.7 30.5998 102.5C30.3998 102.3 30.2998 102.1 30.2998 101.8V91.7C30.2998 91.4 30.3998 91.2 30.5998 91C30.7998 90.8 30.9998 90.7 31.2998 90.7C31.5998 90.7 31.7998 90.8 31.9998 91C32.1998 91.2 32.2998 91.4 32.2998 91.7V101.8C32.2998 102.1 32.1998 102.3 31.9998 102.5C31.7998 102.7 31.4998 102.8 31.2998 102.8Z" fill="#A29999"/>
</svg>
