<svg width="200" height="129" viewBox="0 0 200 129" fill="none" xmlns="http://www.w3.org/2000/svg">
<g clip-path="url(#clip0)">
<path d="M61.1 51.1V25.7H117.9V51.1H61.1ZM63 49.2H115.9V27.6H63V49.2Z" fill="#333333"/>
<path d="M61.1 51.1V25.7H117.9V51.1H61.1ZM63 49.2H115.9V27.6H63V49.2Z" fill="#A29999"/>
<path d="M114.4 112.5V110.6H125.1V18.4H48.7V16.5H127V112.5H114.4Z" fill="#333333"/>
<path d="M114.4 112.5V110.6H125.1V18.4H48.7V16.5H127V112.5H114.4Z" fill="#A29999"/>
<path d="M16.3 121.6C12.9 121.6 10.1 118.8 10.1 115.4V18.4H2.9V110.5H4.9V112.4H1V16.5H10.1V13.5C10.1 10.1 12.9 7.3 16.3 7.3H37.2C40.6 7.3 43.4 10.1 43.4 13.5V110.5H90.7V112.4H43.4V115.4C43.4 118.8 40.6 121.6 37.2 121.6H16.3ZM16.3 9.3C13.9 9.3 12 11.2 12 13.6V115.5C12 117.9 13.9 119.8 16.3 119.8H37.2C39.6 119.8 41.5 117.9 41.5 115.5V13.6C41.5 11.2 39.6 9.3 37.2 9.3H16.3Z" fill="#333333"/>
<path d="M16.3 121.6C12.9 121.6 10.1 118.8 10.1 115.4V18.4H2.9V110.5H4.9V112.4H1V16.5H10.1V13.5C10.1 10.1 12.9 7.3 16.3 7.3H37.2C40.6 7.3 43.4 10.1 43.4 13.5V110.5H90.7V112.4H43.4V115.4C43.4 118.8 40.6 121.6 37.2 121.6H16.3ZM16.3 9.3C13.9 9.3 12 11.2 12 13.6V115.5C12 117.9 13.9 119.8 16.3 119.8H37.2C39.6 119.8 41.5 117.9 41.5 115.5V13.6C41.5 11.2 39.6 9.3 37.2 9.3H16.3Z" fill="#A29999"/>
<path d="M35 33.6V20.1C35 17.7 33.1 15.8 30.7 15.8H23.9V13.9H30.7C34.1 13.9 36.9 16.7 36.9 20.1V33.6H35Z" fill="#333333"/>
<path d="M35 33.6V20.1C35 17.7 33.1 15.8 30.7 15.8H23.9V13.9H30.7C34.1 13.9 36.9 16.7 36.9 20.1V33.6H35Z" fill="#A29999"/>
<path d="M36.9 40.2H35V42.1H36.9V40.2Z" fill="#333333"/>
<path d="M36.9 40.2H35V42.1H36.9V40.2Z" fill="#A29999"/>
<path d="M99.2 110.6H97.3V112.5H99.2V110.6Z" fill="#333333"/>
<path d="M99.2 110.6H97.3V112.5H99.2V110.6Z" fill="#A29999"/>
<path d="M107.8 110.6H105.9V112.5H107.8V110.6Z" fill="#333333"/>
<path d="M107.8 110.6H105.9V112.5H107.8V110.6Z" fill="#A29999"/>
<path d="M105.3 37.4H103.4V39.3H105.3V37.4Z" fill="#333333"/>
<path d="M105.3 37.4H103.4V39.3H105.3V37.4Z" fill="#A29999"/>
<path d="M90.4 37.4H88.5V39.3H90.4V37.4Z" fill="#333333"/>
<path d="M90.4 37.4H88.5V39.3H90.4V37.4Z" fill="#A29999"/>
<path d="M75.5 37.4H73.6V39.3H75.5V37.4Z" fill="#333333"/>
<path d="M75.5 37.4H73.6V39.3H75.5V37.4Z" fill="#A29999"/>
<path d="M102.9 71.5V61.7H117.9V71.5H102.9ZM104.8 69.6H115.9V63.7H104.8V69.6Z" fill="#333333"/>
<path d="M102.9 71.5V61.7H117.9V71.5H102.9ZM104.8 69.6H115.9V63.7H104.8V69.6Z" fill="#A29999"/>
<path d="M102.9 87.2V77.4H117.9V87.2H102.9ZM104.8 85.3H115.9V79.4H104.8V85.3Z" fill="#333333"/>
<path d="M102.9 87.2V77.4H117.9V87.2H102.9ZM104.8 85.3H115.9V79.4H104.8V85.3Z" fill="#A29999"/>
<path d="M102.9 102.9V93.1H117.9V102.9H102.9ZM104.8 101H115.9V95.1H104.8V101Z" fill="#333333"/>
<path d="M102.9 102.9V93.1H117.9V102.9H102.9ZM104.8 101H115.9V95.1H104.8V101Z" fill="#A29999"/>
<path d="M61.1 72V62.2H76.1V72H61.1ZM63 70.1H74.1V64.2H63V70.1Z" fill="#333333"/>
<path d="M61.1 72V62.2H76.1V72H61.1ZM63 70.1H74.1V64.2H63V70.1Z" fill="#A29999"/>
<path d="M82 72V62.2H97V72H82ZM83.9 70.1H95V64.2H83.9V70.1Z" fill="#333333"/>
<path d="M82 72V62.2H97V72H82ZM83.9 70.1H95V64.2H83.9V70.1Z" fill="#A29999"/>
<path d="M61.1 87.7V77.9H76.1V87.7H61.1ZM63 85.7H74.1V79.8H63V85.7Z" fill="#333333"/>
<path d="M61.1 87.7V77.9H76.1V87.7H61.1ZM63 85.7H74.1V79.8H63V85.7Z" fill="#A29999"/>
<path d="M82 87.7V77.9H97V87.7H82ZM83.9 85.7H95V79.8H83.9V85.7Z" fill="#333333"/>
<path d="M82 87.7V77.9H97V87.7H82ZM83.9 85.7H95V79.8H83.9V85.7Z" fill="#A29999"/>
<path d="M61.1 103.3V93.5H76.1V103.3H61.1ZM63 101.4H74.1V95.5H63V101.4Z" fill="#333333"/>
<path d="M61.1 103.3V93.5H76.1V103.3H61.1ZM63 101.4H74.1V95.5H63V101.4Z" fill="#A29999"/>
<path d="M82 103.3V93.5H97V103.3H82ZM83.9 101.4H95V95.5H83.9V101.4Z" fill="#333333"/>
<path d="M82 103.3V93.5H97V103.3H82ZM83.9 101.4H95V95.5H83.9V101.4Z" fill="#A29999"/>
<path d="M106 123.5V117.5H108V121.5H151V104.5H153V121.5H196V104.5H198V123.5H106Z" fill="#A29999"/>
<circle cx="152" cy="97.5" r="3.5" fill="#FE000C"/>
<circle cx="197" cy="97.5" r="3.5" fill="#FE000C"/>
</g>
<defs>
<clipPath id="clip0">
<rect width="200" height="128" fill="white" transform="translate(0 0.5)"/>
</clipPath>
</defs>
</svg>
