<svg width="128" height="129" viewBox="0 0 128 129" fill="none" xmlns="http://www.w3.org/2000/svg">
<path d="M110.6 122.7C108.8 122.7 107.2 122 105.9 120.8C104.7 119.6 104 117.9 104 116.1V111.5H24V116.2C24 117.1 23.8 117.9 23.5 118.7C23.2 119.5 22.7 120.2 22.1 120.8C21.5 121.4 20.8 121.9 20 122.2C19.2 122.5 18.4 122.7 17.5 122.7C16.6 122.7 15.8 122.5 15 122.2C14.2 121.9 13.5 121.4 12.9 120.8C12.3 120.2 11.8 119.5 11.5 118.7C11.2 117.9 11 117.1 11 116.2V111.5H2.00001C1.70001 111.5 1.50001 111.4 1.30001 111.2C1.10001 111 1.00001 110.8 1.00001 110.5V80.1C1.00001 79.8 1.10001 79.6 1.30001 79.4C1.50001 79.2 1.70001 79.1 2.00001 79.1H14.9L0.900006 13.6C0.600006 12 0.900006 10.4 1.80001 9.1C2.70001 7.7 4.10001 6.8 5.60001 6.5C6.00001 6.4 6.50001 6.3 6.90001 6.3C8.10001 6.3 9.20001 6.6 10.2 7.3C11.6 8.2 12.5 9.5 12.8 11.1L27 79.2H101L115.2 11.1C115.4 10.3 115.7 9.6 116.1 8.9C116.5 8.2 117.1 7.7 117.8 7.2C118.5 6.8 119.2 6.5 120 6.3C120.4 6.2 120.8 6.2 121.1 6.2C121.5 6.2 121.9 6.2 122.3 6.3C123.1 6.5 123.8 6.8 124.5 7.2C125.2 7.7 125.7 8.2 126.2 8.9C126.6 9.6 126.9 10.3 127.1 11.1C127.2 11.9 127.2 12.7 127.1 13.5L113.4 79.1H126.3C126.6 79.1 126.8 79.2 127 79.4C127.2 79.6 127.3 79.8 127.3 80.1V110.5C127.3 110.8 127.2 111 127 111.2C126.8 111.4 126.6 111.5 126.3 111.5H117.3V116.2C117.3 118 116.6 119.6 115.4 120.9C114 122 112.4 122.7 110.6 122.7ZM105.9 116.1C105.9 117.3 106.4 118.5 107.3 119.4C108.2 120.3 109.4 120.8 110.6 120.8C111.8 120.8 113 120.3 113.9 119.4C114.8 118.5 115.3 117.3 115.3 116.1V111.4H105.9V116.1ZM12.7 116.1C12.7 117.3 13.2 118.5 14.1 119.4C15 120.3 16.2 120.8 17.4 120.8C18.6 120.8 19.8 120.3 20.7 119.4C21.6 118.5 22.1 117.3 22.1 116.1V111.4H12.7V116.1ZM2.70001 109.5H125.3V81.1H2.70001V109.5ZM121.1 8.2C120.3 8.2 119.5 8.4 118.8 8.9C117.9 9.5 117.2 10.4 117 11.5L103 79.2H111.5L125.3 13.2C125.5 12.1 125.3 11 124.7 10.1C124 9.2 123.1 8.5 122 8.3C121.7 8.2 121.4 8.2 121.1 8.2ZM6.90001 8.2C6.60001 8.2 6.30001 8.2 6.10001 8.3C4.90001 8.5 4.00001 9.2 3.40001 10.1C3.10001 10.6 2.90001 11.1 2.80001 11.6C2.70001 12.1 2.70001 12.7 2.80001 13.2L16.6 79.2H25L10.9 11.5C10.7 10.4 10 9.5 9.10001 8.9C8.50001 8.4 7.70001 8.2 6.90001 8.2Z" fill="#333333"/>
<path d="M110.6 122.7C108.8 122.7 107.2 122 105.9 120.8C104.7 119.6 104 117.9 104 116.1V111.5H24V116.2C24 117.1 23.8 117.9 23.5 118.7C23.2 119.5 22.7 120.2 22.1 120.8C21.5 121.4 20.8 121.9 20 122.2C19.2 122.5 18.4 122.7 17.5 122.7C16.6 122.7 15.8 122.5 15 122.2C14.2 121.9 13.5 121.4 12.9 120.8C12.3 120.2 11.8 119.5 11.5 118.7C11.2 117.9 11 117.1 11 116.2V111.5H2.00001C1.70001 111.5 1.50001 111.4 1.30001 111.2C1.10001 111 1.00001 110.8 1.00001 110.5V80.1C1.00001 79.8 1.10001 79.6 1.30001 79.4C1.50001 79.2 1.70001 79.1 2.00001 79.1H14.9L0.900006 13.6C0.600006 12 0.900006 10.4 1.80001 9.1C2.70001 7.7 4.10001 6.8 5.60001 6.5C6.00001 6.4 6.50001 6.3 6.90001 6.3C8.10001 6.3 9.20001 6.6 10.2 7.3C11.6 8.2 12.5 9.5 12.8 11.1L27 79.2H101L115.2 11.1C115.4 10.3 115.7 9.6 116.1 8.9C116.5 8.2 117.1 7.7 117.8 7.2C118.5 6.8 119.2 6.5 120 6.3C120.4 6.2 120.8 6.2 121.1 6.2C121.5 6.2 121.9 6.2 122.3 6.3C123.1 6.5 123.8 6.8 124.5 7.2C125.2 7.7 125.7 8.2 126.2 8.9C126.6 9.6 126.9 10.3 127.1 11.1C127.2 11.9 127.2 12.7 127.1 13.5L113.4 79.1H126.3C126.6 79.1 126.8 79.2 127 79.4C127.2 79.6 127.3 79.8 127.3 80.1V110.5C127.3 110.8 127.2 111 127 111.2C126.8 111.4 126.6 111.5 126.3 111.5H117.3V116.2C117.3 118 116.6 119.6 115.4 120.9C114 122 112.4 122.7 110.6 122.7ZM105.9 116.1C105.9 117.3 106.4 118.5 107.3 119.4C108.2 120.3 109.4 120.8 110.6 120.8C111.8 120.8 113 120.3 113.9 119.4C114.8 118.5 115.3 117.3 115.3 116.1V111.4H105.9V116.1ZM12.7 116.1C12.7 117.3 13.2 118.5 14.1 119.4C15 120.3 16.2 120.8 17.4 120.8C18.6 120.8 19.8 120.3 20.7 119.4C21.6 118.5 22.1 117.3 22.1 116.1V111.4H12.7V116.1ZM2.70001 109.5H125.3V81.1H2.70001V109.5ZM121.1 8.2C120.3 8.2 119.5 8.4 118.8 8.9C117.9 9.5 117.2 10.4 117 11.5L103 79.2H111.5L125.3 13.2C125.5 12.1 125.3 11 124.7 10.1C124 9.2 123.1 8.5 122 8.3C121.7 8.2 121.4 8.2 121.1 8.2ZM6.90001 8.2C6.60001 8.2 6.30001 8.2 6.10001 8.3C4.90001 8.5 4.00001 9.2 3.40001 10.1C3.10001 10.6 2.90001 11.1 2.80001 11.6C2.70001 12.1 2.70001 12.7 2.80001 13.2L16.6 79.2H25L10.9 11.5C10.7 10.4 10 9.5 9.10001 8.9C8.50001 8.4 7.70001 8.2 6.90001 8.2Z" fill="#A29999"/>
<path d="M11.8 101.4C11.5 101.4 11.3 101.3 11.1 101.1C10.9 100.9 10.8 100.7 10.8 100.4C10.8 100.1 10.9 99.9 11.1 99.7C11.3 99.5 11.5 99.4 11.8 99.4H82.9C83.2 99.4 83.4 99.5 83.6 99.7C83.8 99.9 83.9 100.1 83.9 100.4C83.9 100.7 83.8 100.9 83.6 101.1C83.4 101.3 83.2 101.4 82.9 101.4H11.8Z" fill="#333333"/>
<path d="M11.8 101.4C11.5 101.4 11.3 101.3 11.1 101.1C10.9 100.9 10.8 100.7 10.8 100.4C10.8 100.1 10.9 99.9 11.1 99.7C11.3 99.5 11.5 99.4 11.8 99.4H82.9C83.2 99.4 83.4 99.5 83.6 99.7C83.8 99.9 83.9 100.1 83.9 100.4C83.9 100.7 83.8 100.9 83.6 101.1C83.4 101.3 83.2 101.4 82.9 101.4H11.8Z" fill="#A29999"/>
<path d="M11.8 91.1C11.5 91.1 11.3 91 11.1 90.8C10.9 90.6 10.8 90.4 10.8 90.1C10.8 89.8 10.9 89.6 11.1 89.4C11.3 89.2 11.5 89.1 11.8 89.1H82.9C83.2 89.1 83.4 89.2 83.6 89.4C83.8 89.6 83.9 89.8 83.9 90.1C83.9 90.4 83.8 90.6 83.6 90.8C83.4 91 83.2 91.1 82.9 91.1H11.8Z" fill="#333333"/>
<path d="M11.8 91.1C11.5 91.1 11.3 91 11.1 90.8C10.9 90.6 10.8 90.4 10.8 90.1C10.8 89.8 10.9 89.6 11.1 89.4C11.3 89.2 11.5 89.1 11.8 89.1H82.9C83.2 89.1 83.4 89.2 83.6 89.4C83.8 89.6 83.9 89.8 83.9 90.1C83.9 90.4 83.8 90.6 83.6 90.8C83.4 91 83.2 91.1 82.9 91.1H11.8Z" fill="#A29999"/>
<path d="M98.1 101.4C96.5 101.4 94.9 100.7 93.8 99.6C92.6 98.4 92 96.9 92 95.3C92 93.7 92.6 92.1 93.8 91C95 89.9 96.5 89.2 98.1 89.2H111.1C112.7 89.2 114.3 89.8 115.4 91C116.6 92.2 117.2 93.7 117.2 95.3C117.2 96.9 116.5 98.5 115.4 99.6C114.3 100.7 112.7 101.4 111.1 101.4H98.1ZM98.1 91.1C97.5 91.1 97 91.2 96.5 91.4C96 91.6 95.5 91.9 95.1 92.3C94.7 92.7 94.4 93.2 94.2 93.7C94 94.2 93.9 94.8 93.9 95.3C93.9 95.9 94 96.4 94.2 96.9C94.4 97.4 94.7 97.9 95.1 98.3C95.5 98.7 96 99 96.5 99.2C97 99.4 97.6 99.5 98.1 99.5H111.1C112.2 99.5 113.3 99.1 114.1 98.3C114.9 97.5 115.3 96.4 115.3 95.3C115.3 94.2 114.9 93.1 114.1 92.3C113.3 91.5 112.2 91.1 111.1 91.1H98.1Z" fill="#333333"/>
<path d="M98.1 101.4C96.5 101.4 94.9 100.7 93.8 99.6C92.6 98.4 92 96.9 92 95.3C92 93.7 92.6 92.1 93.8 91C95 89.9 96.5 89.2 98.1 89.2H111.1C112.7 89.2 114.3 89.8 115.4 91C116.6 92.2 117.2 93.7 117.2 95.3C117.2 96.9 116.5 98.5 115.4 99.6C114.3 100.7 112.7 101.4 111.1 101.4H98.1ZM98.1 91.1C97.5 91.1 97 91.2 96.5 91.4C96 91.6 95.5 91.9 95.1 92.3C94.7 92.7 94.4 93.2 94.2 93.7C94 94.2 93.9 94.8 93.9 95.3C93.9 95.9 94 96.4 94.2 96.9C94.4 97.4 94.7 97.9 95.1 98.3C95.5 98.7 96 99 96.5 99.2C97 99.4 97.6 99.5 98.1 99.5H111.1C112.2 99.5 113.3 99.1 114.1 98.3C114.9 97.5 115.3 96.4 115.3 95.3C115.3 94.2 114.9 93.1 114.1 92.3C113.3 91.5 112.2 91.1 111.1 91.1H98.1Z" fill="#A29999"/>
<path d="M64 65.9C63.1 65.9 62.3 65.7 61.5 65.4C60.3 64.9 59.3 64.1 58.6 63C57.9 61.9 57.5 60.7 57.5 59.4C57.5 57.7 58.2 56.1 59.4 54.8C60.6 53.5 62.2 52.9 64 52.9C65.3 52.9 66.5 53.3 67.6 54C68.7 54.7 69.5 55.7 70 56.9C70.5 58.1 70.6 59.4 70.4 60.6C70.1 61.9 69.5 63 68.6 63.9C67.7 64.8 66.6 65.4 65.3 65.7C64.8 65.9 64.4 65.9 64 65.9ZM64 55C63.1 55 62.2 55.3 61.5 55.8C60.8 56.3 60.2 57 59.8 57.8C59.5 58.6 59.4 59.5 59.5 60.4C59.7 61.3 60.1 62.1 60.7 62.7C61.3 63.3 62.1 63.8 63 63.9C63.3 64 63.6 64 63.9 64C64.5 64 65.1 63.9 65.6 63.7C66.4 63.4 67.1 62.8 67.6 62C68.1 61.3 68.4 60.4 68.4 59.5C68.4 58.3 67.9 57.1 67.1 56.3C66.4 55.4 65.2 55 64 55Z" fill="#A29999"/>
<path d="M53.1 49.5C52.8 49.5 52.6 49.4 52.4 49.2C52.2 49 52.1 48.8 52.1 48.5C52.1 48.2 52.2 48 52.4 47.8C53.9 46.3 55.7 45.1 57.7 44.2C59.7 43.3 61.8 42.9 64 42.9C66.2 42.9 68.3 43.3 70.3 44.1C72.3 44.9 74.1 46.1 75.6 47.7C75.7 47.8 75.8 47.9 75.8 48C75.8 48.1 75.9 48.2 75.9 48.4C75.9 48.6 75.9 48.6 75.8 48.8C75.8 48.9 75.7 49 75.6 49.1C75.4 49.3 75.2 49.4 74.9 49.4C74.6 49.4 74.4 49.3 74.2 49.1C72.8 47.7 71.3 46.7 69.5 46C67.7 45.3 65.9 44.9 64 44.9C62.1 44.9 60.2 45.3 58.4 46C56.6 46.7 55 47.8 53.7 49.2C53.6 49.4 53.3 49.5 53.1 49.5Z" fill="#A29999"/>
<path d="M46 42.4C45.9 42.4 45.8 42.4 45.6 42.3C45.5 42.3 45.4 42.2 45.3 42.1C45.2 42 45.1 41.9 45.1 41.8C45.1 41.7 45 41.6 45 41.4C45 41.3 45 41.2 45.1 41C45.1 40.9 45.2 40.8 45.3 40.7C47.8 38.2 50.6 36.3 53.9 35C57.1 33.7 60.5 33 64 33C67.5 33 70.9 33.7 74.1 35C77.3 36.3 80.2 38.3 82.7 40.7C82.9 40.9 83 41.1 83 41.4C83 41.7 82.9 41.9 82.7 42.1C82.5 42.3 82.3 42.4 82 42.4C81.7 42.4 81.5 42.3 81.3 42.1C79 39.8 76.3 38 73.3 36.8C70.3 35.6 67.2 34.9 63.9 34.9C60.6 34.9 57.5 35.5 54.5 36.8C51.5 38 48.8 39.8 46.5 42.1C46.4 42.2 46.3 42.3 46.2 42.3C46.2 42.4 46.1 42.4 46 42.4Z" fill="#A29999"/>
<path d="M89.1 35.4C89 35.4 88.8 35.4 88.7 35.3C88.6 35.2 88.5 35.2 88.4 35.1C85.2 31.9 81.4 29.3 77.2 27.6C73 25.9 68.6 25 64 25C59.4 25 55 25.9 50.8 27.6C46.6 29.3 42.8 31.9 39.6 35.1C39.5 35.2 39.4 35.3 39.3 35.3C39.2 35.3 39.1 35.4 38.9 35.4C38.7 35.4 38.5 35.3 38.4 35.2C38.2 35.1 38.1 34.9 38 34.8C37.9 34.6 37.9 34.4 37.9 34.3C37.9 34.2 38 33.9 38.2 33.8C41.6 30.4 45.6 27.7 50 25.9C54.4 24.1 59.1 23.1 63.9 23.1C68.7 23.1 73.4 24 77.8 25.9C82.2 27.7 86.2 30.4 89.6 33.8C89.7 33.9 89.8 34 89.8 34.1C89.9 34.2 89.9 34.3 89.9 34.5C89.9 34.6 89.9 34.8 89.8 34.9C89.7 35 89.7 35.1 89.6 35.2C89.5 35.3 89.4 35.4 89.3 35.4C89.3 35.4 89.2 35.4 89.1 35.4Z" fill="#A29999"/>
<circle cx="63.9983" cy="59.4" r="3.5" fill="#FE000C"/>
</svg>
