<svg width="32" height="32" viewBox="0 0 32 32" fill="none" xmlns="http://www.w3.org/2000/svg">
<path d="M4.75 0V32L9.1145 27.9331L12.5417 31.1265L15.9688 27.9331L19.3958 31.1265L22.823 27.9331L27.1875 32V0H4.75Z" fill="#F4E6E2"/>
<path d="M15.9688 4.00879C14.1069 4.00879 12.5923 5.52637 12.5923 7.3916C12.5923 9.25708 14.1069 10.7744 15.9688 10.7744C17.8306 10.7744 19.3452 9.25708 19.3452 7.3916C19.3452 5.52637 17.8306 4.00879 15.9688 4.00879Z" fill="#FD935C"/>
<path d="M15.9688 4.00879V10.7744C17.8306 10.7744 19.3452 9.25684 19.3452 7.3916C19.3452 5.52637 17.8306 4.00879 15.9688 4.00879Z" fill="#FD935C"/>
<path d="M9.26172 12.4844H22.676V14.3628H9.26172V12.4844Z" fill="#99503D"/>
<path d="M15.9688 12.4844H22.6758V14.3628H15.9688V12.4844Z" fill="#99503D"/>
<path d="M9.26172 15.9062H12.4656V17.7847H9.26172V15.9062Z" fill="#99503D"/>
<path d="M9.26172 19.3281H12.4656V21.2068H9.26172V19.3281Z" fill="#99503D"/>
<path d="M14.1289 15.9062H22.6758V17.7847H14.1289V15.9062Z" fill="#99503D"/>
<path d="M15.9688 15.9062H22.6758V17.7847H15.9688V15.9062Z" fill="#99503D"/>
<path d="M14.1289 19.3281H22.6758V21.2068H14.1289V19.3281Z" fill="#99503D"/>
<path d="M15.9688 19.3281H22.6758V21.2068H15.9688V19.3281Z" fill="#99503D"/>
</svg>
