<svg width="56" height="56" viewBox="0 0 56 56" fill="none" xmlns="http://www.w3.org/2000/svg">
<path d="M18.8996 42.3002C18.4996 42.3002 18.0996 41.9002 18.0996 41.5002C18.0996 41.1002 18.4996 40.7002 18.8996 40.7002H31.4996C31.8996 40.7002 32.2996 41.1002 32.2996 41.5002C32.2996 41.9002 31.8996 42.3002 31.4996 42.3002H18.8996Z" fill="#FE000C"/>
<path d="M14.0998 47.8998C13.6998 47.8998 13.2998 47.4998 13.2998 47.0998C13.2998 46.6998 13.6998 46.2998 14.0998 46.2998H20.1998C20.5998 46.2998 20.9998 46.6998 20.9998 47.0998C20.9998 47.4998 20.5998 47.8998 20.1998 47.8998H14.0998Z" fill="#FE000C"/>
<path d="M30.0998 47.8998C29.6998 47.8998 29.2998 47.4998 29.2998 47.0998C29.2998 46.6998 29.6998 46.2998 30.0998 46.2998H36.1998C36.5998 46.2998 36.9998 46.6998 36.9998 47.0998C36.9998 47.4998 36.5998 47.8998 36.1998 47.8998H30.0998Z" fill="#FE000C"/>
<path d="M25.2004 47.8998C24.8004 47.8998 24.4004 47.4998 24.4004 47.0998C24.4004 46.6998 24.8004 46.2998 25.2004 46.2998C25.7004 46.2998 26.0004 46.6998 26.0004 47.0998C26.0004 47.4998 25.6004 47.8998 25.2004 47.8998Z" fill="#FE000C"/>
<path d="M2.8 17.8998C2.4 17.8998 2 17.4998 2 17.0998C2 16.5998 2.4 16.2998 2.8 16.2998C3.2 16.2998 3.6 16.6998 3.6 17.0998C3.6 17.5998 3.3 17.8998 2.8 17.8998Z" fill="#A29999"/>
<path d="M6.6 55.6998C4 55.6998 2 53.5998 2 51.0998V21.9998C2 21.5998 2.4 21.1998 2.8 21.1998C3.2 21.1998 3.6 21.5998 3.6 21.9998V51.0998C3.6 52.7998 5 54.0998 6.6 54.0998H43.1C44.8 54.0998 46.1 52.6998 46.1 51.0998V48.5998L32 34.4998L31.8 34.5998C29.8 35.6998 27.5 36.1998 25.2 36.1998C21.3 36.1998 17.6 34.5998 14.9 31.7998C14.8 31.6998 14.8 31.6998 14.7 31.5998C12.2 28.8998 10.8 25.3998 10.8 21.7998C10.8 13.8998 17.2 7.3998 25.2 7.3998C33.1 7.3998 39.6 13.7998 39.6 21.7998C39.6 24.0998 39 26.3998 38 28.3998L37.9 28.5998L46.2 36.8998V11.3998H40C38.8 11.3998 37.9 10.4998 37.9 9.2998V1.8998H6.6C4.9 1.8998 3.6 3.2998 3.6 4.8998V12.1998C3.6 12.5998 3.2 12.9998 2.8 12.9998C2.4 12.9998 2 12.5998 2 12.1998V4.8998C2 2.2998 4.1 0.299805 6.6 0.299805H38.7H38.8H38.9H39L39.1 0.399805L39.2 0.499805L47.5 10.0998L47.6 10.1998L47.7 10.2998V10.3998V10.4998V10.5998V38.5998L52.7 43.5998C54.6 45.4998 54 47.9998 52.6 49.4998C51.8 50.2998 50.8 50.6998 49.8 50.6998C49.2 50.6998 48.7 50.5998 48.1 50.2998L47.7 50.0998V50.9998C47.7 53.5998 45.6 55.5998 43.1 55.5998H6.6V55.6998ZM39.1 39.2998L48.1 48.2998C48.6 48.7998 49.2 49.0998 49.9 49.0998C50.5 49.0998 51.1 48.7998 51.6 48.3998C52.3 47.6998 53 46.0998 51.7 44.7998L42.7 35.7998L39.1 39.2998ZM36.7 30.3998C36.3 30.8998 35.9 31.4998 35.4 31.8998C35.3 31.9998 35.3 31.9998 35.2 32.0998C34.7 32.5998 34.2 32.9998 33.6 33.3998L33.3 33.5998L37.8 38.0998L41.3 34.5998L36.8 30.0998L36.7 30.3998ZM25 25.2998C21.3 25.2998 17.9 27.4998 16.4 30.7998L16.3 30.9998L16.5 31.0998C18.9 33.2998 22 34.5998 25.2 34.5998C27.4 34.5998 29.7 33.9998 31.6 32.8998C31.7 32.7998 31.8 32.7998 31.9 32.6998C32.6 32.2998 33.2 31.7998 33.7 31.2998L33.9 31.1998L33.8 30.9998C32.2 27.5998 28.8 25.2998 25 25.2998ZM25 12.8998C28.4 12.8998 31.2 15.6998 31.2 19.0998C31.2 20.9998 30.3 22.7998 28.9 23.9998L28.5 24.2998L29 24.4998C31.5 25.4998 33.6 27.2998 34.8 29.5998L35 29.9998L35.3 29.5998C35.6 29.2998 35.8 28.8998 36 28.5998C36.1 28.4998 36.1 28.3998 36.2 28.2998C37.4 26.2998 38 24.0998 38 21.8998C38 14.8998 32.3 9.0998 25.2 9.0998C18.2 9.0998 12.4 14.7998 12.4 21.8998C12.4 24.5998 13.2 27.1998 14.8 29.3998L15.1 29.7998L15.3 29.3998C16.1 27.9998 17.2 26.7998 18.6 25.7998C19.3 25.2998 20.2 24.7998 21 24.4998L21.5 24.2998L21.1 23.9998C19.6 22.7998 18.8 20.9998 18.8 19.0998C18.8 15.6998 21.6 12.8998 25 12.8998ZM25 14.4998C22.4 14.4998 20.4 16.5998 20.4 19.0998C20.4 21.6998 22.5 23.6998 25 23.6998C27.6 23.6998 29.6 21.5998 29.6 19.0998C29.7 16.4998 27.6 14.4998 25 14.4998ZM39.5 9.2998C39.5 9.5998 39.7 9.7998 40 9.7998H45.1L39.5 3.1998V9.2998Z" fill="#A29999"/>
</svg>
