<svg width="56" height="56" viewBox="0 0 56 56" fill="none" xmlns="http://www.w3.org/2000/svg">
<ellipse cx="18.6667" cy="37.3333" rx="3.5" ry="3.5" fill="#FE000C"/>
<path d="M34.5333 32.6667H33.5067C33.1205 32.6674 32.7751 32.4264 32.6424 32.0637C32.5285 31.7651 32.4063 31.4729 32.2747 31.1836C32.1111 30.8317 32.1858 30.4151 32.4613 30.142L33.1931 29.4093C34.2794 28.3135 34.2774 26.5462 33.1884 25.4529L30.5508 22.8153C29.4561 21.7271 27.6882 21.7271 26.5935 22.8153L25.8617 23.5461C25.588 23.8206 25.1721 23.8952 24.8201 23.7328C24.5308 23.6012 24.2387 23.4789 23.9391 23.3595C23.5745 23.2277 23.3319 22.881 23.3333 22.4933V21.4667C23.3333 19.9202 22.0798 18.6667 20.5333 18.6667H16.8C15.2536 18.6667 14 19.9202 14 21.4667V22.4933C14.0007 22.8795 13.7598 23.2249 13.3971 23.3576C13.0984 23.4715 12.8063 23.5937 12.5169 23.7253C12.165 23.8881 11.7489 23.8135 11.4753 23.5387L10.7427 22.8069C9.6481 21.7194 7.88083 21.7194 6.78627 22.8069L4.14867 25.4529C3.0604 26.5476 3.0604 28.3156 4.14867 29.4103L4.87947 30.142C5.15503 30.4151 5.2297 30.8317 5.06613 31.1836C4.93453 31.4729 4.81227 31.7651 4.69747 32.0647C4.56388 32.4295 4.21517 32.6706 3.82667 32.6667H2.8C1.25358 32.6667 0 33.9202 0 35.4667V39.2C0 40.7464 1.25358 42 2.8 42H3.82667C4.21283 41.9993 4.55828 42.2402 4.69093 42.6029C4.8048 42.9016 4.92707 43.1937 5.05867 43.4831C5.22223 43.8349 5.14757 44.2515 4.872 44.5247L4.14027 45.2573C3.0527 46.3519 3.0527 48.1192 4.14027 49.2137L6.77787 51.8513C7.87255 52.9396 9.64052 52.9396 10.7352 51.8513L11.4669 51.1205C11.7406 50.846 12.1566 50.7715 12.5085 50.9338C12.7979 51.0655 13.09 51.1877 13.3896 51.3072C13.7561 51.4374 14.0007 51.7845 14 52.1733V53.2C14 54.7464 15.2536 56 16.8 56H20.5333C22.0798 56 23.3333 54.7464 23.3333 53.2V52.1733C23.3326 51.7872 23.5736 51.4417 23.9363 51.3091C24.2349 51.1952 24.5271 51.0729 24.8164 50.9413C25.1684 50.7786 25.5844 50.8531 25.858 51.128L26.5907 51.8597C27.6868 52.9455 29.4536 52.9434 30.5471 51.855L33.1847 49.2175C34.2729 48.1228 34.2729 46.3548 33.1847 45.2601L32.4539 44.5284C32.1783 44.2553 32.1036 43.8387 32.2672 43.4868C32.3988 43.1975 32.5211 42.9053 32.6405 42.6057C32.7723 42.2411 33.119 41.9986 33.5067 42H34.5333C36.0798 42 37.3333 40.7464 37.3333 39.2V35.4667C37.3333 33.9202 36.0798 32.6667 34.5333 32.6667ZM35.4667 39.2C35.4667 39.7154 35.0488 40.1333 34.5333 40.1333H33.5067C32.3464 40.1376 31.3081 40.8548 30.8933 41.9384C30.7944 42.1997 30.6874 42.457 30.5723 42.7103C30.0924 43.7696 30.315 45.0151 31.1323 45.8425L31.8621 46.5733C32.2268 46.9376 32.2272 47.5286 31.8628 47.8933C31.8626 47.8935 31.8624 47.8938 31.8621 47.894L29.2245 50.5316C28.8601 50.8959 28.2693 50.8959 27.9048 50.5316L27.1731 49.8008C26.346 48.9828 25.1 48.7601 24.0408 49.2408C23.7879 49.3556 23.5303 49.4629 23.2708 49.5619C22.188 49.9765 21.4713 51.0139 21.4667 52.1733V53.2C21.4667 53.7154 21.0488 54.1333 20.5333 54.1333H16.8C16.2846 54.1333 15.8667 53.7154 15.8667 53.2V52.1733C15.8624 51.0131 15.1452 49.9747 14.0616 49.56C13.8003 49.4611 13.543 49.3541 13.2897 49.2389C12.2304 48.7593 10.985 48.982 10.1575 49.7989L9.42667 50.5288C9.06243 50.8935 8.4714 50.8938 8.1067 50.5295C8.10647 50.5293 8.10623 50.529 8.106 50.5288L5.4684 47.894C5.10405 47.5295 5.10405 46.9387 5.4684 46.5743L6.1992 45.8425C7.01645 45.0151 7.23905 43.7696 6.7592 42.7103C6.6444 42.4573 6.53707 42.1997 6.43813 41.9403C6.02443 40.8563 4.9868 40.1385 3.82667 40.1333H2.8C2.28457 40.1333 1.86667 39.7154 1.86667 39.2V35.4667C1.86667 34.9512 2.28457 34.5333 2.8 34.5333H3.82667C4.98692 34.529 6.02525 33.8119 6.44 32.7283C6.53893 32.4669 6.64592 32.2097 6.76107 31.9564C7.24092 30.8971 7.0182 29.6515 6.20107 28.8241L5.46747 28.0933C5.10277 27.7291 5.10242 27.1381 5.46677 26.7734C5.467 26.7731 5.46723 26.7729 5.46747 26.7727L8.10507 24.1351C8.46953 23.7707 9.06033 23.7707 9.4248 24.1351L10.1565 24.8659C10.9836 25.6838 12.2296 25.9065 13.2888 25.4259C13.5417 25.3111 13.7993 25.2037 14.0588 25.1048C15.1431 24.6914 15.8614 23.6537 15.8667 22.4933V21.4667C15.8667 20.9512 16.2846 20.5333 16.8 20.5333H20.5333C21.0488 20.5333 21.4667 20.9512 21.4667 21.4667V22.4933C21.471 23.6536 22.1881 24.6919 23.2717 25.1067C23.5331 25.2056 23.7903 25.3126 24.0436 25.4277C25.1028 25.9084 26.3488 25.6857 27.1759 24.8677L27.9067 24.1379C28.2725 23.776 28.8615 23.776 29.2273 24.1379L31.8649 26.7755C32.2293 27.1399 32.2293 27.7307 31.8649 28.0952L31.1341 28.8269C30.317 29.6543 30.0943 30.8999 30.5741 31.9592C30.6889 32.2121 30.7963 32.4697 30.8952 32.7292C31.3098 33.812 32.3472 34.5287 33.5067 34.5333H34.5333C35.0488 34.5333 35.4667 34.9512 35.4667 35.4667V39.2Z" fill="#A29999"/>
<path d="M27.048 36.96C27.0387 36.736 27.0228 36.5129 26.9957 36.2908C26.9659 36.0519 26.9304 35.8148 26.8809 35.5824C26.8483 35.4303 26.8053 35.28 26.7643 35.1288C26.712 34.9365 26.6532 34.7471 26.5879 34.5604C26.5421 34.4307 26.4945 34.3019 26.446 34.174C26.3258 33.8751 26.1884 33.5833 26.0344 33.3004C26.0223 33.2789 26.0148 33.2556 26.0027 33.2341C25.7599 32.802 25.4787 32.3924 25.1627 32.0105C25.1356 31.9769 25.1048 31.9452 25.0768 31.9125C24.948 31.7604 24.8155 31.6129 24.6764 31.472C24.6036 31.3964 24.5271 31.3255 24.4505 31.2527C24.3572 31.1659 24.2639 31.08 24.1705 30.9979C24.0572 30.8995 23.9419 30.8043 23.8243 30.7123L23.6712 30.5984C22.227 29.5167 20.471 28.9324 18.6667 28.9333C18.5733 28.9333 18.48 28.9473 18.3867 28.9511C18.1879 28.9567 17.9881 28.9679 17.7875 28.9884C17.682 28.9996 17.5756 29.0117 17.4701 29.0267C17.1659 29.0667 16.8639 29.1231 16.5657 29.1956C12.0716 30.3569 9.36985 34.9417 10.5311 39.4358C11.2965 42.3972 13.6102 44.7091 16.5723 45.472C16.5872 45.472 16.6031 45.4767 16.6189 45.4804C16.9413 45.5608 17.2678 45.6232 17.5971 45.6671C17.8145 45.6941 18.032 45.6997 18.2504 45.71C18.396 45.7175 18.5304 45.7389 18.6825 45.7389C18.9485 45.7389 19.2248 45.7212 19.5067 45.6932C19.5365 45.6932 19.5664 45.6848 19.6 45.6811C19.8268 45.6559 20.0564 45.6223 20.2907 45.5756C20.384 45.5579 20.4708 45.5345 20.5604 45.514C20.7247 45.4757 20.888 45.4356 21.056 45.3861C21.1867 45.3469 21.3136 45.3012 21.4415 45.2564C21.5693 45.2116 21.7019 45.1631 21.8344 45.1127C21.9669 45.0623 22.078 45.0044 22.1984 44.9484C22.3552 44.8765 22.5111 44.8056 22.6651 44.7216H22.6707C23.5417 44.2553 24.3462 43.6743 25.0628 42.994C25.2563 42.8134 25.4247 42.6074 25.5631 42.3817C26.2915 41.2139 26.7701 39.9078 26.9687 38.5457C26.9948 38.3656 27.0181 38.1855 27.0321 38.0016C27.0452 37.8327 27.0545 37.6647 27.0583 37.4967C27.0583 37.4435 27.0657 37.3931 27.0657 37.3399C27.0667 37.2083 27.0536 37.0869 27.048 36.96ZM25.1879 37.5713C25.1879 37.6488 25.1813 37.7263 25.1767 37.8028C25.1599 38.0287 25.1309 38.2545 25.0927 38.4813C24.7438 40.4218 23.539 42.1018 21.8129 43.0547C21.6972 43.1153 21.5833 43.1723 21.4695 43.2245L21.392 43.2619C20.8497 43.508 20.2774 43.6813 19.6896 43.7771C19.6485 43.7836 19.6065 43.7911 19.5645 43.7967C19.4479 43.8135 19.3331 43.8275 19.2192 43.8377C19.0689 43.8508 18.9177 43.8583 18.7637 43.8611C18.6984 43.8611 18.634 43.8611 18.5687 43.8611C18.3478 43.8585 18.1273 43.8448 17.9079 43.82L17.7959 43.8069C17.5392 43.7733 17.2846 43.7254 17.0333 43.6632C13.5378 42.7685 11.4294 39.2094 12.324 35.7139C12.9151 33.4041 14.7176 31.5997 17.0268 31.0063V31.0053C17.563 30.8701 18.1137 30.801 18.6667 30.8C18.9335 30.8015 19.2001 30.8196 19.4647 30.8541C19.5356 30.8625 19.6056 30.8756 19.6756 30.8859C19.8772 30.9176 20.0769 30.9577 20.2739 31.0081C20.3383 31.0249 20.4027 31.0399 20.4661 31.0576C20.9624 31.2009 21.4402 31.402 21.8895 31.6568C21.9613 31.6988 22.0313 31.7427 22.1023 31.7865C22.2497 31.8799 22.3925 31.9732 22.5335 32.0796C22.6091 32.1347 22.6856 32.1888 22.7584 32.2476C22.9416 32.3939 23.1169 32.5496 23.2839 32.7143C23.3501 32.7815 23.4108 32.8552 23.4752 32.9252C23.5825 33.0419 23.6871 33.1613 23.7869 33.2873C23.856 33.3741 23.9223 33.4637 23.9876 33.5543C24.0809 33.6887 24.1743 33.8287 24.2583 33.9705C24.3049 34.048 24.3516 34.1236 24.3992 34.2029C24.5196 34.4245 24.6268 34.6529 24.7203 34.8871C24.7576 34.9804 24.7893 35.0737 24.8229 35.1671C24.8836 35.3388 24.9359 35.5124 24.9816 35.6879C25.0049 35.7812 25.0311 35.8643 25.0507 35.9548C25.1051 36.207 25.1447 36.4623 25.1692 36.7192C25.1748 36.7873 25.1748 36.8564 25.1795 36.9245C25.1925 37.1392 25.1963 37.3548 25.1879 37.5713Z" fill="#A29999"/>
<path d="M53.2 19.6H50.2647C49.8732 19.604 49.5231 19.3575 49.3948 18.9877C49.1053 18.1208 48.7551 17.2752 48.3467 16.4575C48.1733 16.1043 48.2455 15.6798 48.5259 15.4037L50.6072 13.3196C51.6997 12.2263 51.6997 10.4546 50.6072 9.36133L46.6387 5.39933C45.5454 4.30687 43.7737 4.30687 42.6804 5.39933L40.6 7.4788C40.3243 7.75903 39.9003 7.8316 39.5472 7.65893C38.7294 7.24838 37.8835 6.89628 37.016 6.6052C36.6448 6.47815 36.3965 6.12768 36.4 5.73533V2.8C36.4 1.25358 35.1464 0 33.6 0H28C26.4536 0 25.2 1.25358 25.2 2.8V5.73533C25.204 6.12675 24.9576 6.47687 24.5877 6.6052C23.7207 6.89617 22.8751 7.24803 22.0575 7.658C21.7043 7.83195 21.2795 7.75973 21.0037 7.4788L18.9196 5.39747C17.825 4.30815 16.0559 4.30815 14.9613 5.39747L11.0003 9.35853C9.90722 10.4519 9.90722 12.2243 11.0003 13.3177L14.0607 16.3837C14.4309 16.7424 15.0218 16.733 15.3804 16.3627C15.7303 16.0015 15.7311 15.428 15.3823 15.0659L12.32 12.0008C11.9557 11.6363 11.9557 11.0455 12.32 10.6811L16.2811 6.72C16.6455 6.35565 17.2363 6.35565 17.6008 6.72L19.6859 8.80133C20.5295 9.64997 21.8221 9.86207 22.8928 9.32773C23.6321 8.95755 24.3965 8.63975 25.1804 8.37667C26.3118 7.99365 27.0716 6.92988 27.0667 5.73533V2.8C27.0667 2.28457 27.4846 1.86667 28 1.86667H33.6C34.1154 1.86667 34.5333 2.28457 34.5333 2.8V5.73533C34.5285 6.92965 35.2883 7.99307 36.4196 8.37573C37.2038 8.63893 37.9686 8.95697 38.7081 9.32773C39.779 9.85927 41.0699 9.64693 41.9141 8.8004L43.9992 6.72C44.3637 6.35565 44.9545 6.35565 45.3189 6.72L49.28 10.682C49.6438 11.0464 49.6438 11.6365 49.28 12.0008L47.1987 14.0859C46.3508 14.93 46.1389 16.222 46.6723 17.2928C47.0424 18.0321 47.3602 18.7965 47.6233 19.5804C48.0061 20.7121 49.07 21.4718 50.2647 21.4667H53.2C53.7154 21.4667 54.1333 21.8846 54.1333 22.4V28C54.1333 28.5154 53.7154 28.9333 53.2 28.9333H50.2647C49.0703 28.9286 48.0069 29.6883 47.6243 30.8196C47.3612 31.6038 47.043 32.3686 46.6723 33.1081C46.1398 34.1789 46.3522 35.4703 47.1996 36.3141L49.2809 38.3992C49.6453 38.7637 49.6453 39.3545 49.2809 39.7189L45.318 43.68C44.9536 44.0438 44.3635 44.0438 43.9992 43.68L40.9323 40.6196C40.5736 40.2493 39.9827 40.24 39.6125 40.5986C39.2422 40.9572 39.2329 41.5482 39.5915 41.9183C39.599 41.926 39.6067 41.9337 39.6144 41.9412L42.6804 45.0016C43.7737 46.0941 45.5454 46.0941 46.6387 45.0016L50.5997 41.0415C51.6928 39.9481 51.6928 38.1757 50.5997 37.0823L48.5212 35C48.2412 34.7242 48.1687 34.3004 48.3411 33.9472C48.7516 33.1294 49.1037 32.2835 49.3948 31.416C49.5218 31.0448 49.8723 30.7965 50.2647 30.8H53.2C54.7464 30.8 56 29.5464 56 28V22.4C56 20.8536 54.7464 19.6 53.2 19.6Z" fill="#A29999"/>
<path d="M39.3792 16.6208C34.6381 11.8896 26.9619 11.8896 22.2208 16.6208C21.8628 16.9916 21.873 17.5825 22.2438 17.9405C22.6055 18.2898 23.1789 18.2898 23.5405 17.9405C27.523 13.9043 34.0233 13.8608 38.0595 17.8432C42.0957 21.8257 42.1392 28.326 38.1568 32.3622C38.1246 32.3948 38.0921 32.4273 38.0595 32.4595C37.6887 32.8176 37.6784 33.4084 38.0366 33.7792C38.3948 34.15 38.9856 34.1602 39.3563 33.8021C39.364 33.7946 39.3717 33.7869 39.3792 33.7792C44.1104 29.0381 44.1104 21.3619 39.3792 16.6208Z" fill="#A29999"/>
</svg>
