<svg width="56" height="56" viewBox="0 0 56 56" fill="none" xmlns="http://www.w3.org/2000/svg">
<g clip-path="url(#clip0)">
<path d="M48.0127 45.0316C46.416 45.0316 45.117 46.3306 45.117 47.9273C45.117 49.524 46.4159 50.8229 48.0127 50.8229C49.6093 50.8229 50.9083 49.524 50.9083 47.9273C50.9083 46.3307 49.6093 45.0316 48.0127 45.0316ZM48.0126 49.1068C47.3622 49.1068 46.8331 48.5777 46.8331 47.9273C46.8331 47.277 47.3622 46.7478 48.0126 46.7478C48.6629 46.7478 49.1921 47.277 49.1921 47.9273C49.1921 48.5777 48.6629 49.1068 48.0126 49.1068Z" fill="#A29999"/>
<path d="M55.8144 47.7772C55.7597 45.6572 54.8624 43.7072 53.2876 42.2868L36.0116 26.7047L51.2867 11.4296C51.3871 11.3996 51.4863 11.3623 51.582 11.3118L54.8899 9.56593C55.3468 9.32464 55.6533 8.89305 55.7304 8.38216C55.8076 7.87116 55.6424 7.36847 55.2769 7.00272L51.5525 3.2784C51.187 2.91297 50.6846 2.74771 50.1732 2.82493C49.6623 2.90204 49.2308 3.2085 48.9894 3.66558L47.2435 6.97319C47.1925 7.06977 47.1533 7.16963 47.1232 7.27102L39.9132 14.481C39.5781 14.8163 39.5781 15.3594 39.9132 15.6946C40.2485 16.0296 40.7916 16.0296 41.1269 15.6946L47.7432 9.07822L49.4771 10.8121L32.5568 27.7325L30.8229 25.9985L38.2084 18.6131C38.5435 18.2779 38.5435 17.7347 38.2084 17.3995C37.8732 17.0646 37.33 17.0646 36.9948 17.3995L31.6361 22.7582L25.804 17.4979C27.4575 12.7383 26.2601 7.44296 22.6731 3.85611C18.9991 0.182098 13.4875 -0.988761 8.63145 0.873567C8.36009 0.977692 8.15983 1.21197 8.09945 1.49624C8.03908 1.7805 8.12647 2.07604 8.33198 2.28155L15.0686 9.01829C15.2679 9.21757 15.3778 9.48258 15.3778 9.76444C15.3778 10.0463 15.268 10.3113 15.0686 10.5107L10.6937 14.8856C10.4944 15.085 10.2294 15.1948 9.94756 15.1948C9.6657 15.1948 9.40069 15.0851 9.2013 14.8856L2.46456 8.14886C2.25894 7.94335 1.96362 7.85596 1.67925 7.91633C1.39498 7.97682 1.1607 8.17697 1.05658 8.44833C-0.805751 13.3041 0.365109 18.8158 4.03923 22.49C7.53825 25.9889 12.731 27.2208 17.4157 25.7072L21.9249 30.6381C21.7082 31.0615 21.4265 31.4564 21.079 31.8038C19.7792 33.1036 17.8311 33.5131 16.1155 32.8473C15.7985 32.7239 15.4387 32.7998 15.1981 33.0403L4.69166 43.5468C1.84747 46.3911 1.84747 51.0189 4.69166 53.863C6.06967 55.2413 7.90159 56 9.85011 56C11.7985 56 13.6305 55.2413 15.0083 53.8635L25.5148 43.3571C25.7552 43.1166 25.831 42.7568 25.7078 42.4397C25.0419 40.7242 25.4514 38.7759 26.7511 37.4761C28.0511 36.1763 29.9993 35.7668 31.7147 36.4327C32.032 36.5561 32.3915 36.4799 32.6322 36.2396L34.614 34.2578C35.2108 33.661 35.5393 32.8675 35.5393 32.0237C35.5393 31.1798 35.2108 30.3863 34.614 29.7896L33.7704 28.946L34.7967 27.9197L52.1383 43.5611C53.3602 44.6633 54.0566 46.1764 54.099 47.8214C54.1413 49.4664 53.5238 51.0133 52.3601 52.1768C51.2021 53.3351 49.6591 53.9515 48.0249 53.9162C46.3875 53.8796 44.877 53.1939 43.7718 51.9852L30.8777 37.8851C30.5575 37.5352 30.015 37.5111 29.6654 37.8309C29.3157 38.1509 29.2914 38.6936 29.6112 39.0433L42.5052 53.1433C43.9297 54.7009 45.8764 55.5847 47.9865 55.6318C48.0456 55.6331 48.1046 55.6338 48.1635 55.6338C50.2075 55.6338 52.1228 54.8409 53.5736 53.3903C55.0732 51.8907 55.8689 49.8972 55.8144 47.7772ZM48.7976 7.70546L50.4403 4.5933L53.962 8.11507L50.8499 9.75777L48.7976 7.70546ZM18.3011 24.1324C18.0648 23.8743 17.6958 23.7852 17.3679 23.9075C13.1719 25.4727 8.41609 24.4399 5.25264 21.2768C2.38023 18.4043 1.26723 14.24 2.248 10.3596L7.98767 16.0992C8.51125 16.6227 9.2072 16.9109 9.94745 16.9109C10.6877 16.9109 11.3837 16.6227 11.9071 16.0992L16.282 11.7243C16.8055 11.2008 17.0937 10.5048 17.0937 9.76455C17.0937 9.0243 16.8055 8.32835 16.282 7.80488L10.5425 2.06499C14.4225 1.08379 18.5873 2.19711 21.4596 5.06963C24.7036 8.31336 25.7004 13.1637 23.9995 17.4266C23.8664 17.7601 23.955 18.1413 24.2218 18.3818L30.421 23.9732L29.6093 24.785L28.7656 23.9414C28.1689 23.3447 27.3754 23.0161 26.5315 23.0161C25.6877 23.0161 24.8942 23.3447 24.2975 23.9414L22.3156 25.9233C22.0752 26.1638 21.9994 26.5236 22.1225 26.8407C22.3508 27.4286 22.4498 28.0435 22.4328 28.6507L18.3011 24.1324ZM33.4003 33.0443L31.7945 34.6502C29.586 34.0135 27.1828 34.6175 25.5377 36.2625H25.5375C23.8925 37.9076 23.2885 40.3105 23.9254 42.5194L13.7948 52.6497C12.7411 53.7034 11.3402 54.2838 9.85022 54.2838C8.3602 54.2838 6.95911 53.7034 5.90561 52.6497C3.73047 50.4747 3.73047 46.9355 5.90561 44.7604L16.036 34.63C18.2447 35.267 20.6476 34.6626 22.2928 33.0176C23.9378 31.3725 24.542 28.9696 23.9051 26.7608L25.5111 25.1549C26.0737 24.5921 26.9895 24.5921 27.5521 25.1549L29.0025 26.6053L31.9499 29.5527L33.4003 31.0031C33.9631 31.5659 33.9631 32.4816 33.4003 33.0443Z" fill="#A29999"/>
<path d="M17.7544 37.871C17.4192 37.5359 16.876 37.5359 16.5408 37.871L8.41225 45.9995C8.07712 46.3347 8.07712 46.8779 8.41225 47.2131C8.57981 47.3806 8.79954 47.4644 9.01906 47.4644C9.23858 47.4644 9.45831 47.3806 9.62587 47.2131L17.7544 39.0846C18.0894 38.7493 18.0894 38.2061 17.7544 37.871Z" fill="#A29999"/>
<path d="M20.7577 40.8743C20.4226 40.5393 19.8793 40.5393 19.5441 40.8743L11.4156 49.0027C11.0805 49.338 11.0805 49.8811 11.4156 50.2164C11.5832 50.3838 11.8028 50.4676 12.0224 50.4676C12.2419 50.4676 12.4617 50.3838 12.6292 50.2164L20.7577 42.0879C21.0929 41.7527 21.0929 41.2095 20.7577 40.8743Z" fill="#A29999"/>
<circle cx="47.5" cy="47.5" r="3.5" fill="#FE000C"/>
</g>
<defs>
<clipPath id="clip0">
<rect width="56" height="56" fill="white"/>
</clipPath>
</defs>
</svg>
