<svg width="56" height="56" viewBox="0 0 56 56" fill="none" xmlns="http://www.w3.org/2000/svg">
<g clip-path="url(#clip0)">
<path d="M28.0298 25.4033C26.9988 25.4033 26.1631 26.2391 26.1631 27.27C26.163 28.0154 26.601 28.6569 27.2327 28.9561V31.2253C27.2327 31.6655 27.5894 32.0224 28.0297 32.0224C28.4699 32.0224 28.8267 31.6656 28.8267 31.2253V28.9561C29.4585 28.6569 29.8965 28.0154 29.8965 27.27C29.8965 26.2391 29.0608 25.4033 28.0298 25.4033Z" fill="#FE000C"/>
<path d="M47.9219 12.157C44.4909 10.7994 41.7677 8.29883 40.2538 5.11623C39.8421 4.25075 38.9523 3.69141 37.9866 3.69141H18.0145C17.0489 3.69141 16.1591 4.25064 15.7474 5.11623C14.2336 8.29883 11.5103 10.7994 8.0793 12.157C7.11691 12.5378 6.49512 13.4552 6.49512 14.4942V19.3517C6.49512 25.7194 8.35198 32.0097 11.865 37.5428C15.4121 43.13 20.5521 47.7993 26.7288 51.0458L26.8295 51.0987C27.1962 51.2914 27.5984 51.3878 28.0006 51.3878C28.4027 51.3878 28.805 51.2914 29.1715 51.0988L29.2725 51.0458C35.4493 47.7992 40.5892 43.13 44.1364 37.5428C47.6493 32.0096 49.5062 25.7193 49.5062 19.3517V14.4942C49.5062 13.4551 48.8842 12.5378 47.9219 12.157ZM47.9123 19.3518C47.9123 25.4163 46.1413 31.4112 42.7908 36.6885C39.3926 42.0409 34.4615 46.5177 28.5311 49.6349L28.4302 49.6879C28.1612 49.8294 27.8401 49.8293 27.571 49.6879L27.4704 49.635C21.5398 46.5178 16.6087 42.041 13.2104 36.6885C9.85993 31.4113 8.08893 25.4163 8.08893 19.3517V14.4942C8.08893 14.1134 8.31534 13.7778 8.66566 13.6392C12.473 12.1326 15.4991 9.34894 17.1866 5.80092C17.3355 5.48778 17.6604 5.28544 18.0144 5.28544H37.9867C38.3406 5.28544 38.6655 5.48778 38.8144 5.80092C40.5021 9.34894 43.5283 12.1326 47.3355 13.6393C47.6859 13.7779 47.9123 14.1135 47.9123 14.4943V19.3518Z" fill="#A29999"/>
<path d="M51.9159 26.9155C51.4866 26.8183 51.0598 27.0877 50.9629 27.5171C48.5356 38.2552 41.1432 47.5677 30.6808 53.0668L28.2495 54.3447C28.0926 54.4272 27.9051 54.4272 27.7482 54.3447L25.3169 53.0668C14.8381 47.5591 7.44192 38.2305 5.02484 27.473C4.92848 27.0436 4.50192 26.7736 4.07262 26.8702C3.64321 26.9666 3.37328 27.393 3.46974 27.8224C5.98931 39.0367 13.682 48.7522 24.5753 54.4776L27.0066 55.7556C27.3173 55.9187 27.658 56.0004 27.9988 56.0004C28.3395 56.0004 28.6805 55.9187 28.9911 55.7554L31.4224 54.4775C42.2985 48.761 49.9874 39.0624 52.5177 27.8684C52.6146 27.4391 52.3452 27.0125 51.9159 26.9155Z" fill="#A29999"/>
<path d="M51.5279 9.11936C47.2723 8.67037 43.926 5.68323 43.3904 1.85533C43.2424 0.797562 42.3334 0 41.276 0H14.7215C13.6642 0 12.7551 0.797562 12.6072 1.85533C12.0714 5.68334 8.72522 8.67037 4.46966 9.11936C3.39133 9.23311 2.57812 10.1441 2.57812 11.2383V19.7962C2.57812 21.0398 2.64255 22.2971 2.76964 23.5332C2.81186 23.9434 3.15792 24.2488 3.56152 24.2488C3.58875 24.2488 3.61631 24.2473 3.64398 24.2445C4.08181 24.1995 4.40031 23.8081 4.35525 23.3703C4.23373 22.188 4.17205 20.9856 4.17205 19.7962V11.2383C4.17205 10.9665 4.37625 10.7319 4.63689 10.7044C9.62177 10.1785 13.5483 6.63042 14.1858 2.07616C14.2249 1.7967 14.4501 1.59392 14.7215 1.59392H41.2759C41.5472 1.59392 41.7727 1.7967 41.8117 2.07616C42.4489 6.63042 46.3756 10.1784 51.3605 10.7044C51.6211 10.7319 51.8253 10.9665 51.8253 11.2383V19.7962C51.8253 20.973 51.7649 22.163 51.6459 23.3334C51.6014 23.7712 51.9204 24.1624 52.3582 24.2069C52.7958 24.2517 53.1871 23.9325 53.2318 23.4946C53.3562 22.2709 53.4192 21.0267 53.4192 19.7962V11.2383C53.4193 10.1441 52.6063 9.23311 51.5279 9.11936Z" fill="#A29999"/>
<path d="M37.1296 19.8914H35.8192V16.0871C35.8192 11.7931 32.3258 8.2998 28.0318 8.2998C23.7378 8.2998 20.2444 11.7931 20.2444 16.0871V19.8914H18.9341C17.5365 19.8914 16.3994 21.0284 16.3994 22.426V33.837C16.3994 35.2346 17.5365 36.3717 18.9341 36.3717H37.1296C38.5272 36.3717 39.6642 35.2346 39.6642 33.837V22.426C39.6642 21.0284 38.5272 19.8914 37.1296 19.8914ZM21.8384 16.0872C21.8384 12.6722 24.6168 9.89384 28.0319 9.89384C31.447 9.89384 34.2254 12.6722 34.2254 16.0872V19.8915H21.8384V16.0872ZM38.0703 33.837C38.0703 34.3557 37.6482 34.7777 37.1296 34.7777H18.9341C18.4153 34.7777 17.9933 34.3557 17.9933 33.837V22.426C17.9933 21.9074 18.4154 21.4853 18.9341 21.4853H37.1296C37.6482 21.4853 38.0703 21.9073 38.0703 22.426V33.837Z" fill="#FE000C"/>
</g>
<defs>
<clipPath id="clip0">
<rect width="56" height="56" fill="white"/>
</clipPath>
</defs>
</svg>
