<svg width="56" height="56" viewBox="0 0 56 56" fill="none" xmlns="http://www.w3.org/2000/svg">
<path d="M3.49961 28.8996C2.99961 28.8996 2.59961 28.4996 2.59961 27.9996C2.59961 27.4996 2.99961 27.0996 3.49961 27.0996H38.4996C38.9996 27.0996 39.3996 27.4996 39.3996 27.9996C39.3996 28.4996 38.9996 28.8996 38.4996 28.8996H3.49961Z" fill="#FE000C"/>
<path d="M29.1998 38.1998C28.9998 38.1998 28.7998 38.0998 28.5998 37.8998C28.3998 37.6998 28.2998 37.4998 28.2998 37.2998C28.2998 37.0998 28.3998 36.8998 28.5998 36.6998L37.2998 27.9998L28.5998 19.2998C28.2998 18.9998 28.2998 18.3998 28.5998 18.0998C28.7998 17.8998 28.9998 17.7998 29.1998 17.7998C29.3998 17.7998 29.5998 17.8998 29.7998 18.0998L39.0998 27.3998C39.3998 27.6998 39.3998 28.2998 39.0998 28.5998L29.7998 37.8998C29.5998 38.0998 29.3998 38.1998 29.1998 38.1998Z" fill="#FE000C"/>
<path d="M30.2996 53.3996C19.5996 53.3996 9.9996 46.5996 6.3996 36.4996C6.1996 35.9996 6.4996 35.5996 6.8996 35.3996C6.9996 35.3996 7.0996 35.3996 7.1996 35.3996C7.5996 35.3996 7.8996 35.5996 7.9996 35.9996C11.2996 45.3996 20.2996 51.7996 30.2996 51.7996C43.3996 51.5996 53.9996 40.9996 53.9996 27.9996C53.9996 14.9996 43.3996 4.39961 30.2996 4.39961C20.2996 4.39961 11.2996 10.6996 7.9996 20.1996C7.8996 20.4996 7.4996 20.7996 7.1996 20.7996C7.0996 20.7996 6.9996 20.7996 6.8996 20.7996C6.4996 20.5996 6.1996 20.0996 6.3996 19.6996C9.9996 9.39961 19.5996 2.59961 30.2996 2.59961C44.2996 2.59961 55.6996 13.9996 55.6996 27.9996C55.6996 41.9996 44.2996 53.3996 30.2996 53.3996Z" fill="#A29999"/>
</svg>
