<svg width="56" height="56" viewBox="0 0 56 56" fill="none" xmlns="http://www.w3.org/2000/svg">
<path d="M5.90197 17.5C5.4902 20.3 4.66667 26.32 4.66667 28H15.75L13.9314 17.5H5.90197Z" fill="#FE000C"/>
<path d="M53.5784 47.0527H49.7108C49.4853 41.7499 46.5429 37.1391 42.243 34.5791L43.8889 30.0792C44.045 29.6525 43.8256 29.18 43.3988 29.0239C42.9722 28.8676 42.4996 29.0871 42.3435 29.5139L40.7727 33.8082C40.1128 33.507 39.4276 33.2521 38.7217 33.0463L45.0017 15.8775C45.1387 15.5028 45.1361 15.0912 44.9943 14.7182L44.3588 13.0403L44.8621 11.6644C44.8645 11.6579 44.8713 11.6547 44.8781 11.657L49.874 13.4844C49.8795 13.4865 49.8833 13.4949 49.8814 13.5004L49.3724 14.8829L47.8098 15.7485C47.4608 15.9419 47.1933 16.2546 47.0562 16.6293L43.5489 26.218C43.3928 26.6447 43.6122 27.1172 44.0389 27.2733C44.4655 27.4295 44.9382 27.21 45.0943 26.7833L48.6072 17.1879L50.1698 16.3224C50.5187 16.1291 50.7865 15.8163 50.9234 15.4416L51.4266 14.0657C51.5788 13.6498 51.5598 13.1995 51.3733 12.7979C51.33 12.7045 51.278 12.617 51.2197 12.5348L54.0861 7.72667C54.5067 7.02127 54.5903 6.17271 54.3154 5.39875C54.0406 4.62479 53.4405 4.019 52.669 3.73695L49.0316 2.40646C48.2603 2.1243 47.4109 2.19978 46.7016 2.6138C45.9921 3.02772 45.5085 3.72982 45.3746 4.54021L44.4621 10.0639C43.9512 10.1957 43.5109 10.5674 43.3164 11.0992L42.8132 12.4751C42.6761 12.8499 42.6788 13.2615 42.8207 13.6343L43.456 15.3124L37.107 32.6702C36.2455 32.5187 35.3596 32.4393 34.4553 32.4393C32.2146 32.4393 30.0829 32.8567 28.1194 33.68C27.7003 33.8558 27.503 34.3379 27.6787 34.7569C27.8543 35.176 28.3365 35.3734 28.7555 35.1976C30.5166 34.4593 32.4342 34.0848 34.4553 34.0848C41.7479 34.0848 47.7201 39.844 48.0638 47.0529H42.0266C41.6925 43.1678 38.4255 40.1078 34.4553 40.1078C30.4851 40.1078 27.2181 43.1678 26.884 47.0529H20.8449C21.0112 42.8164 22.7895 39.209 25.8973 36.8433C26.2589 36.5681 26.3289 36.0519 26.0536 35.6904C25.7783 35.3287 25.2621 35.2587 24.9006 35.534C21.3759 38.217 19.3672 42.2892 19.1982 47.053H13.0184V33.291H16.5596C17.6517 33.291 18.5402 32.4025 18.5402 31.3104V29.6729C18.5402 28.6963 17.829 27.8846 16.8978 27.7233L15.7788 19.6902C15.5154 17.7985 13.8764 16.372 11.9664 16.372H8.40926C6.4992 16.372 4.86022 17.7985 4.59682 19.6902L4.28548 21.9255C4.22273 22.3756 4.53681 22.7912 4.98693 22.8539C5.43715 22.9164 5.85271 22.6024 5.91535 22.1524L6.22669 19.9172C6.37754 18.8342 7.31584 18.0176 8.40937 18.0176H11.9669C13.0603 18.0176 13.9987 18.8342 14.1495 19.9172L15.2325 27.6923H5.14359L5.43123 25.627C5.49387 25.1769 5.1799 24.7612 4.72978 24.6986C4.27967 24.6357 3.864 24.9499 3.80136 25.4L3.47773 27.7234C2.54645 27.8846 1.83535 28.6963 1.83535 29.673V31.3105C1.83535 32.4026 2.72384 33.2911 3.81595 33.2911H7.35719V47.0529H2.42161C1.08629 47.0527 0 48.139 0 49.4744V51.3402C0 52.6754 1.08629 53.7618 2.42161 53.7618H53.5784C54.9137 53.7618 56 52.6755 56 51.3402V49.4744C56 48.139 54.9137 47.0527 53.5784 47.0527ZM46.9985 4.80832C47.0523 4.48305 47.2464 4.20111 47.5312 4.03502C47.816 3.86893 48.1569 3.83843 48.4665 3.95175L52.104 5.28224C52.4137 5.39557 52.6546 5.63878 52.7649 5.94946C52.8753 6.26026 52.8417 6.60089 52.6729 6.88403L49.799 11.7048L46.0836 10.3457L46.9985 4.80832ZM34.4556 41.7533C37.5179 41.7533 40.0467 44.0765 40.3746 47.0527H28.5367C28.8646 44.0765 31.3935 41.7533 34.4556 41.7533ZM3.48091 31.3104V29.6729C3.48091 29.4881 3.63121 29.3378 3.81595 29.3378H16.5599C16.7447 29.3378 16.895 29.4881 16.895 29.6729V31.3104C16.895 31.4952 16.7447 31.6455 16.5599 31.6455H3.81595C3.63121 31.6455 3.48091 31.4952 3.48091 31.3104ZM9.00276 33.291H11.3731V47.0527H9.00276V33.291ZM54.3544 51.3402C54.3544 51.768 54.0063 52.1162 53.5784 52.1162H2.42161C1.99365 52.1162 1.64556 51.7682 1.64556 51.3402V49.4744C1.64556 49.0465 1.99365 48.6983 2.42161 48.6983H53.5784C54.0063 48.6983 54.3544 49.0464 54.3544 49.4744V51.3402Z" fill="#A29999"/>
<path d="M0.37354 17.5464L1.46082 18.3165C1.60519 18.4189 1.77128 18.4679 1.93573 18.4679C2.19353 18.4679 2.4475 18.347 2.60777 18.1206C2.87051 17.7498 2.78275 17.2363 2.41195 16.9736L1.32467 16.2035C0.953984 15.9408 0.440459 16.0285 0.177718 16.3993C-0.084914 16.7701 0.0026299 17.2838 0.37354 17.5464Z" fill="#A29999"/>
<path d="M0.849765 22.9528C1.01421 22.9528 1.1803 22.9037 1.32467 22.8014L2.41195 22.0313C2.78275 21.7687 2.87052 21.2552 2.60777 20.8844C2.34514 20.5136 1.83151 20.4259 1.46082 20.6885L0.37354 21.4587C0.00273964 21.7213 -0.0849139 22.2348 0.177718 22.6056C0.338105 22.8319 0.59196 22.9528 0.849765 22.9528Z" fill="#A29999"/>
<path d="M18.4403 18.4679C18.6047 18.4679 18.7708 18.4188 18.9152 18.3165L20.0025 17.5464C20.3733 17.2838 20.461 16.7702 20.1983 16.3995C19.9355 16.0287 19.422 15.9409 19.0513 16.2036L17.9641 16.9738C17.5933 17.2364 17.5055 17.7499 17.7682 18.1207C17.9285 18.3471 18.1824 18.4679 18.4403 18.4679Z" fill="#A29999"/>
<path d="M17.9641 22.0313L19.0513 22.8015C19.1957 22.9038 19.3618 22.9529 19.5262 22.9529C19.7841 22.9529 20.038 22.832 20.1983 22.6055C20.461 22.2347 20.3733 21.7212 20.0025 21.4586L18.9152 20.6884C18.5444 20.4258 18.031 20.5135 17.7682 20.8843C17.5055 21.2551 17.5931 21.7686 17.9641 22.0313Z" fill="#A29999"/>
</svg>
