<svg width="28" height="28" viewBox="0 0 28 28" fill="none" xmlns="http://www.w3.org/2000/svg">
<path d="M10.5 17.5L17.5 10.5" stroke="white" stroke-width="2" stroke-linecap="round" stroke-linejoin="round"/>
<path d="M11.0833 11.6667C11.4055 11.6667 11.6667 11.4055 11.6667 11.0833C11.6667 10.7612 11.4055 10.5 11.0833 10.5C10.7612 10.5 10.5 10.7612 10.5 11.0833C10.5 11.4055 10.7612 11.6667 11.0833 11.6667Z" fill="white" stroke="white" stroke-width="2" stroke-linecap="round" stroke-linejoin="round"/>
<path d="M16.9173 17.5007C17.2395 17.5007 17.5007 17.2395 17.5007 16.9173C17.5007 16.5952 17.2395 16.334 16.9173 16.334C16.5952 16.334 16.334 16.5952 16.334 16.9173C16.334 17.2395 16.5952 17.5007 16.9173 17.5007Z" fill="white" stroke="white" stroke-width="2" stroke-linecap="round" stroke-linejoin="round"/>
<path d="M5.83387 8.40054C5.83387 7.71982 6.10429 7.06697 6.58563 6.58563C7.06697 6.10429 7.71982 5.83387 8.40054 5.83387H9.5672C10.2449 5.83348 10.895 5.56507 11.3755 5.0872L12.1922 4.27054C12.4307 4.03067 12.7143 3.84032 13.0267 3.71043C13.339 3.58054 13.6739 3.51367 14.0122 3.51367C14.3505 3.51367 14.6854 3.58054 14.9978 3.71043C15.3101 3.84032 15.5937 4.03067 15.8322 4.27054L16.6489 5.0872C17.1294 5.56507 17.7795 5.83348 18.4572 5.83387H19.6239C20.3046 5.83387 20.9574 6.10429 21.4388 6.58563C21.9201 7.06697 22.1905 7.71982 22.1905 8.40054V9.5672C22.1909 10.2449 22.4593 10.895 22.9372 11.3755L23.7539 12.1922C23.9937 12.4307 24.1841 12.7143 24.314 13.0267C24.4439 13.339 24.5107 13.6739 24.5107 14.0122C24.5107 14.3505 24.4439 14.6854 24.314 14.9978C24.1841 15.3101 23.9937 15.5937 23.7539 15.8322L22.9372 16.6489C22.4593 17.1294 22.1909 17.7795 22.1905 18.4572V19.6239C22.1905 20.3046 21.9201 20.9574 21.4388 21.4388C20.9574 21.9201 20.3046 22.1905 19.6239 22.1905H18.4572C17.7795 22.1909 17.1294 22.4593 16.6489 22.9372L15.8322 23.7539C15.5937 23.9937 15.3101 24.1841 14.9978 24.314C14.6854 24.4439 14.3505 24.5107 14.0122 24.5107C13.6739 24.5107 13.339 24.4439 13.0267 24.314C12.7143 24.1841 12.4307 23.9937 12.1922 23.7539L11.3755 22.9372C10.895 22.4593 10.2449 22.1909 9.5672 22.1905H8.40054C7.71982 22.1905 7.06697 21.9201 6.58563 21.4388C6.10429 20.9574 5.83387 20.3046 5.83387 19.6239V18.4572C5.83348 17.7795 5.56507 17.1294 5.0872 16.6489L4.27054 15.8322C4.03067 15.5937 3.84032 15.3101 3.71043 14.9978C3.58054 14.6854 3.51367 14.3505 3.51367 14.0122C3.51367 13.6739 3.58054 13.339 3.71043 13.0267C3.84032 12.7143 4.03067 12.4307 4.27054 12.1922L5.0872 11.3755C5.56507 10.895 5.83348 10.2449 5.83387 9.5672V8.40054" stroke="white" stroke-width="2" stroke-linecap="round" stroke-linejoin="round"/>
</svg>
