<svg width="56" height="56" viewBox="0 0 56 56" fill="none" xmlns="http://www.w3.org/2000/svg">
<g clip-path="url(#clip0)">
<path d="M51.5072 4.0744H44.3496C43.8966 4.0744 43.5293 4.44168 43.5293 4.89471C43.5293 5.34775 43.8966 5.71503 44.3496 5.71503H51.5072C51.9603 5.71503 52.3275 5.34775 52.3275 4.89471C52.3275 4.44168 51.9604 4.0744 51.5072 4.0744Z" fill="white"/>
<path d="M40.2852 5.71503H41.1576C41.6107 5.71503 41.978 5.34775 41.978 4.89471C41.978 4.44168 41.6107 4.0744 41.1576 4.0744H40.2852C39.8321 4.0744 39.4648 4.44168 39.4648 4.89471C39.4648 5.34775 39.8321 5.71503 40.2852 5.71503Z" fill="white"/>
<path d="M40.2852 9.56854H51.5075C51.9605 9.56854 52.3278 9.20126 52.3278 8.74823C52.3278 8.2952 51.9605 7.92792 51.5075 7.92792H40.2852C39.8321 7.92792 39.4648 8.2952 39.4648 8.74823C39.4648 9.20126 39.8321 9.56854 40.2852 9.56854Z" fill="white"/>
<path d="M43.2516 48.5735C43.2516 45.2967 42.1576 42.0821 40.165 39.4847L40.317 36.6842C40.4205 34.7778 38.9076 33.1649 36.9835 33.1649H28.004C27.5909 32.873 27.3404 32.3989 27.3404 31.8868V29.5964C28.7326 28.696 29.7101 27.6692 30.4281 26.4472H32.0156C33.8521 26.4472 35.3462 24.9532 35.3462 23.1167V16.9904C35.3462 15.9571 34.7484 15.0437 33.8545 14.6116V10.312C33.8545 8.35465 32.2621 6.76215 30.3047 6.76215H30.2128C30.1568 6.76215 30.1113 6.71654 30.1113 6.66065C30.1113 4.70328 28.5188 3.11078 26.5614 3.11078H17.8738C13.5615 3.11078 10.0531 6.6192 10.0531 10.9315V14.6115C9.15928 15.0436 8.56144 15.957 8.56144 16.9902V20.1059C8.56144 21.5637 9.74739 22.7496 11.2051 22.7496H12.2641C12.5382 25.0679 13.6257 27.1852 15.3291 28.6572C15.7288 29.0026 16.1421 29.3111 16.5672 29.5867V31.8867C16.5672 32.3972 16.3157 32.8715 15.9007 33.1648H6.92442C5.01517 33.1648 3.48666 34.7628 3.591 36.6841L3.74303 39.4846C1.75033 42.0821 0.656359 45.2967 0.656359 48.5735V51.6632C0.2485 52.1203 0 52.7224 0 53.3817C0 54.8067 1.15927 55.9658 2.5842 55.9658H41.3237C42.7487 55.9658 43.9079 54.8065 43.9079 53.3817C43.9079 52.7224 43.6594 52.1203 43.2516 51.6633V48.5735ZM41.611 48.5735V50.8138C41.5166 50.8033 41.4209 50.7975 41.3237 50.7975H39.551L40.014 42.2674C41.0523 44.1958 41.611 46.3683 41.611 48.5735ZM33.6214 16.5898C33.6754 16.7132 33.7058 16.8486 33.7058 16.9905V20.1061C33.7058 20.6592 33.2558 21.1092 32.7027 21.1092H31.7272V18.0168L32.2327 17.8407C32.8581 17.6229 33.35 17.1635 33.6214 16.5898ZM28.1447 26.0943H26.086C25.7542 26.0943 25.4842 25.8244 25.4842 25.4925C25.4842 25.1607 25.7542 24.8907 26.086 24.8907H28.1447C28.4765 24.8907 28.7465 25.1607 28.7465 25.4925C28.7465 25.8244 28.4765 26.0943 28.1447 26.0943ZM32.0158 24.8067H31.1866C31.4176 24.1481 31.5771 23.4581 31.6612 22.7498H32.7027C33.0576 22.7498 33.3962 22.6791 33.7058 22.5516V23.1169C33.7058 24.0487 32.9476 24.8067 32.0158 24.8067ZM11.6939 10.9317C11.6939 7.52406 14.4664 4.75162 17.8741 4.75162H26.5616C27.6143 4.75162 28.4709 5.60814 28.4709 6.66087C28.4709 7.62151 29.2525 8.403 30.213 8.403H30.305C31.3577 8.403 32.2141 9.25951 32.2141 10.3122V15.5582C32.2141 15.8883 32.0047 16.183 31.6929 16.2916L29.9691 16.8919C29.8996 16.916 29.828 16.8659 29.828 16.7912L29.8312 13.5314C29.8411 11.1524 27.6135 9.07751 24.4923 10.08C22.9226 10.5845 20.98 10.5827 19.4155 10.08C16.3267 9.08736 14.0667 11.1253 14.0767 13.5289L14.0805 16.7914C14.0805 16.8667 14.0072 16.9162 13.9394 16.8919L12.215 16.2915C11.9033 16.183 11.6938 15.8882 11.6938 15.5581V10.9317H11.6939ZM10.2023 20.1061V16.9904C10.2023 16.8486 10.2327 16.7131 10.2866 16.5897C10.5582 17.1635 11.05 17.6229 11.6757 17.8407L12.1811 18.0167V21.1091H11.2055C10.6522 21.1092 10.2023 20.6591 10.2023 20.1061ZM13.8367 21.8023C13.8095 20.7239 13.8262 19.5792 13.8216 18.5311C13.8721 18.5355 13.9228 18.538 13.9734 18.538C14.9487 18.538 15.7228 17.7453 15.7211 16.789L15.7173 13.5244C15.7117 12.1924 16.9065 10.9968 18.9136 11.6419C20.8158 12.2531 23.0982 12.2512 24.9943 11.6419C26.9065 11.0276 28.1964 12.1092 28.1905 13.5271L28.1874 16.7892C28.186 17.806 29.0551 18.6206 30.0863 18.5311V21.8687C30.0625 22.5777 29.9458 23.2696 29.7478 23.9276C29.3404 23.5102 28.7726 23.25 28.1447 23.25H26.086C24.8496 23.25 23.8435 24.2559 23.8435 25.4924C23.8435 26.7289 24.8496 27.7348 26.086 27.7348H27.1283C25.6131 28.9175 23.8901 29.5341 21.997 29.5655C17.8556 29.5324 13.9552 26.4728 13.8367 21.8023ZM18.2082 31.8869V30.4516C19.3939 30.9426 20.6589 31.197 21.9948 31.2064H22.0006C22.0048 31.2064 22.0091 31.2064 22.0134 31.2063C23.3139 31.186 24.5453 30.934 25.7001 30.4583V31.8868C25.7001 32.3347 25.7938 32.7682 25.9664 33.1649H17.9409C18.114 32.7681 18.2082 32.3345 18.2082 31.8869ZM3.89397 42.2674L4.02347 44.654C4.04808 45.1065 4.43559 45.4544 4.88698 45.4287C5.33936 45.4042 5.68619 45.0176 5.66169 44.5652L5.22911 36.5954C5.1765 35.6259 5.94584 34.8057 6.92442 34.8057H36.9836C37.955 34.8057 38.7319 35.6186 38.6789 36.5954L37.9081 50.7976H25.0447C25.2014 49.8606 25.6234 48.9793 26.2734 48.2572L26.2969 48.2309C28.78 45.453 28.0368 41.1091 24.8273 39.2854C24.0037 38.8175 22.9577 39.401 22.9577 40.371V44.093C22.9577 44.2637 22.8189 44.4024 22.6483 44.4024H21.2597C21.089 44.4024 20.9502 44.2636 20.9502 44.093V40.371C20.9502 39.4028 19.9059 38.8165 19.0807 39.2854C15.862 41.1141 15.1339 45.4597 17.6135 48.2337L17.6345 48.2572C18.2845 48.9792 18.7065 49.8605 18.8633 50.7975H5.99998L5.86841 48.3723C5.84391 47.92 5.45727 47.5727 5.00489 47.5976C4.55252 47.6221 4.20569 48.0088 4.23019 48.4612L4.35695 50.7975H2.5842C2.48708 50.7975 2.39137 50.8034 2.29698 50.8138V48.5735C2.29698 46.3684 2.85578 44.1958 3.89397 42.2674ZM20.5208 50.7975C20.3529 49.4534 19.7768 48.1845 18.8541 47.1596L18.8343 47.1374C17.2493 45.3644 17.4616 42.6227 19.3097 41.1106V44.0929C19.3097 45.1682 20.1845 46.0429 21.2598 46.0429H22.6484C23.7237 46.0429 24.5984 45.1681 24.5984 44.0929V41.1106C26.4343 42.6127 26.6695 45.3524 25.0718 47.1397L25.0541 47.1595C24.1313 48.1845 23.5551 49.4534 23.3872 50.7975H20.5208ZM41.3237 54.3253H2.5842C2.06391 54.3253 1.64062 53.902 1.64062 53.3818C1.64062 52.8616 2.06391 52.4383 2.5842 52.4383H41.3237C41.844 52.4383 42.2673 52.8615 42.2673 53.3818C42.2673 53.9021 41.844 54.3253 41.3237 54.3253Z" fill="white"/>
<path d="M55.1794 5.64813C55.6324 5.64813 55.9997 5.28085 55.9997 4.82782V3.24013C55.9997 1.47241 54.5615 0.0342407 52.7937 0.0342407H38.997C37.2292 0.0342407 35.791 1.47241 35.791 3.24013V10.1404C35.791 11.9082 37.2292 13.3464 38.997 13.3464C39.3129 13.3464 39.5699 13.6034 39.5699 13.9193V18.1866C39.5699 18.8029 39.9689 19.3274 40.5629 19.4918C41.1605 19.6572 41.7708 19.4085 42.0859 18.8831L45.2392 13.6246C45.3421 13.453 45.5304 13.3464 45.7306 13.3464H52.7938C54.5616 13.3464 55.9998 11.9082 55.9998 10.1404V8.66294C55.9998 8.20991 55.6325 7.84263 55.1795 7.84263C54.7265 7.84263 54.3592 8.20991 54.3592 8.66294V10.1404C54.3592 11.0036 53.657 11.7058 52.7938 11.7058H45.7305C44.9572 11.7058 44.2297 12.1178 43.832 12.7809L41.2104 17.1526V13.9193C41.2104 12.6988 40.2174 11.7058 38.9969 11.7058C38.1337 11.7058 37.4315 11.0036 37.4315 10.1404V3.24013C37.4315 2.37705 38.1337 1.67487 38.9969 1.67487H52.7937C53.6569 1.67487 54.3591 2.37705 54.3591 3.24013V4.82782C54.3591 5.28085 54.7263 5.64813 55.1794 5.64813Z" fill="white"/>
</g>
<defs>
<clipPath id="clip0">
<rect width="56" height="56" fill="white"/>
</clipPath>
</defs>
</svg>
