<svg width="56" height="56" viewBox="0 0 56 56" fill="none" xmlns="http://www.w3.org/2000/svg">
<g clip-path="url(#clip0_590:13009)">
<path d="M51.5062 4.07442H44.3486C43.8956 4.07442 43.5283 4.44171 43.5283 4.89474C43.5283 5.34777 43.8956 5.71505 44.3486 5.71505H51.5062C51.9593 5.71505 52.3266 5.34777 52.3266 4.89474C52.3266 4.44171 51.9594 4.07442 51.5062 4.07442Z" fill="#FE000C"/>
<path d="M40.2842 5.71505H41.1567C41.6097 5.71505 41.977 5.34777 41.977 4.89474C41.977 4.44171 41.6097 4.07442 41.1567 4.07442H40.2842C39.8311 4.07442 39.4639 4.44171 39.4639 4.89474C39.4639 5.34777 39.8311 5.71505 40.2842 5.71505Z" fill="#FE000C"/>
<path d="M40.2842 9.56855H51.5065C51.9595 9.56855 52.3268 9.20127 52.3268 8.74824C52.3268 8.29521 51.9595 7.92793 51.5065 7.92793H40.2842C39.8311 7.92793 39.4639 8.29521 39.4639 8.74824C39.4639 9.20127 39.8311 9.56855 40.2842 9.56855Z" fill="#FE000C"/>
<path d="M43.2516 48.5735C43.2516 45.2967 42.1576 42.082 40.165 39.4847L40.317 36.6842C40.4205 34.7778 38.9076 33.1649 36.9835 33.1649H28.004C27.5909 32.873 27.3404 32.3989 27.3404 31.8868V29.5963C28.7326 28.696 29.7101 27.6692 30.4281 26.4472H32.0156C33.8521 26.4472 35.3462 24.9532 35.3462 23.1166V16.9903C35.3462 15.9571 34.7484 15.0437 33.8545 14.6115V10.312C33.8545 8.35463 32.2621 6.76213 30.3047 6.76213H30.2128C30.1568 6.76213 30.1113 6.71652 30.1113 6.66063C30.1113 4.70325 28.5188 3.11075 26.5614 3.11075H17.8738C13.5615 3.11075 10.0531 6.61917 10.0531 10.9315V14.6114C9.15928 15.0436 8.56144 15.957 8.56144 16.9902V20.1059C8.56144 21.5636 9.74739 22.7496 11.2051 22.7496H12.2641C12.5382 25.0679 13.6257 27.1852 15.3291 28.6571C15.7288 29.0026 16.1421 29.3111 16.5673 29.5867V31.8867C16.5673 32.3972 16.3157 32.8715 15.9007 33.1648H6.92442C5.01517 33.1648 3.48666 34.7628 3.591 36.6841L3.74303 39.4846C1.75033 42.0821 0.656359 45.2967 0.656359 48.5735V51.6632C0.2485 52.1203 0 52.7224 0 53.3817C0 54.8066 1.15927 55.9658 2.5842 55.9658H41.3237C42.7487 55.9658 43.9079 54.8065 43.9079 53.3817C43.9079 52.7224 43.6594 52.1203 43.2516 51.6633V48.5735ZM41.611 48.5735V50.8138C41.5166 50.8033 41.4209 50.7975 41.3237 50.7975H39.551L40.014 42.2673C41.0523 44.1957 41.611 46.3682 41.611 48.5735V48.5735ZM33.6214 16.5898C33.6754 16.7132 33.7058 16.8486 33.7058 16.9904V20.1061C33.7058 20.6592 33.2558 21.1092 32.7027 21.1092H31.7272V18.0168L32.2327 17.8407C32.8581 17.6228 33.35 17.1635 33.6214 16.5898V16.5898ZM28.1447 26.0943H26.086C25.7542 26.0943 25.4842 25.8243 25.4842 25.4925C25.4842 25.1606 25.7542 24.8907 26.086 24.8907H28.1447C28.4765 24.8907 28.7465 25.1606 28.7465 25.4925C28.7465 25.8243 28.4765 26.0943 28.1447 26.0943ZM32.0158 24.8067H31.1866C31.4176 24.1481 31.5771 23.4581 31.6612 22.7498H32.7027C33.0576 22.7498 33.3962 22.679 33.7058 22.5516V23.1169C33.7058 24.0486 32.9476 24.8067 32.0158 24.8067V24.8067ZM11.6939 10.9317C11.6939 7.52403 14.4664 4.7516 17.8741 4.7516H26.5616C27.6143 4.7516 28.4709 5.60811 28.4709 6.66085C28.4709 7.62149 29.2525 8.40297 30.213 8.40297H30.305C31.3577 8.40297 32.2141 9.25949 32.2141 10.3122V15.5582C32.2141 15.8883 32.0047 16.1829 31.6929 16.2915L29.9691 16.8919C29.8996 16.916 29.828 16.8659 29.828 16.7912L29.8312 13.5313C29.8411 11.1523 27.6135 9.07749 24.4923 10.08C22.9226 10.5845 20.98 10.5827 19.4155 10.08C16.3267 9.08733 14.0667 11.1253 14.0767 13.5288L14.0805 16.7914C14.0805 16.8666 14.0072 16.9162 13.9394 16.8919L12.215 16.2914C11.9033 16.1829 11.6938 15.8882 11.6938 15.5581V10.9317H11.6939ZM10.2023 20.1061V16.9903C10.2023 16.8486 10.2327 16.7131 10.2866 16.5897C10.5582 17.1635 11.05 17.6228 11.6757 17.8407L12.1811 18.0167V21.1091H11.2055C10.6522 21.1092 10.2023 20.6591 10.2023 20.1061ZM13.8367 21.8023C13.8095 20.7238 13.8262 19.5791 13.8216 18.5311C13.8721 18.5355 13.9228 18.538 13.9734 18.538C14.9487 18.538 15.7228 17.7452 15.7211 16.789L15.7173 13.5243C15.7117 12.1924 16.9065 10.9968 18.9136 11.6419C20.8158 12.2531 23.0982 12.2512 24.9943 11.6419C26.9065 11.0275 28.1964 12.1091 28.1905 13.5271L28.1874 16.7892C28.186 17.8059 29.0551 18.6206 30.0863 18.5311V21.8687C30.0625 22.5776 29.9458 23.2696 29.7478 23.9276C29.3404 23.5102 28.7726 23.25 28.1447 23.25H26.086C24.8496 23.25 23.8435 24.2559 23.8435 25.4924C23.8435 26.7289 24.8496 27.7348 26.086 27.7348H27.1283C25.6131 28.9175 23.8901 29.5341 21.997 29.5655C17.8556 29.5324 13.9552 26.4728 13.8367 21.8023V21.8023ZM18.2082 31.8869V30.4516C19.3939 30.9425 20.6589 31.1969 21.9948 31.2063H22.0006C22.0048 31.2063 22.0091 31.2063 22.0134 31.2062C23.3139 31.186 24.5453 30.934 25.7001 30.4582V31.8868C25.7001 32.3347 25.7938 32.7682 25.9664 33.1649H17.9409C18.114 32.7681 18.2082 32.3344 18.2082 31.8869V31.8869ZM3.89397 42.2673L4.02347 44.654C4.04808 45.1065 4.43559 45.4544 4.88698 45.4287C5.33936 45.4042 5.68619 45.0176 5.66169 44.5652L5.22911 36.5954C5.1765 35.6259 5.94584 34.8057 6.92442 34.8057H36.9836C37.955 34.8057 38.7319 35.6185 38.6789 36.5954L37.9081 50.7976H25.0447C25.2014 49.8606 25.6234 48.9792 26.2734 48.2571L26.2969 48.2309C28.78 45.453 28.0368 41.109 24.8273 39.2853C24.0037 38.8174 22.9577 39.4009 22.9577 40.371V44.093C22.9577 44.2636 22.8189 44.4023 22.6483 44.4023H21.2597C21.089 44.4023 20.9502 44.2635 20.9502 44.093V40.371C20.9502 39.4028 19.9059 38.8164 19.0807 39.2853C15.862 41.1141 15.1339 45.4597 17.6135 48.2336L17.6345 48.2571C18.2845 48.9791 18.7065 49.8605 18.8633 50.7975H5.99998L5.86841 48.3723C5.84391 47.9199 5.45727 47.5727 5.00489 47.5976C4.55252 47.6221 4.20569 48.0088 4.23019 48.4611L4.35695 50.7975H2.5842C2.48708 50.7975 2.39137 50.8034 2.29698 50.8138V48.5735C2.29698 46.3683 2.85578 44.1957 3.89397 42.2673ZM20.5208 50.7975C20.3529 49.4534 19.7768 48.1845 18.8541 47.1596L18.8343 47.1374C17.2493 45.3644 17.4616 42.6227 19.3097 41.1106V44.0929C19.3097 45.1682 20.1845 46.0428 21.2598 46.0428H22.6484C23.7237 46.0428 24.5984 45.1681 24.5984 44.0929V41.1106C26.4343 42.6126 26.6695 45.3524 25.0718 47.1397L25.0541 47.1595C24.1313 48.1845 23.5551 49.4534 23.3872 50.7975H20.5208ZM41.3237 54.3253H2.5842C2.06391 54.3253 1.64062 53.902 1.64062 53.3818C1.64062 52.8616 2.06391 52.4382 2.5842 52.4382H41.3237C41.844 52.4382 42.2673 52.8615 42.2673 53.3818C42.2673 53.9021 41.844 54.3253 41.3237 54.3253Z" fill="#A29999"/>
<path d="M55.1804 5.64814C55.6334 5.64814 56.0007 5.28085 56.0007 4.82782V3.24014C56.0007 1.47242 54.5625 0.0342445 52.7947 0.0342445H38.998C37.2302 0.0342445 35.792 1.47242 35.792 3.24014V10.1404C35.792 11.9082 37.2302 13.3464 38.998 13.3464C39.3139 13.3464 39.5709 13.6034 39.5709 13.9193V18.1866C39.5709 18.8029 39.9699 19.3274 40.5639 19.4918C41.1614 19.6572 41.7717 19.4085 42.0869 18.8831L45.2401 13.6246C45.3431 13.453 45.5314 13.3464 45.7316 13.3464H52.7948C54.5626 13.3464 56.0008 11.9082 56.0008 10.1404V8.66295C56.0008 8.20992 55.6335 7.84264 55.1805 7.84264C54.7274 7.84264 54.3601 8.20992 54.3601 8.66295V10.1404C54.3601 11.0036 53.658 11.7058 52.7948 11.7058H45.7314C44.9582 11.7058 44.2307 12.1178 43.833 12.7809L41.2114 17.1526V13.9193C41.2114 12.6988 40.2184 11.7058 38.9979 11.7058C38.1347 11.7058 37.4325 11.0036 37.4325 10.1404V3.24014C37.4325 2.37706 38.1347 1.67487 38.9979 1.67487H52.7947C53.6579 1.67487 54.36 2.37706 54.36 3.24014V4.82782C54.36 5.28085 54.7273 5.64814 55.1804 5.64814V5.64814Z" fill="#FE000C"/>
</g>
<defs>
<clipPath id="clip0_590:13009">
<rect width="56" height="56" fill="white"/>
</clipPath>
</defs>
</svg>
