<svg width="16" height="11" viewBox="0 0 16 11" fill="none" xmlns="http://www.w3.org/2000/svg">
<path fill-rule="evenodd" clip-rule="evenodd" d="M15.6329 1.2673C15.7442 0.896465 15.6329 0.623901 15.1035 0.623901H13.3531C12.908 0.623901 12.703 0.859331 12.5917 1.11902C12.5917 1.11902 11.7015 3.28865 10.4404 4.69798C10.0325 5.10595 9.84705 5.2356 9.6245 5.2356C9.51322 5.2356 9.35218 5.10595 9.35218 4.73511V1.2673C9.35218 0.822198 9.22303 0.623901 8.85207 0.623901H6.10142C5.82336 0.623901 5.65607 0.83045 5.65607 1.02625C5.65607 1.44822 6.28647 1.54549 6.35148 2.73227V5.30999C6.35148 5.87513 6.24946 5.97765 6.02691 5.97765C5.43352 5.97765 3.99018 3.79814 3.13398 1.30444C2.96619 0.819697 2.7979 0.623901 2.35055 0.623901H0.60014C0.100023 0.623901 0 0.859331 0 1.11902C0 1.58262 0.593513 3.88216 2.76314 6.92337C4.20973 9.00011 6.24746 10.1261 8.10189 10.1261C9.21465 10.1261 9.35218 9.87606 9.35218 9.44533V7.87559C9.35218 7.37548 9.45758 7.2757 9.80979 7.2757C10.0696 7.2757 10.5146 7.40548 11.5532 8.40684C12.74 9.59349 12.9355 10.1261 13.6032 10.1261H15.3536C15.8537 10.1261 16.1038 9.87606 15.9595 9.38257C15.8017 8.8907 15.2351 8.17729 14.4831 7.33134C14.0752 6.8491 13.4631 6.32986 13.2779 6.0703C13.0182 5.73647 13.0923 5.58818 13.2779 5.29162C13.2779 5.29162 15.4103 2.28741 15.6329 1.26743V1.2673Z" fill="white"/>
</svg>
